%TF.GenerationSoftware,KiCad,Pcbnew,(6.0.9)*%
%TF.CreationDate,2023-04-16T11:33:18+02:00*%
%TF.ProjectId,PCB_zavrsni,5043425f-7a61-4767-9273-6e692e6b6963,rev?*%
%TF.SameCoordinates,Original*%
%TF.FileFunction,Drillmap*%
%TF.FilePolarity,Positive*%
%FSLAX45Y45*%
G04 Gerber Fmt 4.5, Leading zero omitted, Abs format (unit mm)*
G04 Created by KiCad (PCBNEW (6.0.9)) date 2023-04-16 11:33:18*
%MOMM*%
%LPD*%
G01*
G04 APERTURE LIST*
%ADD10C,0.100000*%
%ADD11C,0.200000*%
%ADD12C,0.040000*%
%ADD13C,0.070000*%
%ADD14C,0.075000*%
G04 APERTURE END LIST*
D10*
X19200000Y-4250000D02*
X22200000Y-4250000D01*
X22200000Y-4250000D02*
X22200000Y-10250000D01*
X22200000Y-10250000D02*
X19200000Y-10250000D01*
X19200000Y-10250000D02*
X19200000Y-4250000D01*
D11*
D12*
X20147600Y-6050600D02*
X20187600Y-6090600D01*
X20187600Y-6050600D02*
X20147600Y-6090600D01*
X20147600Y-6507800D02*
X20187600Y-6547800D01*
X20187600Y-6507800D02*
X20147600Y-6547800D01*
X20604800Y-6634800D02*
X20644800Y-6674800D01*
X20644800Y-6634800D02*
X20604800Y-6674800D01*
X21366800Y-5060000D02*
X21406800Y-5100000D01*
X21406800Y-5060000D02*
X21366800Y-5100000D01*
D13*
X20035000Y-4450000D02*
G75*
G03*
X20035000Y-4450000I-35000J0D01*
G01*
X20035000Y-5212000D02*
G75*
G03*
X20035000Y-5212000I-35000J0D01*
G01*
X20939200Y-6604000D02*
G75*
G03*
X20939200Y-6604000I-35000J0D01*
G01*
X20939200Y-7366000D02*
G75*
G03*
X20939200Y-7366000I-35000J0D01*
G01*
X21244000Y-6604000D02*
G75*
G03*
X21244000Y-6604000I-35000J0D01*
G01*
X21244000Y-7366000D02*
G75*
G03*
X21244000Y-7366000I-35000J0D01*
G01*
X21244000Y-9067800D02*
G75*
G03*
X21244000Y-9067800I-35000J0D01*
G01*
X21244000Y-9829800D02*
G75*
G03*
X21244000Y-9829800I-35000J0D01*
G01*
D14*
X21884200Y-9157300D02*
X21884200Y-9232300D01*
X21846700Y-9194800D02*
X21921700Y-9194800D01*
X21884200Y-9284300D02*
X21884200Y-9359300D01*
X21846700Y-9321800D02*
X21921700Y-9321800D01*
X21884200Y-9411300D02*
X21884200Y-9486300D01*
X21846700Y-9448800D02*
X21921700Y-9448800D01*
D10*
X19610356Y-4460356D02*
X19610356Y-4389644D01*
X19539644Y-4389644D01*
X19539644Y-4460356D01*
X19610356Y-4460356D01*
X19610356Y-4714356D02*
X19610356Y-4643644D01*
X19539644Y-4643644D01*
X19539644Y-4714356D01*
X19610356Y-4714356D01*
X19610356Y-4968356D02*
X19610356Y-4897644D01*
X19539644Y-4897644D01*
X19539644Y-4968356D01*
X19610356Y-4968356D01*
X19610356Y-5222356D02*
X19610356Y-5151644D01*
X19539644Y-5151644D01*
X19539644Y-5222356D01*
X19610356Y-5222356D01*
X19610356Y-5476356D02*
X19610356Y-5405644D01*
X19539644Y-5405644D01*
X19539644Y-5476356D01*
X19610356Y-5476356D01*
X19610356Y-5730356D02*
X19610356Y-5659644D01*
X19539644Y-5659644D01*
X19539644Y-5730356D01*
X19610356Y-5730356D01*
X19610356Y-5984356D02*
X19610356Y-5913644D01*
X19539644Y-5913644D01*
X19539644Y-5984356D01*
X19610356Y-5984356D01*
X19610356Y-6238356D02*
X19610356Y-6167644D01*
X19539644Y-6167644D01*
X19539644Y-6238356D01*
X19610356Y-6238356D01*
X19699956Y-8362856D02*
X19699956Y-8292144D01*
X19629244Y-8292144D01*
X19629244Y-8362856D01*
X19699956Y-8362856D01*
X19953956Y-8362856D02*
X19953956Y-8292144D01*
X19883244Y-8292144D01*
X19883244Y-8362856D01*
X19953956Y-8362856D01*
X20207956Y-8362856D02*
X20207956Y-8292144D01*
X20137244Y-8292144D01*
X20137244Y-8362856D01*
X20207956Y-8362856D01*
X20411156Y-7145356D02*
X20411156Y-7074644D01*
X20340444Y-7074644D01*
X20340444Y-7145356D01*
X20411156Y-7145356D01*
X20411156Y-7399356D02*
X20411156Y-7328644D01*
X20340444Y-7328644D01*
X20340444Y-7399356D01*
X20411156Y-7399356D01*
X20461956Y-8362856D02*
X20461956Y-8292144D01*
X20391244Y-8292144D01*
X20391244Y-8362856D01*
X20461956Y-8362856D01*
X21896356Y-4460356D02*
X21896356Y-4389644D01*
X21825644Y-4389644D01*
X21825644Y-4460356D01*
X21896356Y-4460356D01*
X21896356Y-4714356D02*
X21896356Y-4643644D01*
X21825644Y-4643644D01*
X21825644Y-4714356D01*
X21896356Y-4714356D01*
X21896356Y-4968356D02*
X21896356Y-4897644D01*
X21825644Y-4897644D01*
X21825644Y-4968356D01*
X21896356Y-4968356D01*
X21896356Y-5222356D02*
X21896356Y-5151644D01*
X21825644Y-5151644D01*
X21825644Y-5222356D01*
X21896356Y-5222356D01*
X21896356Y-5476356D02*
X21896356Y-5405644D01*
X21825644Y-5405644D01*
X21825644Y-5476356D01*
X21896356Y-5476356D01*
X21896356Y-5730356D02*
X21896356Y-5659644D01*
X21825644Y-5659644D01*
X21825644Y-5730356D01*
X21896356Y-5730356D01*
X21896356Y-5984356D02*
X21896356Y-5913644D01*
X21825644Y-5913644D01*
X21825644Y-5984356D01*
X21896356Y-5984356D01*
X21896356Y-6238356D02*
X21896356Y-6167644D01*
X21825644Y-6167644D01*
X21825644Y-6238356D01*
X21896356Y-6238356D01*
X21904756Y-7149356D02*
X21904756Y-7078644D01*
X21834044Y-7078644D01*
X21834044Y-7149356D01*
X21904756Y-7149356D01*
X21904756Y-7403356D02*
X21904756Y-7332644D01*
X21834044Y-7332644D01*
X21834044Y-7403356D01*
X21904756Y-7403356D01*
D11*
X19452619Y-10565476D02*
X19452619Y-10365476D01*
X19500238Y-10365476D01*
X19528810Y-10375000D01*
X19547857Y-10394048D01*
X19557381Y-10413095D01*
X19566905Y-10451190D01*
X19566905Y-10479762D01*
X19557381Y-10517857D01*
X19547857Y-10536905D01*
X19528810Y-10555952D01*
X19500238Y-10565476D01*
X19452619Y-10565476D01*
X19652619Y-10565476D02*
X19652619Y-10432143D01*
X19652619Y-10470238D02*
X19662143Y-10451190D01*
X19671667Y-10441667D01*
X19690714Y-10432143D01*
X19709762Y-10432143D01*
X19776429Y-10565476D02*
X19776429Y-10432143D01*
X19776429Y-10365476D02*
X19766905Y-10375000D01*
X19776429Y-10384524D01*
X19785952Y-10375000D01*
X19776429Y-10365476D01*
X19776429Y-10384524D01*
X19900238Y-10565476D02*
X19881190Y-10555952D01*
X19871667Y-10536905D01*
X19871667Y-10365476D01*
X20005000Y-10565476D02*
X19985952Y-10555952D01*
X19976429Y-10536905D01*
X19976429Y-10365476D01*
X20233571Y-10565476D02*
X20233571Y-10365476D01*
X20300238Y-10508333D01*
X20366905Y-10365476D01*
X20366905Y-10565476D01*
X20547857Y-10565476D02*
X20547857Y-10460714D01*
X20538333Y-10441667D01*
X20519286Y-10432143D01*
X20481190Y-10432143D01*
X20462143Y-10441667D01*
X20547857Y-10555952D02*
X20528810Y-10565476D01*
X20481190Y-10565476D01*
X20462143Y-10555952D01*
X20452619Y-10536905D01*
X20452619Y-10517857D01*
X20462143Y-10498810D01*
X20481190Y-10489286D01*
X20528810Y-10489286D01*
X20547857Y-10479762D01*
X20643095Y-10432143D02*
X20643095Y-10632143D01*
X20643095Y-10441667D02*
X20662143Y-10432143D01*
X20700238Y-10432143D01*
X20719286Y-10441667D01*
X20728810Y-10451190D01*
X20738333Y-10470238D01*
X20738333Y-10527381D01*
X20728810Y-10546429D01*
X20719286Y-10555952D01*
X20700238Y-10565476D01*
X20662143Y-10565476D01*
X20643095Y-10555952D01*
X20824048Y-10546429D02*
X20833571Y-10555952D01*
X20824048Y-10565476D01*
X20814524Y-10555952D01*
X20824048Y-10546429D01*
X20824048Y-10565476D01*
X20824048Y-10441667D02*
X20833571Y-10451190D01*
X20824048Y-10460714D01*
X20814524Y-10451190D01*
X20824048Y-10441667D01*
X20824048Y-10460714D01*
D12*
X19155000Y-10875000D02*
X19195000Y-10915000D01*
X19195000Y-10875000D02*
X19155000Y-10915000D01*
D11*
X19490714Y-10785476D02*
X19509762Y-10785476D01*
X19528810Y-10795000D01*
X19538333Y-10804524D01*
X19547857Y-10823571D01*
X19557381Y-10861667D01*
X19557381Y-10909286D01*
X19547857Y-10947381D01*
X19538333Y-10966429D01*
X19528810Y-10975952D01*
X19509762Y-10985476D01*
X19490714Y-10985476D01*
X19471667Y-10975952D01*
X19462143Y-10966429D01*
X19452619Y-10947381D01*
X19443095Y-10909286D01*
X19443095Y-10861667D01*
X19452619Y-10823571D01*
X19462143Y-10804524D01*
X19471667Y-10795000D01*
X19490714Y-10785476D01*
X19643095Y-10966429D02*
X19652619Y-10975952D01*
X19643095Y-10985476D01*
X19633571Y-10975952D01*
X19643095Y-10966429D01*
X19643095Y-10985476D01*
X19824048Y-10852143D02*
X19824048Y-10985476D01*
X19776429Y-10775952D02*
X19728810Y-10918810D01*
X19852619Y-10918810D01*
X19966905Y-10785476D02*
X19985952Y-10785476D01*
X20005000Y-10795000D01*
X20014524Y-10804524D01*
X20024048Y-10823571D01*
X20033571Y-10861667D01*
X20033571Y-10909286D01*
X20024048Y-10947381D01*
X20014524Y-10966429D01*
X20005000Y-10975952D01*
X19985952Y-10985476D01*
X19966905Y-10985476D01*
X19947857Y-10975952D01*
X19938333Y-10966429D01*
X19928810Y-10947381D01*
X19919286Y-10909286D01*
X19919286Y-10861667D01*
X19928810Y-10823571D01*
X19938333Y-10804524D01*
X19947857Y-10795000D01*
X19966905Y-10785476D01*
X20157381Y-10785476D02*
X20176429Y-10785476D01*
X20195476Y-10795000D01*
X20205000Y-10804524D01*
X20214524Y-10823571D01*
X20224048Y-10861667D01*
X20224048Y-10909286D01*
X20214524Y-10947381D01*
X20205000Y-10966429D01*
X20195476Y-10975952D01*
X20176429Y-10985476D01*
X20157381Y-10985476D01*
X20138333Y-10975952D01*
X20128810Y-10966429D01*
X20119286Y-10947381D01*
X20109762Y-10909286D01*
X20109762Y-10861667D01*
X20119286Y-10823571D01*
X20128810Y-10804524D01*
X20138333Y-10795000D01*
X20157381Y-10785476D01*
X20309762Y-10985476D02*
X20309762Y-10852143D01*
X20309762Y-10871190D02*
X20319286Y-10861667D01*
X20338333Y-10852143D01*
X20366905Y-10852143D01*
X20385952Y-10861667D01*
X20395476Y-10880714D01*
X20395476Y-10985476D01*
X20395476Y-10880714D02*
X20405000Y-10861667D01*
X20424048Y-10852143D01*
X20452619Y-10852143D01*
X20471667Y-10861667D01*
X20481190Y-10880714D01*
X20481190Y-10985476D01*
X20576429Y-10985476D02*
X20576429Y-10852143D01*
X20576429Y-10871190D02*
X20585952Y-10861667D01*
X20605000Y-10852143D01*
X20633571Y-10852143D01*
X20652619Y-10861667D01*
X20662143Y-10880714D01*
X20662143Y-10985476D01*
X20662143Y-10880714D02*
X20671667Y-10861667D01*
X20690714Y-10852143D01*
X20719286Y-10852143D01*
X20738333Y-10861667D01*
X20747857Y-10880714D01*
X20747857Y-10985476D01*
X21138333Y-10775952D02*
X20966905Y-11033095D01*
X21395476Y-10785476D02*
X21414524Y-10785476D01*
X21433571Y-10795000D01*
X21443095Y-10804524D01*
X21452619Y-10823571D01*
X21462143Y-10861667D01*
X21462143Y-10909286D01*
X21452619Y-10947381D01*
X21443095Y-10966429D01*
X21433571Y-10975952D01*
X21414524Y-10985476D01*
X21395476Y-10985476D01*
X21376429Y-10975952D01*
X21366905Y-10966429D01*
X21357381Y-10947381D01*
X21347857Y-10909286D01*
X21347857Y-10861667D01*
X21357381Y-10823571D01*
X21366905Y-10804524D01*
X21376429Y-10795000D01*
X21395476Y-10785476D01*
X21547857Y-10966429D02*
X21557381Y-10975952D01*
X21547857Y-10985476D01*
X21538333Y-10975952D01*
X21547857Y-10966429D01*
X21547857Y-10985476D01*
X21681190Y-10785476D02*
X21700238Y-10785476D01*
X21719286Y-10795000D01*
X21728810Y-10804524D01*
X21738333Y-10823571D01*
X21747857Y-10861667D01*
X21747857Y-10909286D01*
X21738333Y-10947381D01*
X21728810Y-10966429D01*
X21719286Y-10975952D01*
X21700238Y-10985476D01*
X21681190Y-10985476D01*
X21662143Y-10975952D01*
X21652619Y-10966429D01*
X21643095Y-10947381D01*
X21633571Y-10909286D01*
X21633571Y-10861667D01*
X21643095Y-10823571D01*
X21652619Y-10804524D01*
X21662143Y-10795000D01*
X21681190Y-10785476D01*
X21938333Y-10985476D02*
X21824048Y-10985476D01*
X21881190Y-10985476D02*
X21881190Y-10785476D01*
X21862143Y-10814048D01*
X21843095Y-10833095D01*
X21824048Y-10842619D01*
X22119286Y-10785476D02*
X22024048Y-10785476D01*
X22014524Y-10880714D01*
X22024048Y-10871190D01*
X22043095Y-10861667D01*
X22090714Y-10861667D01*
X22109762Y-10871190D01*
X22119286Y-10880714D01*
X22128810Y-10899762D01*
X22128810Y-10947381D01*
X22119286Y-10966429D01*
X22109762Y-10975952D01*
X22090714Y-10985476D01*
X22043095Y-10985476D01*
X22024048Y-10975952D01*
X22014524Y-10966429D01*
X22195476Y-10785476D02*
X22328810Y-10785476D01*
X22243095Y-10985476D01*
X22395476Y-10785476D02*
X22395476Y-10823571D01*
X22471667Y-10785476D02*
X22471667Y-10823571D01*
X22766905Y-11061667D02*
X22757381Y-11052143D01*
X22738333Y-11023571D01*
X22728809Y-11004524D01*
X22719286Y-10975952D01*
X22709762Y-10928333D01*
X22709762Y-10890238D01*
X22719286Y-10842619D01*
X22728809Y-10814048D01*
X22738333Y-10795000D01*
X22757381Y-10766429D01*
X22766905Y-10756905D01*
X22928809Y-10852143D02*
X22928809Y-10985476D01*
X22881190Y-10775952D02*
X22833571Y-10918810D01*
X22957381Y-10918810D01*
X23185952Y-10985476D02*
X23185952Y-10785476D01*
X23271667Y-10985476D02*
X23271667Y-10880714D01*
X23262143Y-10861667D01*
X23243095Y-10852143D01*
X23214524Y-10852143D01*
X23195476Y-10861667D01*
X23185952Y-10871190D01*
X23395476Y-10985476D02*
X23376428Y-10975952D01*
X23366905Y-10966429D01*
X23357381Y-10947381D01*
X23357381Y-10890238D01*
X23366905Y-10871190D01*
X23376428Y-10861667D01*
X23395476Y-10852143D01*
X23424048Y-10852143D01*
X23443095Y-10861667D01*
X23452619Y-10871190D01*
X23462143Y-10890238D01*
X23462143Y-10947381D01*
X23452619Y-10966429D01*
X23443095Y-10975952D01*
X23424048Y-10985476D01*
X23395476Y-10985476D01*
X23576428Y-10985476D02*
X23557381Y-10975952D01*
X23547857Y-10956905D01*
X23547857Y-10785476D01*
X23728809Y-10975952D02*
X23709762Y-10985476D01*
X23671667Y-10985476D01*
X23652619Y-10975952D01*
X23643095Y-10956905D01*
X23643095Y-10880714D01*
X23652619Y-10861667D01*
X23671667Y-10852143D01*
X23709762Y-10852143D01*
X23728809Y-10861667D01*
X23738333Y-10880714D01*
X23738333Y-10899762D01*
X23643095Y-10918810D01*
X23814524Y-10975952D02*
X23833571Y-10985476D01*
X23871667Y-10985476D01*
X23890714Y-10975952D01*
X23900238Y-10956905D01*
X23900238Y-10947381D01*
X23890714Y-10928333D01*
X23871667Y-10918810D01*
X23843095Y-10918810D01*
X23824048Y-10909286D01*
X23814524Y-10890238D01*
X23814524Y-10880714D01*
X23824048Y-10861667D01*
X23843095Y-10852143D01*
X23871667Y-10852143D01*
X23890714Y-10861667D01*
X23966905Y-11061667D02*
X23976428Y-11052143D01*
X23995476Y-11023571D01*
X24005000Y-11004524D01*
X24014524Y-10975952D01*
X24024048Y-10928333D01*
X24024048Y-10890238D01*
X24014524Y-10842619D01*
X24005000Y-10814048D01*
X23995476Y-10795000D01*
X23976428Y-10766429D01*
X23966905Y-10756905D01*
D13*
X19195000Y-11159000D02*
G75*
G03*
X19195000Y-11159000I-35000J0D01*
G01*
D11*
X19490714Y-11049476D02*
X19509762Y-11049476D01*
X19528810Y-11059000D01*
X19538333Y-11068524D01*
X19547857Y-11087571D01*
X19557381Y-11125667D01*
X19557381Y-11173286D01*
X19547857Y-11211381D01*
X19538333Y-11230428D01*
X19528810Y-11239952D01*
X19509762Y-11249476D01*
X19490714Y-11249476D01*
X19471667Y-11239952D01*
X19462143Y-11230428D01*
X19452619Y-11211381D01*
X19443095Y-11173286D01*
X19443095Y-11125667D01*
X19452619Y-11087571D01*
X19462143Y-11068524D01*
X19471667Y-11059000D01*
X19490714Y-11049476D01*
X19643095Y-11230428D02*
X19652619Y-11239952D01*
X19643095Y-11249476D01*
X19633571Y-11239952D01*
X19643095Y-11230428D01*
X19643095Y-11249476D01*
X19719286Y-11049476D02*
X19852619Y-11049476D01*
X19766905Y-11249476D01*
X19966905Y-11049476D02*
X19985952Y-11049476D01*
X20005000Y-11059000D01*
X20014524Y-11068524D01*
X20024048Y-11087571D01*
X20033571Y-11125667D01*
X20033571Y-11173286D01*
X20024048Y-11211381D01*
X20014524Y-11230428D01*
X20005000Y-11239952D01*
X19985952Y-11249476D01*
X19966905Y-11249476D01*
X19947857Y-11239952D01*
X19938333Y-11230428D01*
X19928810Y-11211381D01*
X19919286Y-11173286D01*
X19919286Y-11125667D01*
X19928810Y-11087571D01*
X19938333Y-11068524D01*
X19947857Y-11059000D01*
X19966905Y-11049476D01*
X20157381Y-11049476D02*
X20176429Y-11049476D01*
X20195476Y-11059000D01*
X20205000Y-11068524D01*
X20214524Y-11087571D01*
X20224048Y-11125667D01*
X20224048Y-11173286D01*
X20214524Y-11211381D01*
X20205000Y-11230428D01*
X20195476Y-11239952D01*
X20176429Y-11249476D01*
X20157381Y-11249476D01*
X20138333Y-11239952D01*
X20128810Y-11230428D01*
X20119286Y-11211381D01*
X20109762Y-11173286D01*
X20109762Y-11125667D01*
X20119286Y-11087571D01*
X20128810Y-11068524D01*
X20138333Y-11059000D01*
X20157381Y-11049476D01*
X20309762Y-11249476D02*
X20309762Y-11116143D01*
X20309762Y-11135190D02*
X20319286Y-11125667D01*
X20338333Y-11116143D01*
X20366905Y-11116143D01*
X20385952Y-11125667D01*
X20395476Y-11144714D01*
X20395476Y-11249476D01*
X20395476Y-11144714D02*
X20405000Y-11125667D01*
X20424048Y-11116143D01*
X20452619Y-11116143D01*
X20471667Y-11125667D01*
X20481190Y-11144714D01*
X20481190Y-11249476D01*
X20576429Y-11249476D02*
X20576429Y-11116143D01*
X20576429Y-11135190D02*
X20585952Y-11125667D01*
X20605000Y-11116143D01*
X20633571Y-11116143D01*
X20652619Y-11125667D01*
X20662143Y-11144714D01*
X20662143Y-11249476D01*
X20662143Y-11144714D02*
X20671667Y-11125667D01*
X20690714Y-11116143D01*
X20719286Y-11116143D01*
X20738333Y-11125667D01*
X20747857Y-11144714D01*
X20747857Y-11249476D01*
X21138333Y-11039952D02*
X20966905Y-11297095D01*
X21395476Y-11049476D02*
X21414524Y-11049476D01*
X21433571Y-11059000D01*
X21443095Y-11068524D01*
X21452619Y-11087571D01*
X21462143Y-11125667D01*
X21462143Y-11173286D01*
X21452619Y-11211381D01*
X21443095Y-11230428D01*
X21433571Y-11239952D01*
X21414524Y-11249476D01*
X21395476Y-11249476D01*
X21376429Y-11239952D01*
X21366905Y-11230428D01*
X21357381Y-11211381D01*
X21347857Y-11173286D01*
X21347857Y-11125667D01*
X21357381Y-11087571D01*
X21366905Y-11068524D01*
X21376429Y-11059000D01*
X21395476Y-11049476D01*
X21547857Y-11230428D02*
X21557381Y-11239952D01*
X21547857Y-11249476D01*
X21538333Y-11239952D01*
X21547857Y-11230428D01*
X21547857Y-11249476D01*
X21681190Y-11049476D02*
X21700238Y-11049476D01*
X21719286Y-11059000D01*
X21728810Y-11068524D01*
X21738333Y-11087571D01*
X21747857Y-11125667D01*
X21747857Y-11173286D01*
X21738333Y-11211381D01*
X21728810Y-11230428D01*
X21719286Y-11239952D01*
X21700238Y-11249476D01*
X21681190Y-11249476D01*
X21662143Y-11239952D01*
X21652619Y-11230428D01*
X21643095Y-11211381D01*
X21633571Y-11173286D01*
X21633571Y-11125667D01*
X21643095Y-11087571D01*
X21652619Y-11068524D01*
X21662143Y-11059000D01*
X21681190Y-11049476D01*
X21824048Y-11068524D02*
X21833571Y-11059000D01*
X21852619Y-11049476D01*
X21900238Y-11049476D01*
X21919286Y-11059000D01*
X21928810Y-11068524D01*
X21938333Y-11087571D01*
X21938333Y-11106619D01*
X21928810Y-11135190D01*
X21814524Y-11249476D01*
X21938333Y-11249476D01*
X22005000Y-11049476D02*
X22138333Y-11049476D01*
X22052619Y-11249476D01*
X22300238Y-11049476D02*
X22262143Y-11049476D01*
X22243095Y-11059000D01*
X22233571Y-11068524D01*
X22214524Y-11097095D01*
X22205000Y-11135190D01*
X22205000Y-11211381D01*
X22214524Y-11230428D01*
X22224048Y-11239952D01*
X22243095Y-11249476D01*
X22281190Y-11249476D01*
X22300238Y-11239952D01*
X22309762Y-11230428D01*
X22319286Y-11211381D01*
X22319286Y-11163762D01*
X22309762Y-11144714D01*
X22300238Y-11135190D01*
X22281190Y-11125667D01*
X22243095Y-11125667D01*
X22224048Y-11135190D01*
X22214524Y-11144714D01*
X22205000Y-11163762D01*
X22395476Y-11049476D02*
X22395476Y-11087571D01*
X22471667Y-11049476D02*
X22471667Y-11087571D01*
X22766905Y-11325667D02*
X22757381Y-11316143D01*
X22738333Y-11287571D01*
X22728809Y-11268524D01*
X22719286Y-11239952D01*
X22709762Y-11192333D01*
X22709762Y-11154238D01*
X22719286Y-11106619D01*
X22728809Y-11078048D01*
X22738333Y-11059000D01*
X22757381Y-11030429D01*
X22766905Y-11020905D01*
X22871667Y-11135190D02*
X22852619Y-11125667D01*
X22843095Y-11116143D01*
X22833571Y-11097095D01*
X22833571Y-11087571D01*
X22843095Y-11068524D01*
X22852619Y-11059000D01*
X22871667Y-11049476D01*
X22909762Y-11049476D01*
X22928809Y-11059000D01*
X22938333Y-11068524D01*
X22947857Y-11087571D01*
X22947857Y-11097095D01*
X22938333Y-11116143D01*
X22928809Y-11125667D01*
X22909762Y-11135190D01*
X22871667Y-11135190D01*
X22852619Y-11144714D01*
X22843095Y-11154238D01*
X22833571Y-11173286D01*
X22833571Y-11211381D01*
X22843095Y-11230428D01*
X22852619Y-11239952D01*
X22871667Y-11249476D01*
X22909762Y-11249476D01*
X22928809Y-11239952D01*
X22938333Y-11230428D01*
X22947857Y-11211381D01*
X22947857Y-11173286D01*
X22938333Y-11154238D01*
X22928809Y-11144714D01*
X22909762Y-11135190D01*
X23185952Y-11249476D02*
X23185952Y-11049476D01*
X23271667Y-11249476D02*
X23271667Y-11144714D01*
X23262143Y-11125667D01*
X23243095Y-11116143D01*
X23214524Y-11116143D01*
X23195476Y-11125667D01*
X23185952Y-11135190D01*
X23395476Y-11249476D02*
X23376428Y-11239952D01*
X23366905Y-11230428D01*
X23357381Y-11211381D01*
X23357381Y-11154238D01*
X23366905Y-11135190D01*
X23376428Y-11125667D01*
X23395476Y-11116143D01*
X23424048Y-11116143D01*
X23443095Y-11125667D01*
X23452619Y-11135190D01*
X23462143Y-11154238D01*
X23462143Y-11211381D01*
X23452619Y-11230428D01*
X23443095Y-11239952D01*
X23424048Y-11249476D01*
X23395476Y-11249476D01*
X23576428Y-11249476D02*
X23557381Y-11239952D01*
X23547857Y-11220905D01*
X23547857Y-11049476D01*
X23728809Y-11239952D02*
X23709762Y-11249476D01*
X23671667Y-11249476D01*
X23652619Y-11239952D01*
X23643095Y-11220905D01*
X23643095Y-11144714D01*
X23652619Y-11125667D01*
X23671667Y-11116143D01*
X23709762Y-11116143D01*
X23728809Y-11125667D01*
X23738333Y-11144714D01*
X23738333Y-11163762D01*
X23643095Y-11182810D01*
X23814524Y-11239952D02*
X23833571Y-11249476D01*
X23871667Y-11249476D01*
X23890714Y-11239952D01*
X23900238Y-11220905D01*
X23900238Y-11211381D01*
X23890714Y-11192333D01*
X23871667Y-11182810D01*
X23843095Y-11182810D01*
X23824048Y-11173286D01*
X23814524Y-11154238D01*
X23814524Y-11144714D01*
X23824048Y-11125667D01*
X23843095Y-11116143D01*
X23871667Y-11116143D01*
X23890714Y-11125667D01*
X23966905Y-11325667D02*
X23976428Y-11316143D01*
X23995476Y-11287571D01*
X24005000Y-11268524D01*
X24014524Y-11239952D01*
X24024048Y-11192333D01*
X24024048Y-11154238D01*
X24014524Y-11106619D01*
X24005000Y-11078048D01*
X23995476Y-11059000D01*
X23976428Y-11030429D01*
X23966905Y-11020905D01*
D14*
X19157500Y-11385500D02*
X19157500Y-11460500D01*
X19120000Y-11423000D02*
X19195000Y-11423000D01*
D11*
X19490714Y-11313476D02*
X19509762Y-11313476D01*
X19528810Y-11323000D01*
X19538333Y-11332524D01*
X19547857Y-11351571D01*
X19557381Y-11389667D01*
X19557381Y-11437286D01*
X19547857Y-11475381D01*
X19538333Y-11494428D01*
X19528810Y-11503952D01*
X19509762Y-11513476D01*
X19490714Y-11513476D01*
X19471667Y-11503952D01*
X19462143Y-11494428D01*
X19452619Y-11475381D01*
X19443095Y-11437286D01*
X19443095Y-11389667D01*
X19452619Y-11351571D01*
X19462143Y-11332524D01*
X19471667Y-11323000D01*
X19490714Y-11313476D01*
X19643095Y-11494428D02*
X19652619Y-11503952D01*
X19643095Y-11513476D01*
X19633571Y-11503952D01*
X19643095Y-11494428D01*
X19643095Y-11513476D01*
X19719286Y-11313476D02*
X19852619Y-11313476D01*
X19766905Y-11513476D01*
X20024048Y-11313476D02*
X19928810Y-11313476D01*
X19919286Y-11408714D01*
X19928810Y-11399190D01*
X19947857Y-11389667D01*
X19995476Y-11389667D01*
X20014524Y-11399190D01*
X20024048Y-11408714D01*
X20033571Y-11427762D01*
X20033571Y-11475381D01*
X20024048Y-11494428D01*
X20014524Y-11503952D01*
X19995476Y-11513476D01*
X19947857Y-11513476D01*
X19928810Y-11503952D01*
X19919286Y-11494428D01*
X20157381Y-11313476D02*
X20176429Y-11313476D01*
X20195476Y-11323000D01*
X20205000Y-11332524D01*
X20214524Y-11351571D01*
X20224048Y-11389667D01*
X20224048Y-11437286D01*
X20214524Y-11475381D01*
X20205000Y-11494428D01*
X20195476Y-11503952D01*
X20176429Y-11513476D01*
X20157381Y-11513476D01*
X20138333Y-11503952D01*
X20128810Y-11494428D01*
X20119286Y-11475381D01*
X20109762Y-11437286D01*
X20109762Y-11389667D01*
X20119286Y-11351571D01*
X20128810Y-11332524D01*
X20138333Y-11323000D01*
X20157381Y-11313476D01*
X20309762Y-11513476D02*
X20309762Y-11380143D01*
X20309762Y-11399190D02*
X20319286Y-11389667D01*
X20338333Y-11380143D01*
X20366905Y-11380143D01*
X20385952Y-11389667D01*
X20395476Y-11408714D01*
X20395476Y-11513476D01*
X20395476Y-11408714D02*
X20405000Y-11389667D01*
X20424048Y-11380143D01*
X20452619Y-11380143D01*
X20471667Y-11389667D01*
X20481190Y-11408714D01*
X20481190Y-11513476D01*
X20576429Y-11513476D02*
X20576429Y-11380143D01*
X20576429Y-11399190D02*
X20585952Y-11389667D01*
X20605000Y-11380143D01*
X20633571Y-11380143D01*
X20652619Y-11389667D01*
X20662143Y-11408714D01*
X20662143Y-11513476D01*
X20662143Y-11408714D02*
X20671667Y-11389667D01*
X20690714Y-11380143D01*
X20719286Y-11380143D01*
X20738333Y-11389667D01*
X20747857Y-11408714D01*
X20747857Y-11513476D01*
X21138333Y-11303952D02*
X20966905Y-11561095D01*
X21395476Y-11313476D02*
X21414524Y-11313476D01*
X21433571Y-11323000D01*
X21443095Y-11332524D01*
X21452619Y-11351571D01*
X21462143Y-11389667D01*
X21462143Y-11437286D01*
X21452619Y-11475381D01*
X21443095Y-11494428D01*
X21433571Y-11503952D01*
X21414524Y-11513476D01*
X21395476Y-11513476D01*
X21376429Y-11503952D01*
X21366905Y-11494428D01*
X21357381Y-11475381D01*
X21347857Y-11437286D01*
X21347857Y-11389667D01*
X21357381Y-11351571D01*
X21366905Y-11332524D01*
X21376429Y-11323000D01*
X21395476Y-11313476D01*
X21547857Y-11494428D02*
X21557381Y-11503952D01*
X21547857Y-11513476D01*
X21538333Y-11503952D01*
X21547857Y-11494428D01*
X21547857Y-11513476D01*
X21681190Y-11313476D02*
X21700238Y-11313476D01*
X21719286Y-11323000D01*
X21728810Y-11332524D01*
X21738333Y-11351571D01*
X21747857Y-11389667D01*
X21747857Y-11437286D01*
X21738333Y-11475381D01*
X21728810Y-11494428D01*
X21719286Y-11503952D01*
X21700238Y-11513476D01*
X21681190Y-11513476D01*
X21662143Y-11503952D01*
X21652619Y-11494428D01*
X21643095Y-11475381D01*
X21633571Y-11437286D01*
X21633571Y-11389667D01*
X21643095Y-11351571D01*
X21652619Y-11332524D01*
X21662143Y-11323000D01*
X21681190Y-11313476D01*
X21824048Y-11332524D02*
X21833571Y-11323000D01*
X21852619Y-11313476D01*
X21900238Y-11313476D01*
X21919286Y-11323000D01*
X21928810Y-11332524D01*
X21938333Y-11351571D01*
X21938333Y-11370619D01*
X21928810Y-11399190D01*
X21814524Y-11513476D01*
X21938333Y-11513476D01*
X22033571Y-11513476D02*
X22071667Y-11513476D01*
X22090714Y-11503952D01*
X22100238Y-11494428D01*
X22119286Y-11465857D01*
X22128810Y-11427762D01*
X22128810Y-11351571D01*
X22119286Y-11332524D01*
X22109762Y-11323000D01*
X22090714Y-11313476D01*
X22052619Y-11313476D01*
X22033571Y-11323000D01*
X22024048Y-11332524D01*
X22014524Y-11351571D01*
X22014524Y-11399190D01*
X22024048Y-11418238D01*
X22033571Y-11427762D01*
X22052619Y-11437286D01*
X22090714Y-11437286D01*
X22109762Y-11427762D01*
X22119286Y-11418238D01*
X22128810Y-11399190D01*
X22309762Y-11313476D02*
X22214524Y-11313476D01*
X22205000Y-11408714D01*
X22214524Y-11399190D01*
X22233571Y-11389667D01*
X22281190Y-11389667D01*
X22300238Y-11399190D01*
X22309762Y-11408714D01*
X22319286Y-11427762D01*
X22319286Y-11475381D01*
X22309762Y-11494428D01*
X22300238Y-11503952D01*
X22281190Y-11513476D01*
X22233571Y-11513476D01*
X22214524Y-11503952D01*
X22205000Y-11494428D01*
X22395476Y-11313476D02*
X22395476Y-11351571D01*
X22471667Y-11313476D02*
X22471667Y-11351571D01*
X22766905Y-11589667D02*
X22757381Y-11580143D01*
X22738333Y-11551571D01*
X22728809Y-11532524D01*
X22719286Y-11503952D01*
X22709762Y-11456333D01*
X22709762Y-11418238D01*
X22719286Y-11370619D01*
X22728809Y-11342048D01*
X22738333Y-11323000D01*
X22757381Y-11294428D01*
X22766905Y-11284905D01*
X22824048Y-11313476D02*
X22947857Y-11313476D01*
X22881190Y-11389667D01*
X22909762Y-11389667D01*
X22928809Y-11399190D01*
X22938333Y-11408714D01*
X22947857Y-11427762D01*
X22947857Y-11475381D01*
X22938333Y-11494428D01*
X22928809Y-11503952D01*
X22909762Y-11513476D01*
X22852619Y-11513476D01*
X22833571Y-11503952D01*
X22824048Y-11494428D01*
X23185952Y-11513476D02*
X23185952Y-11313476D01*
X23271667Y-11513476D02*
X23271667Y-11408714D01*
X23262143Y-11389667D01*
X23243095Y-11380143D01*
X23214524Y-11380143D01*
X23195476Y-11389667D01*
X23185952Y-11399190D01*
X23395476Y-11513476D02*
X23376428Y-11503952D01*
X23366905Y-11494428D01*
X23357381Y-11475381D01*
X23357381Y-11418238D01*
X23366905Y-11399190D01*
X23376428Y-11389667D01*
X23395476Y-11380143D01*
X23424048Y-11380143D01*
X23443095Y-11389667D01*
X23452619Y-11399190D01*
X23462143Y-11418238D01*
X23462143Y-11475381D01*
X23452619Y-11494428D01*
X23443095Y-11503952D01*
X23424048Y-11513476D01*
X23395476Y-11513476D01*
X23576428Y-11513476D02*
X23557381Y-11503952D01*
X23547857Y-11484905D01*
X23547857Y-11313476D01*
X23728809Y-11503952D02*
X23709762Y-11513476D01*
X23671667Y-11513476D01*
X23652619Y-11503952D01*
X23643095Y-11484905D01*
X23643095Y-11408714D01*
X23652619Y-11389667D01*
X23671667Y-11380143D01*
X23709762Y-11380143D01*
X23728809Y-11389667D01*
X23738333Y-11408714D01*
X23738333Y-11427762D01*
X23643095Y-11446809D01*
X23814524Y-11503952D02*
X23833571Y-11513476D01*
X23871667Y-11513476D01*
X23890714Y-11503952D01*
X23900238Y-11484905D01*
X23900238Y-11475381D01*
X23890714Y-11456333D01*
X23871667Y-11446809D01*
X23843095Y-11446809D01*
X23824048Y-11437286D01*
X23814524Y-11418238D01*
X23814524Y-11408714D01*
X23824048Y-11389667D01*
X23843095Y-11380143D01*
X23871667Y-11380143D01*
X23890714Y-11389667D01*
X23966905Y-11589667D02*
X23976428Y-11580143D01*
X23995476Y-11551571D01*
X24005000Y-11532524D01*
X24014524Y-11503952D01*
X24024048Y-11456333D01*
X24024048Y-11418238D01*
X24014524Y-11370619D01*
X24005000Y-11342048D01*
X23995476Y-11323000D01*
X23976428Y-11294428D01*
X23966905Y-11284905D01*
D10*
X19180356Y-11722356D02*
X19180356Y-11651644D01*
X19109644Y-11651644D01*
X19109644Y-11722356D01*
X19180356Y-11722356D01*
D11*
X19557381Y-11777476D02*
X19443095Y-11777476D01*
X19500238Y-11777476D02*
X19500238Y-11577476D01*
X19481190Y-11606048D01*
X19462143Y-11625095D01*
X19443095Y-11634619D01*
X19643095Y-11758428D02*
X19652619Y-11767952D01*
X19643095Y-11777476D01*
X19633571Y-11767952D01*
X19643095Y-11758428D01*
X19643095Y-11777476D01*
X19776429Y-11577476D02*
X19795476Y-11577476D01*
X19814524Y-11587000D01*
X19824048Y-11596524D01*
X19833571Y-11615571D01*
X19843095Y-11653667D01*
X19843095Y-11701286D01*
X19833571Y-11739381D01*
X19824048Y-11758428D01*
X19814524Y-11767952D01*
X19795476Y-11777476D01*
X19776429Y-11777476D01*
X19757381Y-11767952D01*
X19747857Y-11758428D01*
X19738333Y-11739381D01*
X19728810Y-11701286D01*
X19728810Y-11653667D01*
X19738333Y-11615571D01*
X19747857Y-11596524D01*
X19757381Y-11587000D01*
X19776429Y-11577476D01*
X19966905Y-11577476D02*
X19985952Y-11577476D01*
X20005000Y-11587000D01*
X20014524Y-11596524D01*
X20024048Y-11615571D01*
X20033571Y-11653667D01*
X20033571Y-11701286D01*
X20024048Y-11739381D01*
X20014524Y-11758428D01*
X20005000Y-11767952D01*
X19985952Y-11777476D01*
X19966905Y-11777476D01*
X19947857Y-11767952D01*
X19938333Y-11758428D01*
X19928810Y-11739381D01*
X19919286Y-11701286D01*
X19919286Y-11653667D01*
X19928810Y-11615571D01*
X19938333Y-11596524D01*
X19947857Y-11587000D01*
X19966905Y-11577476D01*
X20157381Y-11577476D02*
X20176429Y-11577476D01*
X20195476Y-11587000D01*
X20205000Y-11596524D01*
X20214524Y-11615571D01*
X20224048Y-11653667D01*
X20224048Y-11701286D01*
X20214524Y-11739381D01*
X20205000Y-11758428D01*
X20195476Y-11767952D01*
X20176429Y-11777476D01*
X20157381Y-11777476D01*
X20138333Y-11767952D01*
X20128810Y-11758428D01*
X20119286Y-11739381D01*
X20109762Y-11701286D01*
X20109762Y-11653667D01*
X20119286Y-11615571D01*
X20128810Y-11596524D01*
X20138333Y-11587000D01*
X20157381Y-11577476D01*
X20309762Y-11777476D02*
X20309762Y-11644143D01*
X20309762Y-11663190D02*
X20319286Y-11653667D01*
X20338333Y-11644143D01*
X20366905Y-11644143D01*
X20385952Y-11653667D01*
X20395476Y-11672714D01*
X20395476Y-11777476D01*
X20395476Y-11672714D02*
X20405000Y-11653667D01*
X20424048Y-11644143D01*
X20452619Y-11644143D01*
X20471667Y-11653667D01*
X20481190Y-11672714D01*
X20481190Y-11777476D01*
X20576429Y-11777476D02*
X20576429Y-11644143D01*
X20576429Y-11663190D02*
X20585952Y-11653667D01*
X20605000Y-11644143D01*
X20633571Y-11644143D01*
X20652619Y-11653667D01*
X20662143Y-11672714D01*
X20662143Y-11777476D01*
X20662143Y-11672714D02*
X20671667Y-11653667D01*
X20690714Y-11644143D01*
X20719286Y-11644143D01*
X20738333Y-11653667D01*
X20747857Y-11672714D01*
X20747857Y-11777476D01*
X21138333Y-11567952D02*
X20966905Y-11825095D01*
X21395476Y-11577476D02*
X21414524Y-11577476D01*
X21433571Y-11587000D01*
X21443095Y-11596524D01*
X21452619Y-11615571D01*
X21462143Y-11653667D01*
X21462143Y-11701286D01*
X21452619Y-11739381D01*
X21443095Y-11758428D01*
X21433571Y-11767952D01*
X21414524Y-11777476D01*
X21395476Y-11777476D01*
X21376429Y-11767952D01*
X21366905Y-11758428D01*
X21357381Y-11739381D01*
X21347857Y-11701286D01*
X21347857Y-11653667D01*
X21357381Y-11615571D01*
X21366905Y-11596524D01*
X21376429Y-11587000D01*
X21395476Y-11577476D01*
X21547857Y-11758428D02*
X21557381Y-11767952D01*
X21547857Y-11777476D01*
X21538333Y-11767952D01*
X21547857Y-11758428D01*
X21547857Y-11777476D01*
X21681190Y-11577476D02*
X21700238Y-11577476D01*
X21719286Y-11587000D01*
X21728810Y-11596524D01*
X21738333Y-11615571D01*
X21747857Y-11653667D01*
X21747857Y-11701286D01*
X21738333Y-11739381D01*
X21728810Y-11758428D01*
X21719286Y-11767952D01*
X21700238Y-11777476D01*
X21681190Y-11777476D01*
X21662143Y-11767952D01*
X21652619Y-11758428D01*
X21643095Y-11739381D01*
X21633571Y-11701286D01*
X21633571Y-11653667D01*
X21643095Y-11615571D01*
X21652619Y-11596524D01*
X21662143Y-11587000D01*
X21681190Y-11577476D01*
X21814524Y-11577476D02*
X21938333Y-11577476D01*
X21871667Y-11653667D01*
X21900238Y-11653667D01*
X21919286Y-11663190D01*
X21928810Y-11672714D01*
X21938333Y-11691762D01*
X21938333Y-11739381D01*
X21928810Y-11758428D01*
X21919286Y-11767952D01*
X21900238Y-11777476D01*
X21843095Y-11777476D01*
X21824048Y-11767952D01*
X21814524Y-11758428D01*
X22033571Y-11777476D02*
X22071667Y-11777476D01*
X22090714Y-11767952D01*
X22100238Y-11758428D01*
X22119286Y-11729857D01*
X22128810Y-11691762D01*
X22128810Y-11615571D01*
X22119286Y-11596524D01*
X22109762Y-11587000D01*
X22090714Y-11577476D01*
X22052619Y-11577476D01*
X22033571Y-11587000D01*
X22024048Y-11596524D01*
X22014524Y-11615571D01*
X22014524Y-11663190D01*
X22024048Y-11682238D01*
X22033571Y-11691762D01*
X22052619Y-11701286D01*
X22090714Y-11701286D01*
X22109762Y-11691762D01*
X22119286Y-11682238D01*
X22128810Y-11663190D01*
X22300238Y-11644143D02*
X22300238Y-11777476D01*
X22252619Y-11567952D02*
X22205000Y-11710809D01*
X22328810Y-11710809D01*
X22395476Y-11577476D02*
X22395476Y-11615571D01*
X22471667Y-11577476D02*
X22471667Y-11615571D01*
X22766905Y-11853667D02*
X22757381Y-11844143D01*
X22738333Y-11815571D01*
X22728809Y-11796524D01*
X22719286Y-11767952D01*
X22709762Y-11720333D01*
X22709762Y-11682238D01*
X22719286Y-11634619D01*
X22728809Y-11606048D01*
X22738333Y-11587000D01*
X22757381Y-11558428D01*
X22766905Y-11548905D01*
X22833571Y-11596524D02*
X22843095Y-11587000D01*
X22862143Y-11577476D01*
X22909762Y-11577476D01*
X22928809Y-11587000D01*
X22938333Y-11596524D01*
X22947857Y-11615571D01*
X22947857Y-11634619D01*
X22938333Y-11663190D01*
X22824048Y-11777476D01*
X22947857Y-11777476D01*
X23119286Y-11644143D02*
X23119286Y-11777476D01*
X23071667Y-11567952D02*
X23024048Y-11710809D01*
X23147857Y-11710809D01*
X23376428Y-11777476D02*
X23376428Y-11577476D01*
X23462143Y-11777476D02*
X23462143Y-11672714D01*
X23452619Y-11653667D01*
X23433571Y-11644143D01*
X23405000Y-11644143D01*
X23385952Y-11653667D01*
X23376428Y-11663190D01*
X23585952Y-11777476D02*
X23566905Y-11767952D01*
X23557381Y-11758428D01*
X23547857Y-11739381D01*
X23547857Y-11682238D01*
X23557381Y-11663190D01*
X23566905Y-11653667D01*
X23585952Y-11644143D01*
X23614524Y-11644143D01*
X23633571Y-11653667D01*
X23643095Y-11663190D01*
X23652619Y-11682238D01*
X23652619Y-11739381D01*
X23643095Y-11758428D01*
X23633571Y-11767952D01*
X23614524Y-11777476D01*
X23585952Y-11777476D01*
X23766905Y-11777476D02*
X23747857Y-11767952D01*
X23738333Y-11748905D01*
X23738333Y-11577476D01*
X23919286Y-11767952D02*
X23900238Y-11777476D01*
X23862143Y-11777476D01*
X23843095Y-11767952D01*
X23833571Y-11748905D01*
X23833571Y-11672714D01*
X23843095Y-11653667D01*
X23862143Y-11644143D01*
X23900238Y-11644143D01*
X23919286Y-11653667D01*
X23928809Y-11672714D01*
X23928809Y-11691762D01*
X23833571Y-11710809D01*
X24005000Y-11767952D02*
X24024048Y-11777476D01*
X24062143Y-11777476D01*
X24081190Y-11767952D01*
X24090714Y-11748905D01*
X24090714Y-11739381D01*
X24081190Y-11720333D01*
X24062143Y-11710809D01*
X24033571Y-11710809D01*
X24014524Y-11701286D01*
X24005000Y-11682238D01*
X24005000Y-11672714D01*
X24014524Y-11653667D01*
X24033571Y-11644143D01*
X24062143Y-11644143D01*
X24081190Y-11653667D01*
X24157381Y-11853667D02*
X24166905Y-11844143D01*
X24185952Y-11815571D01*
X24195476Y-11796524D01*
X24205000Y-11767952D01*
X24214524Y-11720333D01*
X24214524Y-11682238D01*
X24205000Y-11634619D01*
X24195476Y-11606048D01*
X24185952Y-11587000D01*
X24166905Y-11558428D01*
X24157381Y-11548905D01*
M02*
