%TF.GenerationSoftware,KiCad,Pcbnew,(6.0.9)*%
%TF.CreationDate,2023-04-16T11:33:18+02:00*%
%TF.ProjectId,PCB_zavrsni,5043425f-7a61-4767-9273-6e692e6b6963,rev?*%
%TF.SameCoordinates,Original*%
%TF.FileFunction,Drillmap*%
%TF.FilePolarity,Positive*%
%FSLAX45Y45*%
G04 Gerber Fmt 4.5, Leading zero omitted, Abs format (unit mm)*
G04 Created by KiCad (PCBNEW (6.0.9)) date 2023-04-16 11:33:18*
%MOMM*%
%LPD*%
G01*
G04 APERTURE LIST*
%ADD10C,0.100000*%
%ADD11C,0.200000*%
G04 APERTURE END LIST*
D10*
X19200000Y-4250000D02*
X22200000Y-4250000D01*
X22200000Y-4250000D02*
X22200000Y-10250000D01*
X22200000Y-10250000D02*
X19200000Y-10250000D01*
X19200000Y-10250000D02*
X19200000Y-4250000D01*
D11*
X19452619Y-10565476D02*
X19452619Y-10365476D01*
X19500238Y-10365476D01*
X19528810Y-10375000D01*
X19547857Y-10394048D01*
X19557381Y-10413095D01*
X19566905Y-10451190D01*
X19566905Y-10479762D01*
X19557381Y-10517857D01*
X19547857Y-10536905D01*
X19528810Y-10555952D01*
X19500238Y-10565476D01*
X19452619Y-10565476D01*
X19652619Y-10565476D02*
X19652619Y-10432143D01*
X19652619Y-10470238D02*
X19662143Y-10451190D01*
X19671667Y-10441667D01*
X19690714Y-10432143D01*
X19709762Y-10432143D01*
X19776429Y-10565476D02*
X19776429Y-10432143D01*
X19776429Y-10365476D02*
X19766905Y-10375000D01*
X19776429Y-10384524D01*
X19785952Y-10375000D01*
X19776429Y-10365476D01*
X19776429Y-10384524D01*
X19900238Y-10565476D02*
X19881190Y-10555952D01*
X19871667Y-10536905D01*
X19871667Y-10365476D01*
X20005000Y-10565476D02*
X19985952Y-10555952D01*
X19976429Y-10536905D01*
X19976429Y-10365476D01*
X20233571Y-10565476D02*
X20233571Y-10365476D01*
X20300238Y-10508333D01*
X20366905Y-10365476D01*
X20366905Y-10565476D01*
X20547857Y-10565476D02*
X20547857Y-10460714D01*
X20538333Y-10441667D01*
X20519286Y-10432143D01*
X20481190Y-10432143D01*
X20462143Y-10441667D01*
X20547857Y-10555952D02*
X20528810Y-10565476D01*
X20481190Y-10565476D01*
X20462143Y-10555952D01*
X20452619Y-10536905D01*
X20452619Y-10517857D01*
X20462143Y-10498810D01*
X20481190Y-10489286D01*
X20528810Y-10489286D01*
X20547857Y-10479762D01*
X20643095Y-10432143D02*
X20643095Y-10632143D01*
X20643095Y-10441667D02*
X20662143Y-10432143D01*
X20700238Y-10432143D01*
X20719286Y-10441667D01*
X20728810Y-10451190D01*
X20738333Y-10470238D01*
X20738333Y-10527381D01*
X20728810Y-10546429D01*
X20719286Y-10555952D01*
X20700238Y-10565476D01*
X20662143Y-10565476D01*
X20643095Y-10555952D01*
X20824048Y-10546429D02*
X20833571Y-10555952D01*
X20824048Y-10565476D01*
X20814524Y-10555952D01*
X20824048Y-10546429D01*
X20824048Y-10565476D01*
X20824048Y-10441667D02*
X20833571Y-10451190D01*
X20824048Y-10460714D01*
X20814524Y-10451190D01*
X20824048Y-10441667D01*
X20824048Y-10460714D01*
M02*
