%TF.GenerationSoftware,KiCad,Pcbnew,(6.0.9)*%
%TF.CreationDate,2023-04-16T11:33:15+02:00*%
%TF.ProjectId,PCB_zavrsni,5043425f-7a61-4767-9273-6e692e6b6963,rev?*%
%TF.SameCoordinates,Original*%
%TF.FileFunction,Legend,Bot*%
%TF.FilePolarity,Positive*%
%FSLAX46Y46*%
G04 Gerber Fmt 4.6, Leading zero omitted, Abs format (unit mm)*
G04 Created by KiCad (PCBNEW (6.0.9)) date 2023-04-16 11:33:15*
%MOMM*%
%LPD*%
G01*
G04 APERTURE LIST*
%ADD10C,0.150000*%
%ADD11C,0.120000*%
G04 APERTURE END LIST*
D10*
X216757047Y-70572380D02*
X216566571Y-70572380D01*
X216471333Y-70620000D01*
X216376095Y-70715238D01*
X216328476Y-70905714D01*
X216328476Y-71239047D01*
X216376095Y-71429523D01*
X216471333Y-71524761D01*
X216566571Y-71572380D01*
X216757047Y-71572380D01*
X216852285Y-71524761D01*
X216947523Y-71429523D01*
X216995142Y-71239047D01*
X216995142Y-70905714D01*
X216947523Y-70715238D01*
X216852285Y-70620000D01*
X216757047Y-70572380D01*
X215899904Y-70572380D02*
X215899904Y-71381904D01*
X215852285Y-71477142D01*
X215804666Y-71524761D01*
X215709428Y-71572380D01*
X215518952Y-71572380D01*
X215423714Y-71524761D01*
X215376095Y-71477142D01*
X215328476Y-71381904D01*
X215328476Y-70572380D01*
X214995142Y-70572380D02*
X214423714Y-70572380D01*
X214709428Y-71572380D02*
X214709428Y-70572380D01*
X214090380Y-71191428D02*
X213328476Y-71191428D01*
X213709428Y-71572380D02*
X213709428Y-70810476D01*
X216749142Y-73588571D02*
X216606285Y-73636190D01*
X216558666Y-73683809D01*
X216511047Y-73779047D01*
X216511047Y-73921904D01*
X216558666Y-74017142D01*
X216606285Y-74064761D01*
X216701523Y-74112380D01*
X217082476Y-74112380D01*
X217082476Y-73112380D01*
X216749142Y-73112380D01*
X216653904Y-73160000D01*
X216606285Y-73207619D01*
X216558666Y-73302857D01*
X216558666Y-73398095D01*
X216606285Y-73493333D01*
X216653904Y-73540952D01*
X216749142Y-73588571D01*
X217082476Y-73588571D01*
X216130095Y-73826666D02*
X215653904Y-73826666D01*
X216225333Y-74112380D02*
X215892000Y-73112380D01*
X215558666Y-74112380D01*
X215368190Y-73112380D02*
X214796761Y-73112380D01*
X215082476Y-74112380D02*
X215082476Y-73112380D01*
X214463428Y-73731428D02*
X213701523Y-73731428D01*
X214082476Y-74112380D02*
X214082476Y-73350476D01*
X202025047Y-70572380D02*
X201834571Y-70572380D01*
X201739333Y-70620000D01*
X201644095Y-70715238D01*
X201596476Y-70905714D01*
X201596476Y-71239047D01*
X201644095Y-71429523D01*
X201739333Y-71524761D01*
X201834571Y-71572380D01*
X202025047Y-71572380D01*
X202120285Y-71524761D01*
X202215523Y-71429523D01*
X202263142Y-71239047D01*
X202263142Y-70905714D01*
X202215523Y-70715238D01*
X202120285Y-70620000D01*
X202025047Y-70572380D01*
X201167904Y-70572380D02*
X201167904Y-71381904D01*
X201120285Y-71477142D01*
X201072666Y-71524761D01*
X200977428Y-71572380D01*
X200786952Y-71572380D01*
X200691714Y-71524761D01*
X200644095Y-71477142D01*
X200596476Y-71381904D01*
X200596476Y-70572380D01*
X200263142Y-70572380D02*
X199691714Y-70572380D01*
X199977428Y-71572380D02*
X199977428Y-70572380D01*
X199358380Y-71191428D02*
X198596476Y-71191428D01*
X201763142Y-73842571D02*
X201620285Y-73890190D01*
X201572666Y-73937809D01*
X201525047Y-74033047D01*
X201525047Y-74175904D01*
X201572666Y-74271142D01*
X201620285Y-74318761D01*
X201715523Y-74366380D01*
X202096476Y-74366380D01*
X202096476Y-73366380D01*
X201763142Y-73366380D01*
X201667904Y-73414000D01*
X201620285Y-73461619D01*
X201572666Y-73556857D01*
X201572666Y-73652095D01*
X201620285Y-73747333D01*
X201667904Y-73794952D01*
X201763142Y-73842571D01*
X202096476Y-73842571D01*
X201144095Y-74080666D02*
X200667904Y-74080666D01*
X201239333Y-74366380D02*
X200906000Y-73366380D01*
X200572666Y-74366380D01*
X200382190Y-73366380D02*
X199810761Y-73366380D01*
X200096476Y-74366380D02*
X200096476Y-73366380D01*
X199477428Y-73985428D02*
X198715523Y-73985428D01*
D11*
%TO.C,R3*%
X199080000Y-50230000D02*
X199080000Y-46390000D01*
X199080000Y-46390000D02*
X200920000Y-46390000D01*
X200920000Y-46390000D02*
X200920000Y-50230000D01*
X200000000Y-51180000D02*
X200000000Y-50230000D01*
X200000000Y-45440000D02*
X200000000Y-46390000D01*
X200920000Y-50230000D02*
X199080000Y-50230000D01*
%TO.C,J4*%
X205088000Y-72370000D02*
X205088000Y-69770000D01*
X202428000Y-72370000D02*
X205088000Y-72370000D01*
X202428000Y-69770000D02*
X205088000Y-69770000D01*
X202428000Y-72370000D02*
X202428000Y-69770000D01*
X203758000Y-74970000D02*
X205088000Y-74970000D01*
X205088000Y-74970000D02*
X205088000Y-73640000D01*
%TO.C,R2*%
X209962000Y-67930000D02*
X209962000Y-71770000D01*
X209042000Y-66980000D02*
X209042000Y-67930000D01*
X208122000Y-67930000D02*
X209962000Y-67930000D01*
X209962000Y-71770000D02*
X208122000Y-71770000D01*
X209042000Y-72720000D02*
X209042000Y-71770000D01*
X208122000Y-71770000D02*
X208122000Y-67930000D01*
%TO.C,R1*%
X211170000Y-67930000D02*
X213010000Y-67930000D01*
X212090000Y-66980000D02*
X212090000Y-67930000D01*
X213010000Y-67930000D02*
X213010000Y-71770000D01*
X212090000Y-72720000D02*
X212090000Y-71770000D01*
X211170000Y-71770000D02*
X211170000Y-67930000D01*
X213010000Y-71770000D02*
X211170000Y-71770000D01*
%TO.C,J3*%
X217364000Y-69810000D02*
X217364000Y-71140000D01*
X220024000Y-72410000D02*
X220024000Y-75010000D01*
X220024000Y-75010000D02*
X217364000Y-75010000D01*
X218694000Y-69810000D02*
X217364000Y-69810000D01*
X217364000Y-72410000D02*
X217364000Y-75010000D01*
X220024000Y-72410000D02*
X217364000Y-72410000D01*
%TD*%
M02*
