M48
; DRILL file {KiCad (6.0.9)} date Sun Apr 16 11:33:17 2023
; FORMAT={-:-/ absolute / inch / decimal}
; #@! TF.CreationDate,2023-04-16T11:33:17+02:00
; #@! TF.GenerationSoftware,Kicad,Pcbnew,(6.0.9)
; #@! TF.FileFunction,Plated,1,2,PTH
FMAT,2
INCH
; #@! TA.AperFunction,Plated,PTH,ViaDrill
T1C0.0157
; #@! TA.AperFunction,Plated,PTH,ComponentDrill
T2C0.0276
; #@! TA.AperFunction,Plated,PTH,ComponentDrill
T3C0.0295
; #@! TA.AperFunction,Plated,PTH,ComponentDrill
T4C0.0394
%
G90
G05
T1
X7.94Y-2.39
X7.94Y-2.57
X8.12Y-2.62
X8.42Y-2.0
T2
X7.874Y-1.752
X7.874Y-2.052
X8.23Y-2.6
X8.23Y-2.9
X8.35Y-2.6
X8.35Y-2.9
X8.35Y-3.57
X8.35Y-3.87
T3
X8.6158Y-3.62
X8.6158Y-3.67
X8.6158Y-3.72
T4
X7.7067Y-1.7421
X7.7067Y-1.8421
X7.7067Y-1.9421
X7.7067Y-2.0421
X7.7067Y-2.1421
X7.7067Y-2.2421
X7.7067Y-2.3421
X7.7067Y-2.4421
X7.742Y-3.2785
X7.842Y-3.2785
X7.942Y-3.2785
X8.022Y-2.7992
X8.022Y-2.8992
X8.042Y-3.2785
X8.6067Y-1.7421
X8.6067Y-1.8421
X8.6067Y-1.9421
X8.6067Y-2.0421
X8.6067Y-2.1421
X8.6067Y-2.2421
X8.6067Y-2.3421
X8.6067Y-2.4421
X8.61Y-2.8008
X8.61Y-2.9008
T0
M30
