%TF.GenerationSoftware,KiCad,Pcbnew,(6.0.9)*%
%TF.CreationDate,2023-04-16T11:33:15+02:00*%
%TF.ProjectId,PCB_zavrsni,5043425f-7a61-4767-9273-6e692e6b6963,rev?*%
%TF.SameCoordinates,Original*%
%TF.FileFunction,Legend,Top*%
%TF.FilePolarity,Positive*%
%FSLAX46Y46*%
G04 Gerber Fmt 4.6, Leading zero omitted, Abs format (unit mm)*
G04 Created by KiCad (PCBNEW (6.0.9)) date 2023-04-16 11:33:15*
%MOMM*%
%LPD*%
G01*
G04 APERTURE LIST*
%ADD10C,0.175000*%
%ADD11C,0.150000*%
%ADD12C,0.125000*%
%ADD13C,0.120000*%
G04 APERTURE END LIST*
D10*
X196062666Y-80676000D02*
X195996000Y-80642666D01*
X195896000Y-80642666D01*
X195796000Y-80676000D01*
X195729333Y-80742666D01*
X195696000Y-80809333D01*
X195662666Y-80942666D01*
X195662666Y-81042666D01*
X195696000Y-81176000D01*
X195729333Y-81242666D01*
X195796000Y-81309333D01*
X195896000Y-81342666D01*
X195962666Y-81342666D01*
X196062666Y-81309333D01*
X196096000Y-81276000D01*
X196096000Y-81042666D01*
X195962666Y-81042666D01*
X196396000Y-81342666D02*
X196396000Y-80642666D01*
X196796000Y-81342666D01*
X196796000Y-80642666D01*
X197129333Y-81342666D02*
X197129333Y-80642666D01*
X197296000Y-80642666D01*
X197396000Y-80676000D01*
X197462666Y-80742666D01*
X197496000Y-80809333D01*
X197529333Y-80942666D01*
X197529333Y-81042666D01*
X197496000Y-81176000D01*
X197462666Y-81242666D01*
X197396000Y-81309333D01*
X197296000Y-81342666D01*
X197129333Y-81342666D01*
D11*
X203282666Y-80642666D02*
X203516000Y-81342666D01*
X203749333Y-80642666D01*
X204382666Y-81276000D02*
X204349333Y-81309333D01*
X204249333Y-81342666D01*
X204182666Y-81342666D01*
X204082666Y-81309333D01*
X204016000Y-81242666D01*
X203982666Y-81176000D01*
X203949333Y-81042666D01*
X203949333Y-80942666D01*
X203982666Y-80809333D01*
X204016000Y-80742666D01*
X204082666Y-80676000D01*
X204182666Y-80642666D01*
X204249333Y-80642666D01*
X204349333Y-80676000D01*
X204382666Y-80709333D01*
X205082666Y-81276000D02*
X205049333Y-81309333D01*
X204949333Y-81342666D01*
X204882666Y-81342666D01*
X204782666Y-81309333D01*
X204716000Y-81242666D01*
X204682666Y-81176000D01*
X204649333Y-81042666D01*
X204649333Y-80942666D01*
X204682666Y-80809333D01*
X204716000Y-80742666D01*
X204782666Y-80676000D01*
X204882666Y-80642666D01*
X204949333Y-80642666D01*
X205049333Y-80676000D01*
X205082666Y-80709333D01*
D12*
X214201523Y-93674380D02*
X214272952Y-93698190D01*
X214392000Y-93698190D01*
X214439619Y-93674380D01*
X214463428Y-93650571D01*
X214487238Y-93602952D01*
X214487238Y-93555333D01*
X214463428Y-93507714D01*
X214439619Y-93483904D01*
X214392000Y-93460095D01*
X214296761Y-93436285D01*
X214249142Y-93412476D01*
X214225333Y-93388666D01*
X214201523Y-93341047D01*
X214201523Y-93293428D01*
X214225333Y-93245809D01*
X214249142Y-93222000D01*
X214296761Y-93198190D01*
X214415809Y-93198190D01*
X214487238Y-93222000D01*
X214701523Y-93698190D02*
X214701523Y-93198190D01*
X215201523Y-93222000D02*
X215153904Y-93198190D01*
X215082476Y-93198190D01*
X215011047Y-93222000D01*
X214963428Y-93269619D01*
X214939619Y-93317238D01*
X214915809Y-93412476D01*
X214915809Y-93483904D01*
X214939619Y-93579142D01*
X214963428Y-93626761D01*
X215011047Y-93674380D01*
X215082476Y-93698190D01*
X215130095Y-93698190D01*
X215201523Y-93674380D01*
X215225333Y-93650571D01*
X215225333Y-93483904D01*
X215130095Y-93483904D01*
X215439619Y-93698190D02*
X215439619Y-93198190D01*
X215725333Y-93698190D01*
X215725333Y-93198190D01*
X215939619Y-93555333D02*
X216177714Y-93555333D01*
X215892000Y-93698190D02*
X216058666Y-93198190D01*
X216225333Y-93698190D01*
X216630095Y-93698190D02*
X216392000Y-93698190D01*
X216392000Y-93198190D01*
X215519047Y-91698000D02*
X215471428Y-91674190D01*
X215400000Y-91674190D01*
X215328571Y-91698000D01*
X215280952Y-91745619D01*
X215257142Y-91793238D01*
X215233333Y-91888476D01*
X215233333Y-91959904D01*
X215257142Y-92055142D01*
X215280952Y-92102761D01*
X215328571Y-92150380D01*
X215400000Y-92174190D01*
X215447619Y-92174190D01*
X215519047Y-92150380D01*
X215542857Y-92126571D01*
X215542857Y-91959904D01*
X215447619Y-91959904D01*
X215757142Y-92174190D02*
X215757142Y-91674190D01*
X216042857Y-92174190D01*
X216042857Y-91674190D01*
X216280952Y-92174190D02*
X216280952Y-91674190D01*
X216400000Y-91674190D01*
X216471428Y-91698000D01*
X216519047Y-91745619D01*
X216542857Y-91793238D01*
X216566666Y-91888476D01*
X216566666Y-91959904D01*
X216542857Y-92055142D01*
X216519047Y-92102761D01*
X216471428Y-92150380D01*
X216400000Y-92174190D01*
X216280952Y-92174190D01*
D11*
X198286000Y-81309333D02*
X198386000Y-81342666D01*
X198552666Y-81342666D01*
X198619333Y-81309333D01*
X198652666Y-81276000D01*
X198686000Y-81209333D01*
X198686000Y-81142666D01*
X198652666Y-81076000D01*
X198619333Y-81042666D01*
X198552666Y-81009333D01*
X198419333Y-80976000D01*
X198352666Y-80942666D01*
X198319333Y-80909333D01*
X198286000Y-80842666D01*
X198286000Y-80776000D01*
X198319333Y-80709333D01*
X198352666Y-80676000D01*
X198419333Y-80642666D01*
X198586000Y-80642666D01*
X198686000Y-80676000D01*
X198986000Y-81342666D02*
X198986000Y-80642666D01*
X199152666Y-80642666D01*
X199252666Y-80676000D01*
X199319333Y-80742666D01*
X199352666Y-80809333D01*
X199386000Y-80942666D01*
X199386000Y-81042666D01*
X199352666Y-81176000D01*
X199319333Y-81242666D01*
X199252666Y-81309333D01*
X199152666Y-81342666D01*
X198986000Y-81342666D01*
X199652666Y-81142666D02*
X199986000Y-81142666D01*
X199586000Y-81342666D02*
X199819333Y-80642666D01*
X200052666Y-81342666D01*
D12*
X215233333Y-94468190D02*
X215400000Y-94968190D01*
X215566666Y-94468190D01*
X216019047Y-94920571D02*
X215995238Y-94944380D01*
X215923809Y-94968190D01*
X215876190Y-94968190D01*
X215804761Y-94944380D01*
X215757142Y-94896761D01*
X215733333Y-94849142D01*
X215709523Y-94753904D01*
X215709523Y-94682476D01*
X215733333Y-94587238D01*
X215757142Y-94539619D01*
X215804761Y-94492000D01*
X215876190Y-94468190D01*
X215923809Y-94468190D01*
X215995238Y-94492000D01*
X216019047Y-94515809D01*
X216519047Y-94920571D02*
X216495238Y-94944380D01*
X216423809Y-94968190D01*
X216376190Y-94968190D01*
X216304761Y-94944380D01*
X216257142Y-94896761D01*
X216233333Y-94849142D01*
X216209523Y-94753904D01*
X216209523Y-94682476D01*
X216233333Y-94587238D01*
X216257142Y-94539619D01*
X216304761Y-94492000D01*
X216376190Y-94468190D01*
X216423809Y-94468190D01*
X216495238Y-94492000D01*
X216519047Y-94515809D01*
D11*
X200842666Y-81309333D02*
X200942666Y-81342666D01*
X201109333Y-81342666D01*
X201176000Y-81309333D01*
X201209333Y-81276000D01*
X201242666Y-81209333D01*
X201242666Y-81142666D01*
X201209333Y-81076000D01*
X201176000Y-81042666D01*
X201109333Y-81009333D01*
X200976000Y-80976000D01*
X200909333Y-80942666D01*
X200876000Y-80909333D01*
X200842666Y-80842666D01*
X200842666Y-80776000D01*
X200876000Y-80709333D01*
X200909333Y-80676000D01*
X200976000Y-80642666D01*
X201142666Y-80642666D01*
X201242666Y-80676000D01*
X201942666Y-81276000D02*
X201909333Y-81309333D01*
X201809333Y-81342666D01*
X201742666Y-81342666D01*
X201642666Y-81309333D01*
X201576000Y-81242666D01*
X201542666Y-81176000D01*
X201509333Y-81042666D01*
X201509333Y-80942666D01*
X201542666Y-80809333D01*
X201576000Y-80742666D01*
X201642666Y-80676000D01*
X201742666Y-80642666D01*
X201809333Y-80642666D01*
X201909333Y-80676000D01*
X201942666Y-80709333D01*
X202576000Y-81342666D02*
X202242666Y-81342666D01*
X202242666Y-80642666D01*
%TO.C,U2*%
X215043142Y-90368380D02*
X215043142Y-89368380D01*
X215281238Y-89368380D01*
X215424095Y-89416000D01*
X215519333Y-89511238D01*
X215566952Y-89606476D01*
X215614571Y-89796952D01*
X215614571Y-89939809D01*
X215566952Y-90130285D01*
X215519333Y-90225523D01*
X215424095Y-90320761D01*
X215281238Y-90368380D01*
X215043142Y-90368380D01*
X215995523Y-90320761D02*
X216138380Y-90368380D01*
X216376476Y-90368380D01*
X216471714Y-90320761D01*
X216519333Y-90273142D01*
X216566952Y-90177904D01*
X216566952Y-90082666D01*
X216519333Y-89987428D01*
X216471714Y-89939809D01*
X216376476Y-89892190D01*
X216186000Y-89844571D01*
X216090761Y-89796952D01*
X216043142Y-89749333D01*
X215995523Y-89654095D01*
X215995523Y-89558857D01*
X216043142Y-89463619D01*
X216090761Y-89416000D01*
X216186000Y-89368380D01*
X216424095Y-89368380D01*
X216566952Y-89416000D01*
X217519333Y-90368380D02*
X216947904Y-90368380D01*
X217233619Y-90368380D02*
X217233619Y-89368380D01*
X217138380Y-89511238D01*
X217043142Y-89606476D01*
X216947904Y-89654095D01*
X218090761Y-89796952D02*
X217995523Y-89749333D01*
X217947904Y-89701714D01*
X217900285Y-89606476D01*
X217900285Y-89558857D01*
X217947904Y-89463619D01*
X217995523Y-89416000D01*
X218090761Y-89368380D01*
X218281238Y-89368380D01*
X218376476Y-89416000D01*
X218424095Y-89463619D01*
X218471714Y-89558857D01*
X218471714Y-89606476D01*
X218424095Y-89701714D01*
X218376476Y-89749333D01*
X218281238Y-89796952D01*
X218090761Y-89796952D01*
X217995523Y-89844571D01*
X217947904Y-89892190D01*
X217900285Y-89987428D01*
X217900285Y-90177904D01*
X217947904Y-90273142D01*
X217995523Y-90320761D01*
X218090761Y-90368380D01*
X218281238Y-90368380D01*
X218376476Y-90320761D01*
X218424095Y-90273142D01*
X218471714Y-90177904D01*
X218471714Y-89987428D01*
X218424095Y-89892190D01*
X218376476Y-89844571D01*
X218281238Y-89796952D01*
X219233619Y-89844571D02*
X219376476Y-89892190D01*
X219424095Y-89939809D01*
X219471714Y-90035047D01*
X219471714Y-90177904D01*
X219424095Y-90273142D01*
X219376476Y-90320761D01*
X219281238Y-90368380D01*
X218900285Y-90368380D01*
X218900285Y-89368380D01*
X219233619Y-89368380D01*
X219328857Y-89416000D01*
X219376476Y-89463619D01*
X219424095Y-89558857D01*
X219424095Y-89654095D01*
X219376476Y-89749333D01*
X219328857Y-89796952D01*
X219233619Y-89844571D01*
X218900285Y-89844571D01*
X219852666Y-89463619D02*
X219900285Y-89416000D01*
X219995523Y-89368380D01*
X220233619Y-89368380D01*
X220328857Y-89416000D01*
X220376476Y-89463619D01*
X220424095Y-89558857D01*
X220424095Y-89654095D01*
X220376476Y-89796952D01*
X219805047Y-90368380D01*
X220424095Y-90368380D01*
X221043142Y-89368380D02*
X221138380Y-89368380D01*
X221233619Y-89416000D01*
X221281238Y-89463619D01*
X221328857Y-89558857D01*
X221376476Y-89749333D01*
X221376476Y-89987428D01*
X221328857Y-90177904D01*
X221281238Y-90273142D01*
X221233619Y-90320761D01*
X221138380Y-90368380D01*
X221043142Y-90368380D01*
X220947904Y-90320761D01*
X220900285Y-90273142D01*
X220852666Y-90177904D01*
X220805047Y-89987428D01*
X220805047Y-89749333D01*
X220852666Y-89558857D01*
X220900285Y-89463619D01*
X220947904Y-89416000D01*
X221043142Y-89368380D01*
D13*
%TO.C,R4*%
X211170000Y-96408000D02*
X213010000Y-96408000D01*
X212090000Y-97358000D02*
X212090000Y-96408000D01*
X213010000Y-96408000D02*
X213010000Y-92568000D01*
X211170000Y-92568000D02*
X211170000Y-96408000D01*
X213010000Y-92568000D02*
X211170000Y-92568000D01*
X212090000Y-91618000D02*
X212090000Y-92568000D01*
%TO.C,J1*%
X205596000Y-83275000D02*
X205596000Y-84605000D01*
X202996000Y-81945000D02*
X202996000Y-84605000D01*
X202996000Y-81945000D02*
X195316000Y-81945000D01*
X202996000Y-84605000D02*
X195316000Y-84605000D01*
X205596000Y-84605000D02*
X204266000Y-84605000D01*
X195316000Y-81945000D02*
X195316000Y-84605000D01*
%TO.C,U2*%
X216992000Y-91418000D02*
X216992000Y-95018000D01*
X217003522Y-95056478D02*
G75*
G03*
X221442000Y-93218000I1838478J1838478D01*
G01*
X221442001Y-93218000D02*
G75*
G03*
X217003522Y-91379522I-2600001J0D01*
G01*
%TO.C,U1*%
X194250000Y-63470000D02*
X194250000Y-38040000D01*
X196790000Y-63470000D02*
X196790000Y-70370000D01*
X194250000Y-63470000D02*
X196790000Y-63470000D01*
X220110000Y-70370000D02*
X220110000Y-38040000D01*
X217990000Y-35910000D02*
X196380000Y-35910000D01*
X196790000Y-70370000D02*
X220110000Y-70370000D01*
X196380000Y-35910000D02*
G75*
G03*
X194250000Y-38040000I2J-2130002D01*
G01*
X220110000Y-38040000D02*
G75*
G03*
X217980000Y-35910000I-2130000J0D01*
G01*
G36*
X193845000Y-44250000D02*
G01*
X193210000Y-44885000D01*
X193210000Y-43615000D01*
X193845000Y-44250000D01*
G37*
D11*
X193845000Y-44250000D02*
X193210000Y-44885000D01*
X193210000Y-43615000D01*
X193845000Y-44250000D01*
%TD*%
M02*
