%TF.GenerationSoftware,KiCad,Pcbnew,(6.0.9)*%
%TF.CreationDate,2023-04-16T11:33:14+02:00*%
%TF.ProjectId,PCB_zavrsni,5043425f-7a61-4767-9273-6e692e6b6963,rev?*%
%TF.SameCoordinates,Original*%
%TF.FileFunction,Copper,L2,Bot*%
%TF.FilePolarity,Positive*%
%FSLAX46Y46*%
G04 Gerber Fmt 4.6, Leading zero omitted, Abs format (unit mm)*
G04 Created by KiCad (PCBNEW (6.0.9)) date 2023-04-16 11:33:14*
%MOMM*%
%LPD*%
G01*
G04 APERTURE LIST*
%TA.AperFunction,ComponentPad*%
%ADD10C,1.400000*%
%TD*%
%TA.AperFunction,ComponentPad*%
%ADD11O,1.400000X1.400000*%
%TD*%
%TA.AperFunction,ComponentPad*%
%ADD12R,1.700000X1.700000*%
%TD*%
%TA.AperFunction,ComponentPad*%
%ADD13O,1.700000X1.700000*%
%TD*%
%TA.AperFunction,ComponentPad*%
%ADD14R,1.500000X1.050000*%
%TD*%
%TA.AperFunction,ComponentPad*%
%ADD15O,1.500000X1.050000*%
%TD*%
%TA.AperFunction,ComponentPad*%
%ADD16R,2.000000X2.000000*%
%TD*%
%TA.AperFunction,ComponentPad*%
%ADD17O,2.000000X1.600000*%
%TD*%
%TA.AperFunction,ViaPad*%
%ADD18C,0.800000*%
%TD*%
%TA.AperFunction,Conductor*%
%ADD19C,0.250000*%
%TD*%
G04 APERTURE END LIST*
D10*
%TO.P,R4,1*%
%TO.N,/SIGNAL*%
X212090000Y-90678000D03*
D11*
%TO.P,R4,2*%
%TO.N,/VCC*%
X212090000Y-98298000D03*
%TD*%
D12*
%TO.P,J1,1,Pin_1*%
%TO.N,/VCC*%
X204266000Y-83275000D03*
D13*
%TO.P,J1,2,Pin_2*%
%TO.N,/SCL*%
X201726000Y-83275000D03*
%TO.P,J1,3,Pin_3*%
%TO.N,/SDA*%
X199186000Y-83275000D03*
%TO.P,J1,4,Pin_4*%
%TO.N,/OUT-*%
X196646000Y-83275000D03*
%TD*%
D14*
%TO.P,U2,1,GND*%
%TO.N,/OUT-*%
X218842000Y-91948000D03*
D15*
%TO.P,U2,2,DQ*%
%TO.N,/SIGNAL*%
X218842000Y-93218000D03*
%TO.P,U2,3,VDD*%
%TO.N,/VCC*%
X218842000Y-94488000D03*
%TD*%
D16*
%TO.P,U1,1,~{RST}*%
%TO.N,/RST*%
X195750000Y-44250000D03*
D17*
%TO.P,U1,2,A0*%
%TO.N,/A0*%
X195750000Y-46790000D03*
%TO.P,U1,3,D0*%
%TO.N,/D0*%
X195750000Y-49330000D03*
%TO.P,U1,4,SCK/D5*%
%TO.N,/SIGNAL*%
X195750000Y-51870000D03*
%TO.P,U1,5,MISO/D6*%
%TO.N,/D6*%
X195750000Y-54410000D03*
%TO.P,U1,6,MOSI/D7*%
%TO.N,/D7*%
X195750000Y-56950000D03*
%TO.P,U1,7,CS/D8*%
%TO.N,/D8*%
X195750000Y-59490000D03*
%TO.P,U1,8,3V3*%
%TO.N,/VCC*%
X195750000Y-62030000D03*
%TO.P,U1,9,5V*%
%TO.N,/OUT+*%
X218610000Y-62030000D03*
%TO.P,U1,10,GND*%
%TO.N,/OUT-*%
X218610000Y-59490000D03*
%TO.P,U1,11,D4*%
%TO.N,/D4*%
X218610000Y-56950000D03*
%TO.P,U1,12,D3*%
%TO.N,/D3*%
X218610000Y-54410000D03*
%TO.P,U1,13,SDA/D2*%
%TO.N,/SDA*%
X218610000Y-51870000D03*
%TO.P,U1,14,SCL/D1*%
%TO.N,/SCL*%
X218610000Y-49330000D03*
%TO.P,U1,15,RX*%
%TO.N,/RX*%
X218610000Y-46790000D03*
%TO.P,U1,16,TX*%
%TO.N,/TX*%
X218610000Y-44250000D03*
%TD*%
D10*
%TO.P,R3,1*%
%TO.N,/RST*%
X200000000Y-44500000D03*
D11*
%TO.P,R3,2*%
%TO.N,/D0*%
X200000000Y-52120000D03*
%TD*%
D12*
%TO.P,J4,1,Pin_1*%
%TO.N,/BAT-*%
X203758000Y-73640000D03*
D13*
%TO.P,J4,2,Pin_2*%
%TO.N,/OUT-*%
X203758000Y-71100000D03*
%TD*%
D10*
%TO.P,R2,1*%
%TO.N,/BAT-*%
X209042000Y-73660000D03*
D11*
%TO.P,R2,2*%
%TO.N,/A0*%
X209042000Y-66040000D03*
%TD*%
D10*
%TO.P,R1,1*%
%TO.N,/BAT+*%
X212090000Y-73660000D03*
D11*
%TO.P,R1,2*%
%TO.N,/A0*%
X212090000Y-66040000D03*
%TD*%
D12*
%TO.P,J3,1,Pin_1*%
%TO.N,/OUT+*%
X218694000Y-71140000D03*
D13*
%TO.P,J3,2,Pin_2*%
%TO.N,/BAT+*%
X218694000Y-73680000D03*
%TD*%
D18*
%TO.N,/SIGNAL*%
X206248000Y-66548000D03*
%TO.N,/SCL*%
X201676000Y-65278000D03*
X201676000Y-60706000D03*
%TO.N,/OUT-*%
X213868000Y-50800000D03*
%TD*%
D19*
%TO.N,/SIGNAL*%
X206248000Y-84836000D02*
X212090000Y-90678000D01*
X206248000Y-66548000D02*
X206248000Y-84836000D01*
%TO.N,/SCL*%
X201676000Y-60706000D02*
X213052000Y-49330000D01*
X201726000Y-65328000D02*
X201726000Y-83275000D01*
X201676000Y-65278000D02*
X201726000Y-65328000D01*
X213052000Y-49330000D02*
X218610000Y-49330000D01*
%TO.N,/SDA*%
X212544000Y-51870000D02*
X199186000Y-65228000D01*
X199186000Y-65228000D02*
X199186000Y-83275000D01*
X218610000Y-51870000D02*
X212544000Y-51870000D01*
%TD*%
%TA.AperFunction,Conductor*%
%TO.N,/OUT-*%
G36*
X194190198Y-43028502D02*
G01*
X194236691Y-43082158D01*
X194247340Y-43148108D01*
X194241500Y-43201866D01*
X194241500Y-45298134D01*
X194248255Y-45360316D01*
X194299385Y-45496705D01*
X194386739Y-45613261D01*
X194503295Y-45700615D01*
X194511704Y-45703767D01*
X194511707Y-45703769D01*
X194527768Y-45709790D01*
X194584533Y-45752431D01*
X194609234Y-45818992D01*
X194594027Y-45888341D01*
X194572635Y-45916867D01*
X194543802Y-45945700D01*
X194412477Y-46133251D01*
X194410154Y-46138233D01*
X194410151Y-46138238D01*
X194318039Y-46335775D01*
X194315716Y-46340757D01*
X194256457Y-46561913D01*
X194236502Y-46790000D01*
X194256457Y-47018087D01*
X194315716Y-47239243D01*
X194318039Y-47244224D01*
X194318039Y-47244225D01*
X194410151Y-47441762D01*
X194410154Y-47441767D01*
X194412477Y-47446749D01*
X194543802Y-47634300D01*
X194705700Y-47796198D01*
X194710208Y-47799355D01*
X194710211Y-47799357D01*
X194788389Y-47854098D01*
X194893251Y-47927523D01*
X194898233Y-47929846D01*
X194898238Y-47929849D01*
X194932457Y-47945805D01*
X194985742Y-47992722D01*
X195005203Y-48060999D01*
X194984661Y-48128959D01*
X194932457Y-48174195D01*
X194898238Y-48190151D01*
X194898233Y-48190154D01*
X194893251Y-48192477D01*
X194788389Y-48265902D01*
X194710211Y-48320643D01*
X194710208Y-48320645D01*
X194705700Y-48323802D01*
X194543802Y-48485700D01*
X194412477Y-48673251D01*
X194410154Y-48678233D01*
X194410151Y-48678238D01*
X194325456Y-48859870D01*
X194315716Y-48880757D01*
X194256457Y-49101913D01*
X194236502Y-49330000D01*
X194256457Y-49558087D01*
X194315716Y-49779243D01*
X194318039Y-49784224D01*
X194318039Y-49784225D01*
X194410151Y-49981762D01*
X194410154Y-49981767D01*
X194412477Y-49986749D01*
X194543802Y-50174300D01*
X194705700Y-50336198D01*
X194710208Y-50339355D01*
X194710211Y-50339357D01*
X194788389Y-50394098D01*
X194893251Y-50467523D01*
X194898233Y-50469846D01*
X194898238Y-50469849D01*
X194932457Y-50485805D01*
X194985742Y-50532722D01*
X195005203Y-50600999D01*
X194984661Y-50668959D01*
X194932457Y-50714195D01*
X194898238Y-50730151D01*
X194898233Y-50730154D01*
X194893251Y-50732477D01*
X194788389Y-50805902D01*
X194710211Y-50860643D01*
X194710208Y-50860645D01*
X194705700Y-50863802D01*
X194543802Y-51025700D01*
X194412477Y-51213251D01*
X194410154Y-51218233D01*
X194410151Y-51218238D01*
X194323284Y-51404528D01*
X194315716Y-51420757D01*
X194314294Y-51426065D01*
X194314293Y-51426067D01*
X194292088Y-51508937D01*
X194256457Y-51641913D01*
X194236502Y-51870000D01*
X194256457Y-52098087D01*
X194257881Y-52103400D01*
X194257881Y-52103402D01*
X194263796Y-52125475D01*
X194315716Y-52319243D01*
X194318039Y-52324224D01*
X194318039Y-52324225D01*
X194410151Y-52521762D01*
X194410154Y-52521767D01*
X194412477Y-52526749D01*
X194543802Y-52714300D01*
X194705700Y-52876198D01*
X194710208Y-52879355D01*
X194710211Y-52879357D01*
X194744935Y-52903671D01*
X194893251Y-53007523D01*
X194898233Y-53009846D01*
X194898238Y-53009849D01*
X194932457Y-53025805D01*
X194985742Y-53072722D01*
X195005203Y-53140999D01*
X194984661Y-53208959D01*
X194932457Y-53254195D01*
X194898238Y-53270151D01*
X194898233Y-53270154D01*
X194893251Y-53272477D01*
X194807334Y-53332637D01*
X194710211Y-53400643D01*
X194710208Y-53400645D01*
X194705700Y-53403802D01*
X194543802Y-53565700D01*
X194412477Y-53753251D01*
X194410154Y-53758233D01*
X194410151Y-53758238D01*
X194318039Y-53955775D01*
X194315716Y-53960757D01*
X194256457Y-54181913D01*
X194236502Y-54410000D01*
X194256457Y-54638087D01*
X194315716Y-54859243D01*
X194318039Y-54864224D01*
X194318039Y-54864225D01*
X194410151Y-55061762D01*
X194410154Y-55061767D01*
X194412477Y-55066749D01*
X194543802Y-55254300D01*
X194705700Y-55416198D01*
X194710208Y-55419355D01*
X194710211Y-55419357D01*
X194788389Y-55474098D01*
X194893251Y-55547523D01*
X194898233Y-55549846D01*
X194898238Y-55549849D01*
X194932457Y-55565805D01*
X194985742Y-55612722D01*
X195005203Y-55680999D01*
X194984661Y-55748959D01*
X194932457Y-55794195D01*
X194898238Y-55810151D01*
X194898233Y-55810154D01*
X194893251Y-55812477D01*
X194788389Y-55885902D01*
X194710211Y-55940643D01*
X194710208Y-55940645D01*
X194705700Y-55943802D01*
X194543802Y-56105700D01*
X194412477Y-56293251D01*
X194410154Y-56298233D01*
X194410151Y-56298238D01*
X194318039Y-56495775D01*
X194315716Y-56500757D01*
X194256457Y-56721913D01*
X194236502Y-56950000D01*
X194256457Y-57178087D01*
X194315716Y-57399243D01*
X194318039Y-57404224D01*
X194318039Y-57404225D01*
X194410151Y-57601762D01*
X194410154Y-57601767D01*
X194412477Y-57606749D01*
X194543802Y-57794300D01*
X194705700Y-57956198D01*
X194710208Y-57959355D01*
X194710211Y-57959357D01*
X194788389Y-58014098D01*
X194893251Y-58087523D01*
X194898233Y-58089846D01*
X194898238Y-58089849D01*
X194932457Y-58105805D01*
X194985742Y-58152722D01*
X195005203Y-58220999D01*
X194984661Y-58288959D01*
X194932457Y-58334195D01*
X194898238Y-58350151D01*
X194898233Y-58350154D01*
X194893251Y-58352477D01*
X194788389Y-58425902D01*
X194710211Y-58480643D01*
X194710208Y-58480645D01*
X194705700Y-58483802D01*
X194543802Y-58645700D01*
X194412477Y-58833251D01*
X194410154Y-58838233D01*
X194410151Y-58838238D01*
X194410034Y-58838489D01*
X194315716Y-59040757D01*
X194256457Y-59261913D01*
X194236502Y-59490000D01*
X194256457Y-59718087D01*
X194257881Y-59723400D01*
X194257881Y-59723402D01*
X194289095Y-59839891D01*
X194315716Y-59939243D01*
X194318039Y-59944224D01*
X194318039Y-59944225D01*
X194410151Y-60141762D01*
X194410154Y-60141767D01*
X194412477Y-60146749D01*
X194485902Y-60251611D01*
X194539896Y-60328721D01*
X194543802Y-60334300D01*
X194705700Y-60496198D01*
X194710208Y-60499355D01*
X194710211Y-60499357D01*
X194725117Y-60509794D01*
X194893251Y-60627523D01*
X194898233Y-60629846D01*
X194898238Y-60629849D01*
X194932457Y-60645805D01*
X194985742Y-60692722D01*
X195005203Y-60760999D01*
X194984661Y-60828959D01*
X194932457Y-60874195D01*
X194898238Y-60890151D01*
X194898233Y-60890154D01*
X194893251Y-60892477D01*
X194879357Y-60902206D01*
X194710211Y-61020643D01*
X194710208Y-61020645D01*
X194705700Y-61023802D01*
X194543802Y-61185700D01*
X194540645Y-61190208D01*
X194540643Y-61190211D01*
X194485902Y-61268389D01*
X194412477Y-61373251D01*
X194410154Y-61378233D01*
X194410151Y-61378238D01*
X194318039Y-61575775D01*
X194315716Y-61580757D01*
X194314294Y-61586065D01*
X194314293Y-61586067D01*
X194301315Y-61634502D01*
X194256457Y-61801913D01*
X194236502Y-62030000D01*
X194256457Y-62258087D01*
X194315716Y-62479243D01*
X194318039Y-62484224D01*
X194318039Y-62484225D01*
X194410151Y-62681762D01*
X194410154Y-62681767D01*
X194412477Y-62686749D01*
X194543802Y-62874300D01*
X194705700Y-63036198D01*
X194710208Y-63039355D01*
X194710211Y-63039357D01*
X194788389Y-63094098D01*
X194893251Y-63167523D01*
X194898233Y-63169846D01*
X194898238Y-63169849D01*
X195095775Y-63261961D01*
X195100757Y-63264284D01*
X195106065Y-63265706D01*
X195106067Y-63265707D01*
X195316598Y-63322119D01*
X195316600Y-63322119D01*
X195321913Y-63323543D01*
X195421480Y-63332254D01*
X195490149Y-63338262D01*
X195490156Y-63338262D01*
X195492873Y-63338500D01*
X196007127Y-63338500D01*
X196009844Y-63338262D01*
X196009851Y-63338262D01*
X196078520Y-63332254D01*
X196178087Y-63323543D01*
X196183400Y-63322119D01*
X196183402Y-63322119D01*
X196393933Y-63265707D01*
X196393935Y-63265706D01*
X196399243Y-63264284D01*
X196404225Y-63261961D01*
X196601762Y-63169849D01*
X196601767Y-63169846D01*
X196606749Y-63167523D01*
X196711611Y-63094098D01*
X196789789Y-63039357D01*
X196789792Y-63039355D01*
X196794300Y-63036198D01*
X196956198Y-62874300D01*
X197087523Y-62686749D01*
X197089846Y-62681767D01*
X197089849Y-62681762D01*
X197181961Y-62484225D01*
X197181961Y-62484224D01*
X197184284Y-62479243D01*
X197243543Y-62258087D01*
X197263498Y-62030000D01*
X197243543Y-61801913D01*
X197198685Y-61634502D01*
X197185707Y-61586067D01*
X197185706Y-61586065D01*
X197184284Y-61580757D01*
X197181961Y-61575775D01*
X197089849Y-61378238D01*
X197089846Y-61378233D01*
X197087523Y-61373251D01*
X197014098Y-61268389D01*
X196959357Y-61190211D01*
X196959355Y-61190208D01*
X196956198Y-61185700D01*
X196794300Y-61023802D01*
X196789792Y-61020645D01*
X196789789Y-61020643D01*
X196620643Y-60902206D01*
X196606749Y-60892477D01*
X196601767Y-60890154D01*
X196601762Y-60890151D01*
X196567543Y-60874195D01*
X196514258Y-60827278D01*
X196494797Y-60759001D01*
X196515339Y-60691041D01*
X196567543Y-60645805D01*
X196601762Y-60629849D01*
X196601767Y-60629846D01*
X196606749Y-60627523D01*
X196774883Y-60509794D01*
X196789789Y-60499357D01*
X196789792Y-60499355D01*
X196794300Y-60496198D01*
X196956198Y-60334300D01*
X196960105Y-60328721D01*
X197014098Y-60251611D01*
X197087523Y-60146749D01*
X197089846Y-60141767D01*
X197089849Y-60141762D01*
X197181961Y-59944225D01*
X197181961Y-59944224D01*
X197184284Y-59939243D01*
X197210906Y-59839891D01*
X197242119Y-59723402D01*
X197242119Y-59723400D01*
X197243543Y-59718087D01*
X197263498Y-59490000D01*
X197243543Y-59261913D01*
X197184284Y-59040757D01*
X197089966Y-58838489D01*
X197089849Y-58838238D01*
X197089846Y-58838233D01*
X197087523Y-58833251D01*
X196956198Y-58645700D01*
X196794300Y-58483802D01*
X196789792Y-58480645D01*
X196789789Y-58480643D01*
X196711611Y-58425902D01*
X196606749Y-58352477D01*
X196601767Y-58350154D01*
X196601762Y-58350151D01*
X196567543Y-58334195D01*
X196514258Y-58287278D01*
X196494797Y-58219001D01*
X196515339Y-58151041D01*
X196567543Y-58105805D01*
X196601762Y-58089849D01*
X196601767Y-58089846D01*
X196606749Y-58087523D01*
X196711611Y-58014098D01*
X196789789Y-57959357D01*
X196789792Y-57959355D01*
X196794300Y-57956198D01*
X196956198Y-57794300D01*
X197087523Y-57606749D01*
X197089846Y-57601767D01*
X197089849Y-57601762D01*
X197181961Y-57404225D01*
X197181961Y-57404224D01*
X197184284Y-57399243D01*
X197243543Y-57178087D01*
X197263498Y-56950000D01*
X197243543Y-56721913D01*
X197184284Y-56500757D01*
X197181961Y-56495775D01*
X197089849Y-56298238D01*
X197089846Y-56298233D01*
X197087523Y-56293251D01*
X196956198Y-56105700D01*
X196794300Y-55943802D01*
X196789792Y-55940645D01*
X196789789Y-55940643D01*
X196711611Y-55885902D01*
X196606749Y-55812477D01*
X196601767Y-55810154D01*
X196601762Y-55810151D01*
X196567543Y-55794195D01*
X196514258Y-55747278D01*
X196494797Y-55679001D01*
X196515339Y-55611041D01*
X196567543Y-55565805D01*
X196601762Y-55549849D01*
X196601767Y-55549846D01*
X196606749Y-55547523D01*
X196711611Y-55474098D01*
X196789789Y-55419357D01*
X196789792Y-55419355D01*
X196794300Y-55416198D01*
X196956198Y-55254300D01*
X197087523Y-55066749D01*
X197089846Y-55061767D01*
X197089849Y-55061762D01*
X197181961Y-54864225D01*
X197181961Y-54864224D01*
X197184284Y-54859243D01*
X197243543Y-54638087D01*
X197263498Y-54410000D01*
X197243543Y-54181913D01*
X197184284Y-53960757D01*
X197181961Y-53955775D01*
X197089849Y-53758238D01*
X197089846Y-53758233D01*
X197087523Y-53753251D01*
X196956198Y-53565700D01*
X196794300Y-53403802D01*
X196789792Y-53400645D01*
X196789789Y-53400643D01*
X196692666Y-53332637D01*
X196606749Y-53272477D01*
X196601767Y-53270154D01*
X196601762Y-53270151D01*
X196567543Y-53254195D01*
X196514258Y-53207278D01*
X196494797Y-53139001D01*
X196515339Y-53071041D01*
X196567543Y-53025805D01*
X196601762Y-53009849D01*
X196601767Y-53009846D01*
X196606749Y-53007523D01*
X196755065Y-52903671D01*
X196789789Y-52879357D01*
X196789792Y-52879355D01*
X196794300Y-52876198D01*
X196956198Y-52714300D01*
X197087523Y-52526749D01*
X197089846Y-52521767D01*
X197089849Y-52521762D01*
X197181961Y-52324225D01*
X197181961Y-52324224D01*
X197184284Y-52319243D01*
X197236205Y-52125475D01*
X197237672Y-52120000D01*
X198786884Y-52120000D01*
X198805314Y-52330655D01*
X198860044Y-52534910D01*
X198862366Y-52539891D01*
X198862367Y-52539892D01*
X198870452Y-52557229D01*
X198949411Y-52726558D01*
X199070699Y-52899776D01*
X199220224Y-53049301D01*
X199393442Y-53170589D01*
X199398420Y-53172910D01*
X199398423Y-53172912D01*
X199580108Y-53257633D01*
X199585090Y-53259956D01*
X199590398Y-53261378D01*
X199590400Y-53261379D01*
X199784030Y-53313262D01*
X199784032Y-53313262D01*
X199789345Y-53314686D01*
X200000000Y-53333116D01*
X200210655Y-53314686D01*
X200215968Y-53313262D01*
X200215970Y-53313262D01*
X200409600Y-53261379D01*
X200409602Y-53261378D01*
X200414910Y-53259956D01*
X200419892Y-53257633D01*
X200601577Y-53172912D01*
X200601580Y-53172910D01*
X200606558Y-53170589D01*
X200779776Y-53049301D01*
X200929301Y-52899776D01*
X201050589Y-52726558D01*
X201129549Y-52557229D01*
X201137633Y-52539892D01*
X201137634Y-52539891D01*
X201139956Y-52534910D01*
X201194686Y-52330655D01*
X201213116Y-52120000D01*
X201194686Y-51909345D01*
X201139956Y-51705090D01*
X201137633Y-51700108D01*
X201052912Y-51518423D01*
X201052910Y-51518420D01*
X201050589Y-51513442D01*
X200929301Y-51340224D01*
X200779776Y-51190699D01*
X200606558Y-51069411D01*
X200601580Y-51067090D01*
X200601577Y-51067088D01*
X200419892Y-50982367D01*
X200419891Y-50982366D01*
X200414910Y-50980044D01*
X200409602Y-50978622D01*
X200409600Y-50978621D01*
X200215970Y-50926738D01*
X200215968Y-50926738D01*
X200210655Y-50925314D01*
X200000000Y-50906884D01*
X199789345Y-50925314D01*
X199784032Y-50926738D01*
X199784030Y-50926738D01*
X199590400Y-50978621D01*
X199590398Y-50978622D01*
X199585090Y-50980044D01*
X199580109Y-50982366D01*
X199580108Y-50982367D01*
X199398423Y-51067088D01*
X199398420Y-51067090D01*
X199393442Y-51069411D01*
X199220224Y-51190699D01*
X199070699Y-51340224D01*
X198949411Y-51513442D01*
X198947090Y-51518420D01*
X198947088Y-51518423D01*
X198862367Y-51700108D01*
X198860044Y-51705090D01*
X198805314Y-51909345D01*
X198786884Y-52120000D01*
X197237672Y-52120000D01*
X197242119Y-52103402D01*
X197242119Y-52103400D01*
X197243543Y-52098087D01*
X197263498Y-51870000D01*
X197243543Y-51641913D01*
X197207912Y-51508937D01*
X197185707Y-51426067D01*
X197185706Y-51426065D01*
X197184284Y-51420757D01*
X197176716Y-51404528D01*
X197089849Y-51218238D01*
X197089846Y-51218233D01*
X197087523Y-51213251D01*
X196956198Y-51025700D01*
X196794300Y-50863802D01*
X196789792Y-50860645D01*
X196789789Y-50860643D01*
X196711611Y-50805902D01*
X196606749Y-50732477D01*
X196601767Y-50730154D01*
X196601762Y-50730151D01*
X196567543Y-50714195D01*
X196514258Y-50667278D01*
X196494797Y-50599001D01*
X196515339Y-50531041D01*
X196567543Y-50485805D01*
X196601762Y-50469849D01*
X196601767Y-50469846D01*
X196606749Y-50467523D01*
X196711611Y-50394098D01*
X196789789Y-50339357D01*
X196789792Y-50339355D01*
X196794300Y-50336198D01*
X196956198Y-50174300D01*
X197087523Y-49986749D01*
X197089846Y-49981767D01*
X197089849Y-49981762D01*
X197181961Y-49784225D01*
X197181961Y-49784224D01*
X197184284Y-49779243D01*
X197243543Y-49558087D01*
X197263498Y-49330000D01*
X197243543Y-49101913D01*
X197184284Y-48880757D01*
X197174544Y-48859870D01*
X197089849Y-48678238D01*
X197089846Y-48678233D01*
X197087523Y-48673251D01*
X196956198Y-48485700D01*
X196794300Y-48323802D01*
X196789792Y-48320645D01*
X196789789Y-48320643D01*
X196711611Y-48265902D01*
X196606749Y-48192477D01*
X196601767Y-48190154D01*
X196601762Y-48190151D01*
X196567543Y-48174195D01*
X196514258Y-48127278D01*
X196494797Y-48059001D01*
X196515339Y-47991041D01*
X196567543Y-47945805D01*
X196601762Y-47929849D01*
X196601767Y-47929846D01*
X196606749Y-47927523D01*
X196711611Y-47854098D01*
X196789789Y-47799357D01*
X196789792Y-47799355D01*
X196794300Y-47796198D01*
X196956198Y-47634300D01*
X197087523Y-47446749D01*
X197089846Y-47441767D01*
X197089849Y-47441762D01*
X197181961Y-47244225D01*
X197181961Y-47244224D01*
X197184284Y-47239243D01*
X197243543Y-47018087D01*
X197263498Y-46790000D01*
X197243543Y-46561913D01*
X197184284Y-46340757D01*
X197181961Y-46335775D01*
X197089849Y-46138238D01*
X197089846Y-46138233D01*
X197087523Y-46133251D01*
X196956198Y-45945700D01*
X196927365Y-45916867D01*
X196893339Y-45854555D01*
X196898404Y-45783740D01*
X196940951Y-45726904D01*
X196972232Y-45709790D01*
X196988293Y-45703769D01*
X196988296Y-45703767D01*
X196996705Y-45700615D01*
X197113261Y-45613261D01*
X197200615Y-45496705D01*
X197251745Y-45360316D01*
X197258500Y-45298134D01*
X197258500Y-44500000D01*
X198786884Y-44500000D01*
X198805314Y-44710655D01*
X198860044Y-44914910D01*
X198949411Y-45106558D01*
X199070699Y-45279776D01*
X199220224Y-45429301D01*
X199393442Y-45550589D01*
X199398420Y-45552910D01*
X199398423Y-45552912D01*
X199580108Y-45637633D01*
X199585090Y-45639956D01*
X199590398Y-45641378D01*
X199590400Y-45641379D01*
X199784030Y-45693262D01*
X199784032Y-45693262D01*
X199789345Y-45694686D01*
X200000000Y-45713116D01*
X200210655Y-45694686D01*
X200215968Y-45693262D01*
X200215970Y-45693262D01*
X200409600Y-45641379D01*
X200409602Y-45641378D01*
X200414910Y-45639956D01*
X200419892Y-45637633D01*
X200601577Y-45552912D01*
X200601580Y-45552910D01*
X200606558Y-45550589D01*
X200779776Y-45429301D01*
X200929301Y-45279776D01*
X201050589Y-45106558D01*
X201139956Y-44914910D01*
X201194686Y-44710655D01*
X201213116Y-44500000D01*
X201194686Y-44289345D01*
X201139956Y-44085090D01*
X201137633Y-44080108D01*
X201052912Y-43898423D01*
X201052910Y-43898420D01*
X201050589Y-43893442D01*
X200929301Y-43720224D01*
X200779776Y-43570699D01*
X200606558Y-43449411D01*
X200601580Y-43447090D01*
X200601577Y-43447088D01*
X200419892Y-43362367D01*
X200419891Y-43362366D01*
X200414910Y-43360044D01*
X200409602Y-43358622D01*
X200409600Y-43358621D01*
X200215970Y-43306738D01*
X200215968Y-43306738D01*
X200210655Y-43305314D01*
X200000000Y-43286884D01*
X199789345Y-43305314D01*
X199784032Y-43306738D01*
X199784030Y-43306738D01*
X199590400Y-43358621D01*
X199590398Y-43358622D01*
X199585090Y-43360044D01*
X199580109Y-43362366D01*
X199580108Y-43362367D01*
X199398423Y-43447088D01*
X199398420Y-43447090D01*
X199393442Y-43449411D01*
X199220224Y-43570699D01*
X199070699Y-43720224D01*
X198949411Y-43893442D01*
X198947090Y-43898420D01*
X198947088Y-43898423D01*
X198862367Y-44080108D01*
X198860044Y-44085090D01*
X198805314Y-44289345D01*
X198786884Y-44500000D01*
X197258500Y-44500000D01*
X197258500Y-43201866D01*
X197252660Y-43148108D01*
X197265188Y-43078225D01*
X197313509Y-43026210D01*
X197377923Y-43008500D01*
X217502125Y-43008500D01*
X217570246Y-43028502D01*
X217616739Y-43082158D01*
X217626843Y-43152432D01*
X217597349Y-43217012D01*
X217574396Y-43237713D01*
X217570211Y-43240643D01*
X217570208Y-43240645D01*
X217565700Y-43243802D01*
X217403802Y-43405700D01*
X217272477Y-43593251D01*
X217270154Y-43598233D01*
X217270151Y-43598238D01*
X217215085Y-43716329D01*
X217175716Y-43800757D01*
X217116457Y-44021913D01*
X217096502Y-44250000D01*
X217116457Y-44478087D01*
X217117881Y-44483400D01*
X217117881Y-44483402D01*
X217123796Y-44505475D01*
X217175716Y-44699243D01*
X217178039Y-44704224D01*
X217178039Y-44704225D01*
X217270151Y-44901762D01*
X217270154Y-44901767D01*
X217272477Y-44906749D01*
X217403802Y-45094300D01*
X217565700Y-45256198D01*
X217570208Y-45259355D01*
X217570211Y-45259357D01*
X217630442Y-45301531D01*
X217753251Y-45387523D01*
X217758233Y-45389846D01*
X217758238Y-45389849D01*
X217792457Y-45405805D01*
X217845742Y-45452722D01*
X217865203Y-45520999D01*
X217844661Y-45588959D01*
X217792457Y-45634195D01*
X217758238Y-45650151D01*
X217758233Y-45650154D01*
X217753251Y-45652477D01*
X217692195Y-45695229D01*
X217570211Y-45780643D01*
X217570208Y-45780645D01*
X217565700Y-45783802D01*
X217403802Y-45945700D01*
X217272477Y-46133251D01*
X217270154Y-46138233D01*
X217270151Y-46138238D01*
X217178039Y-46335775D01*
X217175716Y-46340757D01*
X217116457Y-46561913D01*
X217096502Y-46790000D01*
X217116457Y-47018087D01*
X217175716Y-47239243D01*
X217178039Y-47244224D01*
X217178039Y-47244225D01*
X217270151Y-47441762D01*
X217270154Y-47441767D01*
X217272477Y-47446749D01*
X217403802Y-47634300D01*
X217565700Y-47796198D01*
X217570208Y-47799355D01*
X217570211Y-47799357D01*
X217648389Y-47854098D01*
X217753251Y-47927523D01*
X217758233Y-47929846D01*
X217758238Y-47929849D01*
X217792457Y-47945805D01*
X217845742Y-47992722D01*
X217865203Y-48060999D01*
X217844661Y-48128959D01*
X217792457Y-48174195D01*
X217758238Y-48190151D01*
X217758233Y-48190154D01*
X217753251Y-48192477D01*
X217648389Y-48265902D01*
X217570211Y-48320643D01*
X217570208Y-48320645D01*
X217565700Y-48323802D01*
X217403802Y-48485700D01*
X217400645Y-48490208D01*
X217400643Y-48490211D01*
X217293819Y-48642771D01*
X217238362Y-48687099D01*
X217190606Y-48696500D01*
X213130763Y-48696500D01*
X213119579Y-48695973D01*
X213112091Y-48694299D01*
X213104168Y-48694548D01*
X213044033Y-48696438D01*
X213040075Y-48696500D01*
X213012144Y-48696500D01*
X213008229Y-48696995D01*
X213008225Y-48696995D01*
X213008167Y-48697003D01*
X213008138Y-48697006D01*
X212996296Y-48697939D01*
X212952110Y-48699327D01*
X212934744Y-48704372D01*
X212932658Y-48704978D01*
X212913306Y-48708986D01*
X212901068Y-48710532D01*
X212901066Y-48710533D01*
X212893203Y-48711526D01*
X212852086Y-48727806D01*
X212840885Y-48731641D01*
X212798406Y-48743982D01*
X212791587Y-48748015D01*
X212791582Y-48748017D01*
X212780971Y-48754293D01*
X212763221Y-48762990D01*
X212744383Y-48770448D01*
X212737967Y-48775109D01*
X212737966Y-48775110D01*
X212708625Y-48796428D01*
X212698701Y-48802947D01*
X212667460Y-48821422D01*
X212667455Y-48821426D01*
X212660637Y-48825458D01*
X212646313Y-48839782D01*
X212631281Y-48852621D01*
X212614893Y-48864528D01*
X212586712Y-48898593D01*
X212578722Y-48907373D01*
X201725500Y-59760595D01*
X201663188Y-59794621D01*
X201636405Y-59797500D01*
X201580513Y-59797500D01*
X201574061Y-59798872D01*
X201574056Y-59798872D01*
X201487113Y-59817353D01*
X201393712Y-59837206D01*
X201387682Y-59839891D01*
X201387681Y-59839891D01*
X201225278Y-59912197D01*
X201225276Y-59912198D01*
X201219248Y-59914882D01*
X201213907Y-59918762D01*
X201213906Y-59918763D01*
X201185718Y-59939243D01*
X201064747Y-60027134D01*
X201060326Y-60032044D01*
X201060325Y-60032045D01*
X200961536Y-60141762D01*
X200936960Y-60169056D01*
X200841473Y-60334444D01*
X200782458Y-60516072D01*
X200762496Y-60706000D01*
X200763186Y-60712565D01*
X200768248Y-60760723D01*
X200782458Y-60895928D01*
X200841473Y-61077556D01*
X200936960Y-61242944D01*
X201064747Y-61384866D01*
X201219248Y-61497118D01*
X201225276Y-61499802D01*
X201225278Y-61499803D01*
X201387681Y-61572109D01*
X201393712Y-61574794D01*
X201487113Y-61594647D01*
X201574056Y-61613128D01*
X201574061Y-61613128D01*
X201580513Y-61614500D01*
X201599405Y-61614500D01*
X201667526Y-61634502D01*
X201714019Y-61688158D01*
X201724123Y-61758432D01*
X201694629Y-61823012D01*
X201688500Y-61829595D01*
X198793747Y-64724348D01*
X198785461Y-64731888D01*
X198778982Y-64736000D01*
X198773557Y-64741777D01*
X198732357Y-64785651D01*
X198729602Y-64788493D01*
X198709865Y-64808230D01*
X198707385Y-64811427D01*
X198699682Y-64820447D01*
X198669414Y-64852679D01*
X198665595Y-64859625D01*
X198665593Y-64859628D01*
X198659652Y-64870434D01*
X198648801Y-64886953D01*
X198636386Y-64902959D01*
X198633241Y-64910228D01*
X198633238Y-64910232D01*
X198618826Y-64943537D01*
X198613609Y-64954187D01*
X198592305Y-64992940D01*
X198590334Y-65000615D01*
X198590334Y-65000616D01*
X198587267Y-65012562D01*
X198580863Y-65031266D01*
X198572819Y-65049855D01*
X198571580Y-65057678D01*
X198571577Y-65057688D01*
X198565901Y-65093524D01*
X198563495Y-65105144D01*
X198552500Y-65147970D01*
X198552500Y-65168224D01*
X198550949Y-65187934D01*
X198547780Y-65207943D01*
X198548526Y-65215835D01*
X198551941Y-65251961D01*
X198552500Y-65263819D01*
X198552500Y-81996692D01*
X198532498Y-82064813D01*
X198484683Y-82108453D01*
X198459607Y-82121507D01*
X198455474Y-82124610D01*
X198455471Y-82124612D01*
X198285100Y-82252530D01*
X198280965Y-82255635D01*
X198255541Y-82282240D01*
X198187280Y-82353671D01*
X198126629Y-82417138D01*
X198123720Y-82421403D01*
X198123714Y-82421411D01*
X198111404Y-82439457D01*
X198019204Y-82574618D01*
X198018898Y-82575066D01*
X197963987Y-82620069D01*
X197893462Y-82628240D01*
X197829715Y-82596986D01*
X197809018Y-82572502D01*
X197728426Y-82447926D01*
X197722136Y-82439757D01*
X197578806Y-82282240D01*
X197571273Y-82275215D01*
X197404139Y-82143222D01*
X197395552Y-82137517D01*
X197209117Y-82034599D01*
X197199705Y-82030369D01*
X196998959Y-81959280D01*
X196988988Y-81956646D01*
X196917837Y-81943972D01*
X196904540Y-81945432D01*
X196900000Y-81959989D01*
X196900000Y-84593517D01*
X196904064Y-84607359D01*
X196917478Y-84609393D01*
X196924184Y-84608534D01*
X196934262Y-84606392D01*
X197138255Y-84545191D01*
X197147842Y-84541433D01*
X197339095Y-84447739D01*
X197347945Y-84442464D01*
X197521328Y-84318792D01*
X197529200Y-84312139D01*
X197680052Y-84161812D01*
X197686730Y-84153965D01*
X197814022Y-83976819D01*
X197815279Y-83977722D01*
X197862373Y-83934362D01*
X197932311Y-83922145D01*
X197997751Y-83949678D01*
X198025579Y-83981511D01*
X198085987Y-84080088D01*
X198232250Y-84248938D01*
X198404126Y-84391632D01*
X198597000Y-84504338D01*
X198805692Y-84584030D01*
X198810760Y-84585061D01*
X198810763Y-84585062D01*
X198905862Y-84604410D01*
X199024597Y-84628567D01*
X199029772Y-84628757D01*
X199029774Y-84628757D01*
X199242673Y-84636564D01*
X199242677Y-84636564D01*
X199247837Y-84636753D01*
X199252957Y-84636097D01*
X199252959Y-84636097D01*
X199464288Y-84609025D01*
X199464289Y-84609025D01*
X199469416Y-84608368D01*
X199474366Y-84606883D01*
X199678429Y-84545661D01*
X199678434Y-84545659D01*
X199683384Y-84544174D01*
X199883994Y-84445896D01*
X200065860Y-84316173D01*
X200224096Y-84158489D01*
X200354453Y-83977077D01*
X200355776Y-83978028D01*
X200402645Y-83934857D01*
X200472580Y-83922625D01*
X200538026Y-83950144D01*
X200565875Y-83981994D01*
X200625987Y-84080088D01*
X200772250Y-84248938D01*
X200944126Y-84391632D01*
X201137000Y-84504338D01*
X201345692Y-84584030D01*
X201350760Y-84585061D01*
X201350763Y-84585062D01*
X201445862Y-84604410D01*
X201564597Y-84628567D01*
X201569772Y-84628757D01*
X201569774Y-84628757D01*
X201782673Y-84636564D01*
X201782677Y-84636564D01*
X201787837Y-84636753D01*
X201792957Y-84636097D01*
X201792959Y-84636097D01*
X202004288Y-84609025D01*
X202004289Y-84609025D01*
X202009416Y-84608368D01*
X202014366Y-84606883D01*
X202218429Y-84545661D01*
X202218434Y-84545659D01*
X202223384Y-84544174D01*
X202423994Y-84445896D01*
X202605860Y-84316173D01*
X202714091Y-84208319D01*
X202776462Y-84174404D01*
X202847268Y-84179592D01*
X202904030Y-84222238D01*
X202921012Y-84253341D01*
X202965385Y-84371705D01*
X203052739Y-84488261D01*
X203169295Y-84575615D01*
X203305684Y-84626745D01*
X203367866Y-84633500D01*
X205164134Y-84633500D01*
X205226316Y-84626745D01*
X205362705Y-84575615D01*
X205402673Y-84545661D01*
X205412935Y-84537970D01*
X205479442Y-84513122D01*
X205548824Y-84528175D01*
X205599054Y-84578350D01*
X205614500Y-84638796D01*
X205614500Y-84757233D01*
X205613973Y-84768416D01*
X205612298Y-84775909D01*
X205612547Y-84783835D01*
X205612547Y-84783836D01*
X205614438Y-84843986D01*
X205614500Y-84847945D01*
X205614500Y-84875856D01*
X205614997Y-84879790D01*
X205614997Y-84879791D01*
X205615005Y-84879856D01*
X205615938Y-84891693D01*
X205617327Y-84935889D01*
X205622978Y-84955339D01*
X205626987Y-84974700D01*
X205629526Y-84994797D01*
X205632445Y-85002168D01*
X205632445Y-85002170D01*
X205645804Y-85035912D01*
X205649649Y-85047142D01*
X205661982Y-85089593D01*
X205666015Y-85096412D01*
X205666017Y-85096417D01*
X205672293Y-85107028D01*
X205680988Y-85124776D01*
X205688448Y-85143617D01*
X205693110Y-85150033D01*
X205693110Y-85150034D01*
X205714436Y-85179387D01*
X205720952Y-85189307D01*
X205743458Y-85227362D01*
X205757779Y-85241683D01*
X205770619Y-85256716D01*
X205782528Y-85273107D01*
X205788634Y-85278158D01*
X205816605Y-85301298D01*
X205825384Y-85309288D01*
X210862557Y-90346461D01*
X210896583Y-90408773D01*
X210897548Y-90457437D01*
X210896738Y-90462029D01*
X210895314Y-90467345D01*
X210876884Y-90678000D01*
X210895314Y-90888655D01*
X210896738Y-90893968D01*
X210896738Y-90893970D01*
X210939810Y-91054715D01*
X210950044Y-91092910D01*
X211039411Y-91284558D01*
X211160699Y-91457776D01*
X211310224Y-91607301D01*
X211483442Y-91728589D01*
X211488420Y-91730910D01*
X211488423Y-91730912D01*
X211670108Y-91815633D01*
X211675090Y-91817956D01*
X211680398Y-91819378D01*
X211680400Y-91819379D01*
X211874030Y-91871262D01*
X211874032Y-91871262D01*
X211879345Y-91872686D01*
X212090000Y-91891116D01*
X212300655Y-91872686D01*
X212305968Y-91871262D01*
X212305970Y-91871262D01*
X212499600Y-91819379D01*
X212499602Y-91819378D01*
X212504910Y-91817956D01*
X212509892Y-91815633D01*
X212691577Y-91730912D01*
X212691580Y-91730910D01*
X212696558Y-91728589D01*
X212771827Y-91675885D01*
X217584000Y-91675885D01*
X217588475Y-91691124D01*
X217589865Y-91692329D01*
X217597548Y-91694000D01*
X218569885Y-91694000D01*
X218585124Y-91689525D01*
X218586329Y-91688135D01*
X218588000Y-91680452D01*
X218588000Y-91675885D01*
X219096000Y-91675885D01*
X219100475Y-91691124D01*
X219101865Y-91692329D01*
X219109548Y-91694000D01*
X220081884Y-91694000D01*
X220097123Y-91689525D01*
X220098328Y-91688135D01*
X220099999Y-91680452D01*
X220099999Y-91378331D01*
X220099629Y-91371510D01*
X220094105Y-91320648D01*
X220090479Y-91305396D01*
X220045324Y-91184946D01*
X220036786Y-91169351D01*
X219960285Y-91067276D01*
X219947724Y-91054715D01*
X219845649Y-90978214D01*
X219830054Y-90969676D01*
X219709606Y-90924522D01*
X219694351Y-90920895D01*
X219643486Y-90915369D01*
X219636672Y-90915000D01*
X219114115Y-90915000D01*
X219098876Y-90919475D01*
X219097671Y-90920865D01*
X219096000Y-90928548D01*
X219096000Y-91675885D01*
X218588000Y-91675885D01*
X218588000Y-90933116D01*
X218583525Y-90917877D01*
X218582135Y-90916672D01*
X218574452Y-90915001D01*
X218047331Y-90915001D01*
X218040510Y-90915371D01*
X217989648Y-90920895D01*
X217974396Y-90924521D01*
X217853946Y-90969676D01*
X217838351Y-90978214D01*
X217736276Y-91054715D01*
X217723715Y-91067276D01*
X217647214Y-91169351D01*
X217638676Y-91184946D01*
X217593522Y-91305394D01*
X217589895Y-91320649D01*
X217584369Y-91371514D01*
X217584000Y-91378328D01*
X217584000Y-91675885D01*
X212771827Y-91675885D01*
X212869776Y-91607301D01*
X213019301Y-91457776D01*
X213140589Y-91284558D01*
X213229956Y-91092910D01*
X213240191Y-91054715D01*
X213283262Y-90893970D01*
X213283262Y-90893968D01*
X213284686Y-90888655D01*
X213303116Y-90678000D01*
X213284686Y-90467345D01*
X213268992Y-90408773D01*
X213231379Y-90268400D01*
X213231378Y-90268398D01*
X213229956Y-90263090D01*
X213140589Y-90071442D01*
X213019301Y-89898224D01*
X212869776Y-89748699D01*
X212696558Y-89627411D01*
X212691580Y-89625090D01*
X212691577Y-89625088D01*
X212509892Y-89540367D01*
X212509891Y-89540366D01*
X212504910Y-89538044D01*
X212499602Y-89536622D01*
X212499600Y-89536621D01*
X212305970Y-89484738D01*
X212305968Y-89484738D01*
X212300655Y-89483314D01*
X212090000Y-89464884D01*
X212084525Y-89465363D01*
X211884816Y-89482835D01*
X211884812Y-89482836D01*
X211879345Y-89483314D01*
X211874039Y-89484736D01*
X211869439Y-89485547D01*
X211798879Y-89477679D01*
X211758462Y-89450557D01*
X206918405Y-84610500D01*
X206884379Y-84548188D01*
X206881500Y-84521405D01*
X206881500Y-73660000D01*
X207828884Y-73660000D01*
X207847314Y-73870655D01*
X207902044Y-74074910D01*
X207904366Y-74079891D01*
X207904367Y-74079892D01*
X207949583Y-74176857D01*
X207991411Y-74266558D01*
X208112699Y-74439776D01*
X208262224Y-74589301D01*
X208435442Y-74710589D01*
X208440420Y-74712910D01*
X208440423Y-74712912D01*
X208622108Y-74797633D01*
X208627090Y-74799956D01*
X208632398Y-74801378D01*
X208632400Y-74801379D01*
X208826030Y-74853262D01*
X208826032Y-74853262D01*
X208831345Y-74854686D01*
X209042000Y-74873116D01*
X209252655Y-74854686D01*
X209257968Y-74853262D01*
X209257970Y-74853262D01*
X209451600Y-74801379D01*
X209451602Y-74801378D01*
X209456910Y-74799956D01*
X209461892Y-74797633D01*
X209643577Y-74712912D01*
X209643580Y-74712910D01*
X209648558Y-74710589D01*
X209821776Y-74589301D01*
X209971301Y-74439776D01*
X210092589Y-74266558D01*
X210134418Y-74176857D01*
X210179633Y-74079892D01*
X210179634Y-74079891D01*
X210181956Y-74074910D01*
X210236686Y-73870655D01*
X210255116Y-73660000D01*
X210876884Y-73660000D01*
X210895314Y-73870655D01*
X210950044Y-74074910D01*
X210952366Y-74079891D01*
X210952367Y-74079892D01*
X210997583Y-74176857D01*
X211039411Y-74266558D01*
X211160699Y-74439776D01*
X211310224Y-74589301D01*
X211483442Y-74710589D01*
X211488420Y-74712910D01*
X211488423Y-74712912D01*
X211670108Y-74797633D01*
X211675090Y-74799956D01*
X211680398Y-74801378D01*
X211680400Y-74801379D01*
X211874030Y-74853262D01*
X211874032Y-74853262D01*
X211879345Y-74854686D01*
X212090000Y-74873116D01*
X212300655Y-74854686D01*
X212305968Y-74853262D01*
X212305970Y-74853262D01*
X212499600Y-74801379D01*
X212499602Y-74801378D01*
X212504910Y-74799956D01*
X212509892Y-74797633D01*
X212691577Y-74712912D01*
X212691580Y-74712910D01*
X212696558Y-74710589D01*
X212869776Y-74589301D01*
X213019301Y-74439776D01*
X213140589Y-74266558D01*
X213182418Y-74176857D01*
X213227633Y-74079892D01*
X213227634Y-74079891D01*
X213229956Y-74074910D01*
X213284686Y-73870655D01*
X213303116Y-73660000D01*
X213301952Y-73646695D01*
X217331251Y-73646695D01*
X217331548Y-73651848D01*
X217331548Y-73651851D01*
X217337011Y-73746590D01*
X217344110Y-73869715D01*
X217345247Y-73874761D01*
X217345248Y-73874767D01*
X217365119Y-73962939D01*
X217393222Y-74087639D01*
X217477266Y-74294616D01*
X217593987Y-74485088D01*
X217740250Y-74653938D01*
X217912126Y-74796632D01*
X218105000Y-74909338D01*
X218313692Y-74989030D01*
X218318760Y-74990061D01*
X218318763Y-74990062D01*
X218426017Y-75011883D01*
X218532597Y-75033567D01*
X218537772Y-75033757D01*
X218537774Y-75033757D01*
X218750673Y-75041564D01*
X218750677Y-75041564D01*
X218755837Y-75041753D01*
X218760957Y-75041097D01*
X218760959Y-75041097D01*
X218972288Y-75014025D01*
X218972289Y-75014025D01*
X218977416Y-75013368D01*
X218982366Y-75011883D01*
X219186429Y-74950661D01*
X219186434Y-74950659D01*
X219191384Y-74949174D01*
X219391994Y-74850896D01*
X219573860Y-74721173D01*
X219732096Y-74563489D01*
X219791594Y-74480689D01*
X219859435Y-74386277D01*
X219862453Y-74382077D01*
X219922008Y-74261577D01*
X219959136Y-74186453D01*
X219959137Y-74186451D01*
X219961430Y-74181811D01*
X220026370Y-73968069D01*
X220055529Y-73746590D01*
X220057156Y-73680000D01*
X220038852Y-73457361D01*
X219984431Y-73240702D01*
X219895354Y-73035840D01*
X219855906Y-72974862D01*
X219776822Y-72852617D01*
X219776820Y-72852614D01*
X219774014Y-72848277D01*
X219770532Y-72844450D01*
X219626798Y-72686488D01*
X219595746Y-72622642D01*
X219604141Y-72552143D01*
X219649317Y-72497375D01*
X219675761Y-72483706D01*
X219782297Y-72443767D01*
X219790705Y-72440615D01*
X219907261Y-72353261D01*
X219994615Y-72236705D01*
X220045745Y-72100316D01*
X220052500Y-72038134D01*
X220052500Y-70241866D01*
X220045745Y-70179684D01*
X219994615Y-70043295D01*
X219907261Y-69926739D01*
X219790705Y-69839385D01*
X219654316Y-69788255D01*
X219592134Y-69781500D01*
X217795866Y-69781500D01*
X217733684Y-69788255D01*
X217597295Y-69839385D01*
X217480739Y-69926739D01*
X217393385Y-70043295D01*
X217342255Y-70179684D01*
X217335500Y-70241866D01*
X217335500Y-72038134D01*
X217342255Y-72100316D01*
X217393385Y-72236705D01*
X217480739Y-72353261D01*
X217597295Y-72440615D01*
X217605704Y-72443767D01*
X217605705Y-72443768D01*
X217714451Y-72484535D01*
X217771216Y-72527176D01*
X217795916Y-72593738D01*
X217780709Y-72663087D01*
X217761316Y-72689568D01*
X217634629Y-72822138D01*
X217631715Y-72826410D01*
X217631714Y-72826411D01*
X217546556Y-72951249D01*
X217508743Y-73006680D01*
X217414688Y-73209305D01*
X217354989Y-73424570D01*
X217331251Y-73646695D01*
X213301952Y-73646695D01*
X213284686Y-73449345D01*
X213229956Y-73245090D01*
X213140589Y-73053442D01*
X213019301Y-72880224D01*
X212869776Y-72730699D01*
X212696558Y-72609411D01*
X212691580Y-72607090D01*
X212691577Y-72607088D01*
X212509892Y-72522367D01*
X212509891Y-72522366D01*
X212504910Y-72520044D01*
X212499602Y-72518622D01*
X212499600Y-72518621D01*
X212305970Y-72466738D01*
X212305968Y-72466738D01*
X212300655Y-72465314D01*
X212090000Y-72446884D01*
X211879345Y-72465314D01*
X211874032Y-72466738D01*
X211874030Y-72466738D01*
X211680400Y-72518621D01*
X211680398Y-72518622D01*
X211675090Y-72520044D01*
X211670109Y-72522366D01*
X211670108Y-72522367D01*
X211488423Y-72607088D01*
X211488420Y-72607090D01*
X211483442Y-72609411D01*
X211310224Y-72730699D01*
X211160699Y-72880224D01*
X211039411Y-73053442D01*
X210950044Y-73245090D01*
X210895314Y-73449345D01*
X210876884Y-73660000D01*
X210255116Y-73660000D01*
X210236686Y-73449345D01*
X210181956Y-73245090D01*
X210092589Y-73053442D01*
X209971301Y-72880224D01*
X209821776Y-72730699D01*
X209648558Y-72609411D01*
X209643580Y-72607090D01*
X209643577Y-72607088D01*
X209461892Y-72522367D01*
X209461891Y-72522366D01*
X209456910Y-72520044D01*
X209451602Y-72518622D01*
X209451600Y-72518621D01*
X209257970Y-72466738D01*
X209257968Y-72466738D01*
X209252655Y-72465314D01*
X209042000Y-72446884D01*
X208831345Y-72465314D01*
X208826032Y-72466738D01*
X208826030Y-72466738D01*
X208632400Y-72518621D01*
X208632398Y-72518622D01*
X208627090Y-72520044D01*
X208622109Y-72522366D01*
X208622108Y-72522367D01*
X208440423Y-72607088D01*
X208440420Y-72607090D01*
X208435442Y-72609411D01*
X208262224Y-72730699D01*
X208112699Y-72880224D01*
X207991411Y-73053442D01*
X207902044Y-73245090D01*
X207847314Y-73449345D01*
X207828884Y-73660000D01*
X206881500Y-73660000D01*
X206881500Y-67250524D01*
X206901502Y-67182403D01*
X206913858Y-67166221D01*
X206987040Y-67084944D01*
X207082527Y-66919556D01*
X207141542Y-66737928D01*
X207161504Y-66548000D01*
X207141542Y-66358072D01*
X207082527Y-66176444D01*
X207003751Y-66040000D01*
X207828884Y-66040000D01*
X207847314Y-66250655D01*
X207902044Y-66454910D01*
X207904366Y-66459891D01*
X207904367Y-66459892D01*
X207945453Y-66548000D01*
X207991411Y-66646558D01*
X208112699Y-66819776D01*
X208262224Y-66969301D01*
X208435442Y-67090589D01*
X208440420Y-67092910D01*
X208440423Y-67092912D01*
X208597618Y-67166213D01*
X208627090Y-67179956D01*
X208632398Y-67181378D01*
X208632400Y-67181379D01*
X208826030Y-67233262D01*
X208826032Y-67233262D01*
X208831345Y-67234686D01*
X209042000Y-67253116D01*
X209252655Y-67234686D01*
X209257968Y-67233262D01*
X209257970Y-67233262D01*
X209451600Y-67181379D01*
X209451602Y-67181378D01*
X209456910Y-67179956D01*
X209486382Y-67166213D01*
X209643577Y-67092912D01*
X209643580Y-67092910D01*
X209648558Y-67090589D01*
X209821776Y-66969301D01*
X209971301Y-66819776D01*
X210092589Y-66646558D01*
X210138548Y-66548000D01*
X210179633Y-66459892D01*
X210179634Y-66459891D01*
X210181956Y-66454910D01*
X210236686Y-66250655D01*
X210255116Y-66040000D01*
X210876884Y-66040000D01*
X210895314Y-66250655D01*
X210950044Y-66454910D01*
X210952366Y-66459891D01*
X210952367Y-66459892D01*
X210993453Y-66548000D01*
X211039411Y-66646558D01*
X211160699Y-66819776D01*
X211310224Y-66969301D01*
X211483442Y-67090589D01*
X211488420Y-67092910D01*
X211488423Y-67092912D01*
X211645618Y-67166213D01*
X211675090Y-67179956D01*
X211680398Y-67181378D01*
X211680400Y-67181379D01*
X211874030Y-67233262D01*
X211874032Y-67233262D01*
X211879345Y-67234686D01*
X212090000Y-67253116D01*
X212300655Y-67234686D01*
X212305968Y-67233262D01*
X212305970Y-67233262D01*
X212499600Y-67181379D01*
X212499602Y-67181378D01*
X212504910Y-67179956D01*
X212534382Y-67166213D01*
X212691577Y-67092912D01*
X212691580Y-67092910D01*
X212696558Y-67090589D01*
X212869776Y-66969301D01*
X213019301Y-66819776D01*
X213140589Y-66646558D01*
X213186548Y-66548000D01*
X213227633Y-66459892D01*
X213227634Y-66459891D01*
X213229956Y-66454910D01*
X213284686Y-66250655D01*
X213303116Y-66040000D01*
X213284686Y-65829345D01*
X213282144Y-65819857D01*
X213231379Y-65630400D01*
X213231378Y-65630398D01*
X213229956Y-65625090D01*
X213227633Y-65620108D01*
X213142912Y-65438423D01*
X213142910Y-65438420D01*
X213140589Y-65433442D01*
X213019301Y-65260224D01*
X212869776Y-65110699D01*
X212696558Y-64989411D01*
X212691580Y-64987090D01*
X212691577Y-64987088D01*
X212509892Y-64902367D01*
X212509891Y-64902366D01*
X212504910Y-64900044D01*
X212499602Y-64898622D01*
X212499600Y-64898621D01*
X212305970Y-64846738D01*
X212305968Y-64846738D01*
X212300655Y-64845314D01*
X212090000Y-64826884D01*
X211879345Y-64845314D01*
X211874032Y-64846738D01*
X211874030Y-64846738D01*
X211680400Y-64898621D01*
X211680398Y-64898622D01*
X211675090Y-64900044D01*
X211670109Y-64902366D01*
X211670108Y-64902367D01*
X211488423Y-64987088D01*
X211488420Y-64987090D01*
X211483442Y-64989411D01*
X211310224Y-65110699D01*
X211160699Y-65260224D01*
X211039411Y-65433442D01*
X211037090Y-65438420D01*
X211037088Y-65438423D01*
X210952367Y-65620108D01*
X210950044Y-65625090D01*
X210948622Y-65630398D01*
X210948621Y-65630400D01*
X210897856Y-65819857D01*
X210895314Y-65829345D01*
X210876884Y-66040000D01*
X210255116Y-66040000D01*
X210236686Y-65829345D01*
X210234144Y-65819857D01*
X210183379Y-65630400D01*
X210183378Y-65630398D01*
X210181956Y-65625090D01*
X210179633Y-65620108D01*
X210094912Y-65438423D01*
X210094910Y-65438420D01*
X210092589Y-65433442D01*
X209971301Y-65260224D01*
X209821776Y-65110699D01*
X209648558Y-64989411D01*
X209643580Y-64987090D01*
X209643577Y-64987088D01*
X209461892Y-64902367D01*
X209461891Y-64902366D01*
X209456910Y-64900044D01*
X209451602Y-64898622D01*
X209451600Y-64898621D01*
X209257970Y-64846738D01*
X209257968Y-64846738D01*
X209252655Y-64845314D01*
X209042000Y-64826884D01*
X208831345Y-64845314D01*
X208826032Y-64846738D01*
X208826030Y-64846738D01*
X208632400Y-64898621D01*
X208632398Y-64898622D01*
X208627090Y-64900044D01*
X208622109Y-64902366D01*
X208622108Y-64902367D01*
X208440423Y-64987088D01*
X208440420Y-64987090D01*
X208435442Y-64989411D01*
X208262224Y-65110699D01*
X208112699Y-65260224D01*
X207991411Y-65433442D01*
X207989090Y-65438420D01*
X207989088Y-65438423D01*
X207904367Y-65620108D01*
X207902044Y-65625090D01*
X207900622Y-65630398D01*
X207900621Y-65630400D01*
X207849856Y-65819857D01*
X207847314Y-65829345D01*
X207828884Y-66040000D01*
X207003751Y-66040000D01*
X206987040Y-66011056D01*
X206859253Y-65869134D01*
X206704752Y-65756882D01*
X206698724Y-65754198D01*
X206698722Y-65754197D01*
X206536319Y-65681891D01*
X206536318Y-65681891D01*
X206530288Y-65679206D01*
X206417721Y-65655279D01*
X206349944Y-65640872D01*
X206349939Y-65640872D01*
X206343487Y-65639500D01*
X206152513Y-65639500D01*
X206146061Y-65640872D01*
X206146056Y-65640872D01*
X206078279Y-65655279D01*
X205965712Y-65679206D01*
X205959682Y-65681891D01*
X205959681Y-65681891D01*
X205797278Y-65754197D01*
X205797276Y-65754198D01*
X205791248Y-65756882D01*
X205636747Y-65869134D01*
X205508960Y-66011056D01*
X205413473Y-66176444D01*
X205354458Y-66358072D01*
X205334496Y-66548000D01*
X205354458Y-66737928D01*
X205413473Y-66919556D01*
X205508960Y-67084944D01*
X205582137Y-67166215D01*
X205612853Y-67230221D01*
X205614500Y-67250524D01*
X205614500Y-81911204D01*
X205594498Y-81979325D01*
X205540842Y-82025818D01*
X205470568Y-82035922D01*
X205412935Y-82012030D01*
X205369892Y-81979771D01*
X205369890Y-81979770D01*
X205362705Y-81974385D01*
X205226316Y-81923255D01*
X205164134Y-81916500D01*
X203367866Y-81916500D01*
X203305684Y-81923255D01*
X203169295Y-81974385D01*
X203052739Y-82061739D01*
X202965385Y-82178295D01*
X202962233Y-82186703D01*
X202920919Y-82296907D01*
X202878277Y-82353671D01*
X202811716Y-82378371D01*
X202742367Y-82363163D01*
X202709743Y-82337476D01*
X202659151Y-82281875D01*
X202659142Y-82281866D01*
X202655670Y-82278051D01*
X202651619Y-82274852D01*
X202651615Y-82274848D01*
X202484414Y-82142800D01*
X202484410Y-82142798D01*
X202480359Y-82139598D01*
X202475835Y-82137101D01*
X202475831Y-82137098D01*
X202424608Y-82108822D01*
X202374636Y-82058390D01*
X202359500Y-81998513D01*
X202359500Y-74966323D01*
X202379502Y-74898202D01*
X202433158Y-74851709D01*
X202503432Y-74841605D01*
X202561065Y-74865497D01*
X202616084Y-74906731D01*
X202661295Y-74940615D01*
X202797684Y-74991745D01*
X202859866Y-74998500D01*
X204656134Y-74998500D01*
X204718316Y-74991745D01*
X204854705Y-74940615D01*
X204971261Y-74853261D01*
X205058615Y-74736705D01*
X205109745Y-74600316D01*
X205116500Y-74538134D01*
X205116500Y-72741866D01*
X205109745Y-72679684D01*
X205058615Y-72543295D01*
X204971261Y-72426739D01*
X204854705Y-72339385D01*
X204735687Y-72294767D01*
X204678923Y-72252125D01*
X204654223Y-72185564D01*
X204669430Y-72116215D01*
X204690977Y-72087535D01*
X204792052Y-71986812D01*
X204798730Y-71978965D01*
X204923003Y-71806020D01*
X204928313Y-71797183D01*
X205022670Y-71606267D01*
X205026469Y-71596672D01*
X205088377Y-71392910D01*
X205090555Y-71382837D01*
X205091986Y-71371962D01*
X205089775Y-71357778D01*
X205076617Y-71354000D01*
X203630000Y-71354000D01*
X203561879Y-71333998D01*
X203515386Y-71280342D01*
X203504000Y-71228000D01*
X203504000Y-70827885D01*
X204012000Y-70827885D01*
X204016475Y-70843124D01*
X204017865Y-70844329D01*
X204025548Y-70846000D01*
X205076344Y-70846000D01*
X205089875Y-70842027D01*
X205091180Y-70832947D01*
X205049214Y-70665875D01*
X205045894Y-70656124D01*
X204960972Y-70460814D01*
X204956105Y-70451739D01*
X204840426Y-70272926D01*
X204834136Y-70264757D01*
X204690806Y-70107240D01*
X204683273Y-70100215D01*
X204516139Y-69968222D01*
X204507552Y-69962517D01*
X204321117Y-69859599D01*
X204311705Y-69855369D01*
X204110959Y-69784280D01*
X204100988Y-69781646D01*
X204029837Y-69768972D01*
X204016540Y-69770432D01*
X204012000Y-69784989D01*
X204012000Y-70827885D01*
X203504000Y-70827885D01*
X203504000Y-69783102D01*
X203500082Y-69769758D01*
X203485806Y-69767771D01*
X203447324Y-69773660D01*
X203437288Y-69776051D01*
X203234868Y-69842212D01*
X203225359Y-69846209D01*
X203036463Y-69944542D01*
X203027738Y-69950036D01*
X202857433Y-70077905D01*
X202849726Y-70084748D01*
X202702590Y-70238717D01*
X202696109Y-70246722D01*
X202589588Y-70402874D01*
X202534677Y-70447876D01*
X202464152Y-70456047D01*
X202400405Y-70424793D01*
X202363675Y-70364036D01*
X202359500Y-70331869D01*
X202359500Y-65924994D01*
X202379502Y-65856873D01*
X202391865Y-65840683D01*
X202410617Y-65819857D01*
X202410621Y-65819852D01*
X202415040Y-65814944D01*
X202430027Y-65788987D01*
X202507223Y-65655279D01*
X202507224Y-65655278D01*
X202510527Y-65649556D01*
X202569542Y-65467928D01*
X202589504Y-65278000D01*
X202576671Y-65155899D01*
X202570232Y-65094635D01*
X202570232Y-65094633D01*
X202569542Y-65088072D01*
X202510527Y-64906444D01*
X202506011Y-64898621D01*
X202418341Y-64746774D01*
X202415040Y-64741056D01*
X202407190Y-64732337D01*
X202291675Y-64604045D01*
X202291674Y-64604044D01*
X202287253Y-64599134D01*
X202132752Y-64486882D01*
X202126724Y-64484198D01*
X202126722Y-64484197D01*
X201964319Y-64411891D01*
X201964318Y-64411891D01*
X201958288Y-64409206D01*
X201864888Y-64389353D01*
X201777944Y-64370872D01*
X201777939Y-64370872D01*
X201771487Y-64369500D01*
X201580513Y-64369500D01*
X201574061Y-64370872D01*
X201574056Y-64370872D01*
X201487112Y-64389353D01*
X201393712Y-64409206D01*
X201387682Y-64411891D01*
X201387681Y-64411891D01*
X201225278Y-64484197D01*
X201225276Y-64484198D01*
X201219248Y-64486882D01*
X201213907Y-64490762D01*
X201213906Y-64490763D01*
X201065515Y-64598576D01*
X201059450Y-64600740D01*
X201045228Y-64620812D01*
X200944811Y-64732337D01*
X200936960Y-64741056D01*
X200933659Y-64746774D01*
X200845990Y-64898621D01*
X200841473Y-64906444D01*
X200782458Y-65088072D01*
X200781768Y-65094633D01*
X200781768Y-65094635D01*
X200775329Y-65155899D01*
X200762496Y-65278000D01*
X200782458Y-65467928D01*
X200841473Y-65649556D01*
X200936960Y-65814944D01*
X200941378Y-65819851D01*
X200941379Y-65819852D01*
X201060136Y-65951745D01*
X201090854Y-66015752D01*
X201092500Y-66036055D01*
X201092500Y-81996692D01*
X201072498Y-82064813D01*
X201024683Y-82108453D01*
X200999607Y-82121507D01*
X200995474Y-82124610D01*
X200995471Y-82124612D01*
X200825100Y-82252530D01*
X200820965Y-82255635D01*
X200795541Y-82282240D01*
X200727280Y-82353671D01*
X200666629Y-82417138D01*
X200559201Y-82574621D01*
X200504293Y-82619621D01*
X200433768Y-82627792D01*
X200370021Y-82596538D01*
X200349324Y-82572054D01*
X200268822Y-82447617D01*
X200268820Y-82447614D01*
X200266014Y-82443277D01*
X200115670Y-82278051D01*
X200111619Y-82274852D01*
X200111615Y-82274848D01*
X199944414Y-82142800D01*
X199944410Y-82142798D01*
X199940359Y-82139598D01*
X199935835Y-82137101D01*
X199935831Y-82137098D01*
X199884608Y-82108822D01*
X199834636Y-82058390D01*
X199819500Y-81998513D01*
X199819500Y-65542594D01*
X199839502Y-65474473D01*
X199856405Y-65453499D01*
X200862497Y-64447407D01*
X200885851Y-64434654D01*
X200891674Y-64419699D01*
X200902359Y-64407545D01*
X203279904Y-62030000D01*
X217096502Y-62030000D01*
X217116457Y-62258087D01*
X217175716Y-62479243D01*
X217178039Y-62484224D01*
X217178039Y-62484225D01*
X217270151Y-62681762D01*
X217270154Y-62681767D01*
X217272477Y-62686749D01*
X217403802Y-62874300D01*
X217565700Y-63036198D01*
X217570208Y-63039355D01*
X217570211Y-63039357D01*
X217648389Y-63094098D01*
X217753251Y-63167523D01*
X217758233Y-63169846D01*
X217758238Y-63169849D01*
X217955775Y-63261961D01*
X217960757Y-63264284D01*
X217966065Y-63265706D01*
X217966067Y-63265707D01*
X218176598Y-63322119D01*
X218176600Y-63322119D01*
X218181913Y-63323543D01*
X218281480Y-63332254D01*
X218350149Y-63338262D01*
X218350156Y-63338262D01*
X218352873Y-63338500D01*
X218867127Y-63338500D01*
X218869844Y-63338262D01*
X218869851Y-63338262D01*
X218938520Y-63332254D01*
X219038087Y-63323543D01*
X219043400Y-63322119D01*
X219043402Y-63322119D01*
X219253933Y-63265707D01*
X219253935Y-63265706D01*
X219259243Y-63264284D01*
X219264225Y-63261961D01*
X219461762Y-63169849D01*
X219461767Y-63169846D01*
X219466749Y-63167523D01*
X219571611Y-63094098D01*
X219649789Y-63039357D01*
X219649792Y-63039355D01*
X219654300Y-63036198D01*
X219816198Y-62874300D01*
X219947523Y-62686749D01*
X219949846Y-62681767D01*
X219949849Y-62681762D01*
X220041961Y-62484225D01*
X220041961Y-62484224D01*
X220044284Y-62479243D01*
X220103543Y-62258087D01*
X220123498Y-62030000D01*
X220103543Y-61801913D01*
X220058685Y-61634502D01*
X220045707Y-61586067D01*
X220045706Y-61586065D01*
X220044284Y-61580757D01*
X220041961Y-61575775D01*
X219949849Y-61378238D01*
X219949846Y-61378233D01*
X219947523Y-61373251D01*
X219874098Y-61268389D01*
X219819357Y-61190211D01*
X219819355Y-61190208D01*
X219816198Y-61185700D01*
X219654300Y-61023802D01*
X219649792Y-61020645D01*
X219649789Y-61020643D01*
X219480643Y-60902206D01*
X219466749Y-60892477D01*
X219461767Y-60890154D01*
X219461762Y-60890151D01*
X219426951Y-60873919D01*
X219373666Y-60827002D01*
X219354205Y-60758725D01*
X219374747Y-60690765D01*
X219426951Y-60645529D01*
X219461511Y-60629414D01*
X219471007Y-60623931D01*
X219649467Y-60498972D01*
X219657875Y-60491916D01*
X219811916Y-60337875D01*
X219818972Y-60329467D01*
X219943931Y-60151007D01*
X219949414Y-60141511D01*
X220041490Y-59944053D01*
X220045236Y-59933761D01*
X220091394Y-59761497D01*
X220091058Y-59747401D01*
X220083116Y-59744000D01*
X217142033Y-59744000D01*
X217128502Y-59747973D01*
X217127273Y-59756522D01*
X217174764Y-59933761D01*
X217178510Y-59944053D01*
X217270586Y-60141511D01*
X217276069Y-60151007D01*
X217401028Y-60329467D01*
X217408084Y-60337875D01*
X217562125Y-60491916D01*
X217570533Y-60498972D01*
X217748993Y-60623931D01*
X217758489Y-60629414D01*
X217793049Y-60645529D01*
X217846334Y-60692446D01*
X217865795Y-60760723D01*
X217845253Y-60828683D01*
X217793049Y-60873919D01*
X217758238Y-60890151D01*
X217758233Y-60890154D01*
X217753251Y-60892477D01*
X217739357Y-60902206D01*
X217570211Y-61020643D01*
X217570208Y-61020645D01*
X217565700Y-61023802D01*
X217403802Y-61185700D01*
X217400645Y-61190208D01*
X217400643Y-61190211D01*
X217345902Y-61268389D01*
X217272477Y-61373251D01*
X217270154Y-61378233D01*
X217270151Y-61378238D01*
X217178039Y-61575775D01*
X217175716Y-61580757D01*
X217174294Y-61586065D01*
X217174293Y-61586067D01*
X217161315Y-61634502D01*
X217116457Y-61801913D01*
X217096502Y-62030000D01*
X203279904Y-62030000D01*
X206471416Y-58838489D01*
X212769500Y-52540405D01*
X212831812Y-52506379D01*
X212858595Y-52503500D01*
X217190606Y-52503500D01*
X217258727Y-52523502D01*
X217293819Y-52557229D01*
X217403802Y-52714300D01*
X217565700Y-52876198D01*
X217570208Y-52879355D01*
X217570211Y-52879357D01*
X217604935Y-52903671D01*
X217753251Y-53007523D01*
X217758233Y-53009846D01*
X217758238Y-53009849D01*
X217792457Y-53025805D01*
X217845742Y-53072722D01*
X217865203Y-53140999D01*
X217844661Y-53208959D01*
X217792457Y-53254195D01*
X217758238Y-53270151D01*
X217758233Y-53270154D01*
X217753251Y-53272477D01*
X217667334Y-53332637D01*
X217570211Y-53400643D01*
X217570208Y-53400645D01*
X217565700Y-53403802D01*
X217403802Y-53565700D01*
X217272477Y-53753251D01*
X217270154Y-53758233D01*
X217270151Y-53758238D01*
X217178039Y-53955775D01*
X217175716Y-53960757D01*
X217116457Y-54181913D01*
X217096502Y-54410000D01*
X217116457Y-54638087D01*
X217175716Y-54859243D01*
X217178039Y-54864224D01*
X217178039Y-54864225D01*
X217270151Y-55061762D01*
X217270154Y-55061767D01*
X217272477Y-55066749D01*
X217403802Y-55254300D01*
X217565700Y-55416198D01*
X217570208Y-55419355D01*
X217570211Y-55419357D01*
X217648389Y-55474098D01*
X217753251Y-55547523D01*
X217758233Y-55549846D01*
X217758238Y-55549849D01*
X217792457Y-55565805D01*
X217845742Y-55612722D01*
X217865203Y-55680999D01*
X217844661Y-55748959D01*
X217792457Y-55794195D01*
X217758238Y-55810151D01*
X217758233Y-55810154D01*
X217753251Y-55812477D01*
X217648389Y-55885902D01*
X217570211Y-55940643D01*
X217570208Y-55940645D01*
X217565700Y-55943802D01*
X217403802Y-56105700D01*
X217272477Y-56293251D01*
X217270154Y-56298233D01*
X217270151Y-56298238D01*
X217178039Y-56495775D01*
X217175716Y-56500757D01*
X217116457Y-56721913D01*
X217096502Y-56950000D01*
X217116457Y-57178087D01*
X217175716Y-57399243D01*
X217178039Y-57404224D01*
X217178039Y-57404225D01*
X217270151Y-57601762D01*
X217270154Y-57601767D01*
X217272477Y-57606749D01*
X217403802Y-57794300D01*
X217565700Y-57956198D01*
X217570208Y-57959355D01*
X217570211Y-57959357D01*
X217648389Y-58014098D01*
X217753251Y-58087523D01*
X217758233Y-58089846D01*
X217758238Y-58089849D01*
X217793049Y-58106081D01*
X217846334Y-58152998D01*
X217865795Y-58221275D01*
X217845253Y-58289235D01*
X217793049Y-58334471D01*
X217758489Y-58350586D01*
X217748993Y-58356069D01*
X217570533Y-58481028D01*
X217562125Y-58488084D01*
X217408084Y-58642125D01*
X217401028Y-58650533D01*
X217276069Y-58828993D01*
X217270586Y-58838489D01*
X217178510Y-59035947D01*
X217174764Y-59046239D01*
X217128606Y-59218503D01*
X217128942Y-59232599D01*
X217136884Y-59236000D01*
X220077967Y-59236000D01*
X220091498Y-59232027D01*
X220092727Y-59223478D01*
X220045236Y-59046239D01*
X220041490Y-59035947D01*
X219949414Y-58838489D01*
X219943931Y-58828993D01*
X219818972Y-58650533D01*
X219811916Y-58642125D01*
X219657875Y-58488084D01*
X219649467Y-58481028D01*
X219471007Y-58356069D01*
X219461511Y-58350586D01*
X219426951Y-58334471D01*
X219373666Y-58287554D01*
X219354205Y-58219277D01*
X219374747Y-58151317D01*
X219426951Y-58106081D01*
X219461762Y-58089849D01*
X219461767Y-58089846D01*
X219466749Y-58087523D01*
X219571611Y-58014098D01*
X219649789Y-57959357D01*
X219649792Y-57959355D01*
X219654300Y-57956198D01*
X219816198Y-57794300D01*
X219947523Y-57606749D01*
X219949846Y-57601767D01*
X219949849Y-57601762D01*
X220041961Y-57404225D01*
X220041961Y-57404224D01*
X220044284Y-57399243D01*
X220103543Y-57178087D01*
X220123498Y-56950000D01*
X220103543Y-56721913D01*
X220044284Y-56500757D01*
X220041961Y-56495775D01*
X219949849Y-56298238D01*
X219949846Y-56298233D01*
X219947523Y-56293251D01*
X219816198Y-56105700D01*
X219654300Y-55943802D01*
X219649792Y-55940645D01*
X219649789Y-55940643D01*
X219571611Y-55885902D01*
X219466749Y-55812477D01*
X219461767Y-55810154D01*
X219461762Y-55810151D01*
X219427543Y-55794195D01*
X219374258Y-55747278D01*
X219354797Y-55679001D01*
X219375339Y-55611041D01*
X219427543Y-55565805D01*
X219461762Y-55549849D01*
X219461767Y-55549846D01*
X219466749Y-55547523D01*
X219571611Y-55474098D01*
X219649789Y-55419357D01*
X219649792Y-55419355D01*
X219654300Y-55416198D01*
X219816198Y-55254300D01*
X219947523Y-55066749D01*
X219949846Y-55061767D01*
X219949849Y-55061762D01*
X220041961Y-54864225D01*
X220041961Y-54864224D01*
X220044284Y-54859243D01*
X220103543Y-54638087D01*
X220123498Y-54410000D01*
X220103543Y-54181913D01*
X220044284Y-53960757D01*
X220041961Y-53955775D01*
X219949849Y-53758238D01*
X219949846Y-53758233D01*
X219947523Y-53753251D01*
X219816198Y-53565700D01*
X219654300Y-53403802D01*
X219649792Y-53400645D01*
X219649789Y-53400643D01*
X219552666Y-53332637D01*
X219466749Y-53272477D01*
X219461767Y-53270154D01*
X219461762Y-53270151D01*
X219427543Y-53254195D01*
X219374258Y-53207278D01*
X219354797Y-53139001D01*
X219375339Y-53071041D01*
X219427543Y-53025805D01*
X219461762Y-53009849D01*
X219461767Y-53009846D01*
X219466749Y-53007523D01*
X219615065Y-52903671D01*
X219649789Y-52879357D01*
X219649792Y-52879355D01*
X219654300Y-52876198D01*
X219816198Y-52714300D01*
X219947523Y-52526749D01*
X219949846Y-52521767D01*
X219949849Y-52521762D01*
X220041961Y-52324225D01*
X220041961Y-52324224D01*
X220044284Y-52319243D01*
X220096205Y-52125475D01*
X220102119Y-52103402D01*
X220102119Y-52103400D01*
X220103543Y-52098087D01*
X220123498Y-51870000D01*
X220103543Y-51641913D01*
X220067912Y-51508937D01*
X220045707Y-51426067D01*
X220045706Y-51426065D01*
X220044284Y-51420757D01*
X220036716Y-51404528D01*
X219949849Y-51218238D01*
X219949846Y-51218233D01*
X219947523Y-51213251D01*
X219816198Y-51025700D01*
X219654300Y-50863802D01*
X219649792Y-50860645D01*
X219649789Y-50860643D01*
X219571611Y-50805902D01*
X219466749Y-50732477D01*
X219461767Y-50730154D01*
X219461762Y-50730151D01*
X219427543Y-50714195D01*
X219374258Y-50667278D01*
X219354797Y-50599001D01*
X219375339Y-50531041D01*
X219427543Y-50485805D01*
X219461762Y-50469849D01*
X219461767Y-50469846D01*
X219466749Y-50467523D01*
X219571611Y-50394098D01*
X219649789Y-50339357D01*
X219649792Y-50339355D01*
X219654300Y-50336198D01*
X219816198Y-50174300D01*
X219947523Y-49986749D01*
X219949846Y-49981767D01*
X219949849Y-49981762D01*
X220041961Y-49784225D01*
X220041961Y-49784224D01*
X220044284Y-49779243D01*
X220103543Y-49558087D01*
X220123498Y-49330000D01*
X220103543Y-49101913D01*
X220044284Y-48880757D01*
X220034544Y-48859870D01*
X219949849Y-48678238D01*
X219949846Y-48678233D01*
X219947523Y-48673251D01*
X219816198Y-48485700D01*
X219654300Y-48323802D01*
X219649792Y-48320645D01*
X219649789Y-48320643D01*
X219571611Y-48265902D01*
X219466749Y-48192477D01*
X219461767Y-48190154D01*
X219461762Y-48190151D01*
X219427543Y-48174195D01*
X219374258Y-48127278D01*
X219354797Y-48059001D01*
X219375339Y-47991041D01*
X219427543Y-47945805D01*
X219461762Y-47929849D01*
X219461767Y-47929846D01*
X219466749Y-47927523D01*
X219571611Y-47854098D01*
X219649789Y-47799357D01*
X219649792Y-47799355D01*
X219654300Y-47796198D01*
X219816198Y-47634300D01*
X219947523Y-47446749D01*
X219949846Y-47441767D01*
X219949849Y-47441762D01*
X220041961Y-47244225D01*
X220041961Y-47244224D01*
X220044284Y-47239243D01*
X220103543Y-47018087D01*
X220123498Y-46790000D01*
X220103543Y-46561913D01*
X220044284Y-46340757D01*
X220041961Y-46335775D01*
X219949849Y-46138238D01*
X219949846Y-46138233D01*
X219947523Y-46133251D01*
X219816198Y-45945700D01*
X219654300Y-45783802D01*
X219649792Y-45780645D01*
X219649789Y-45780643D01*
X219527805Y-45695229D01*
X219466749Y-45652477D01*
X219461767Y-45650154D01*
X219461762Y-45650151D01*
X219427543Y-45634195D01*
X219374258Y-45587278D01*
X219354797Y-45519001D01*
X219375339Y-45451041D01*
X219427543Y-45405805D01*
X219461762Y-45389849D01*
X219461767Y-45389846D01*
X219466749Y-45387523D01*
X219589558Y-45301531D01*
X219649789Y-45259357D01*
X219649792Y-45259355D01*
X219654300Y-45256198D01*
X219816198Y-45094300D01*
X219947523Y-44906749D01*
X219949846Y-44901767D01*
X219949849Y-44901762D01*
X220041961Y-44704225D01*
X220041961Y-44704224D01*
X220044284Y-44699243D01*
X220096205Y-44505475D01*
X220102119Y-44483402D01*
X220102119Y-44483400D01*
X220103543Y-44478087D01*
X220123498Y-44250000D01*
X220103543Y-44021913D01*
X220044284Y-43800757D01*
X220004915Y-43716329D01*
X219949849Y-43598238D01*
X219949846Y-43598233D01*
X219947523Y-43593251D01*
X219816198Y-43405700D01*
X219654300Y-43243802D01*
X219649792Y-43240645D01*
X219649789Y-43240643D01*
X219645604Y-43237713D01*
X219601276Y-43182256D01*
X219593967Y-43111637D01*
X219625998Y-43048276D01*
X219687199Y-43012291D01*
X219717875Y-43008500D01*
X221365500Y-43008500D01*
X221433621Y-43028502D01*
X221480114Y-43082158D01*
X221491500Y-43134500D01*
X221491500Y-101865500D01*
X221471498Y-101933621D01*
X221417842Y-101980114D01*
X221365500Y-101991500D01*
X192634500Y-101991500D01*
X192566379Y-101971498D01*
X192519886Y-101917842D01*
X192508500Y-101865500D01*
X192508500Y-98298000D01*
X210876884Y-98298000D01*
X210895314Y-98508655D01*
X210950044Y-98712910D01*
X211039411Y-98904558D01*
X211160699Y-99077776D01*
X211310224Y-99227301D01*
X211483442Y-99348589D01*
X211488420Y-99350910D01*
X211488423Y-99350912D01*
X211670108Y-99435633D01*
X211675090Y-99437956D01*
X211680398Y-99439378D01*
X211680400Y-99439379D01*
X211874030Y-99491262D01*
X211874032Y-99491262D01*
X211879345Y-99492686D01*
X212090000Y-99511116D01*
X212300655Y-99492686D01*
X212305968Y-99491262D01*
X212305970Y-99491262D01*
X212499600Y-99439379D01*
X212499602Y-99439378D01*
X212504910Y-99437956D01*
X212509892Y-99435633D01*
X212691577Y-99350912D01*
X212691580Y-99350910D01*
X212696558Y-99348589D01*
X212869776Y-99227301D01*
X213019301Y-99077776D01*
X213140589Y-98904558D01*
X213229956Y-98712910D01*
X213284686Y-98508655D01*
X213303116Y-98298000D01*
X213284686Y-98087345D01*
X213229956Y-97883090D01*
X213140589Y-97691442D01*
X213019301Y-97518224D01*
X212869776Y-97368699D01*
X212696558Y-97247411D01*
X212691580Y-97245090D01*
X212691577Y-97245088D01*
X212509892Y-97160367D01*
X212509891Y-97160366D01*
X212504910Y-97158044D01*
X212499602Y-97156622D01*
X212499600Y-97156621D01*
X212305970Y-97104738D01*
X212305968Y-97104738D01*
X212300655Y-97103314D01*
X212090000Y-97084884D01*
X211879345Y-97103314D01*
X211874032Y-97104738D01*
X211874030Y-97104738D01*
X211680400Y-97156621D01*
X211680398Y-97156622D01*
X211675090Y-97158044D01*
X211670109Y-97160366D01*
X211670108Y-97160367D01*
X211488423Y-97245088D01*
X211488420Y-97245090D01*
X211483442Y-97247411D01*
X211310224Y-97368699D01*
X211160699Y-97518224D01*
X211039411Y-97691442D01*
X210950044Y-97883090D01*
X210895314Y-98087345D01*
X210876884Y-98298000D01*
X192508500Y-98298000D01*
X192508500Y-94480750D01*
X217578524Y-94480750D01*
X217596894Y-94682596D01*
X217654119Y-94877029D01*
X217656972Y-94882486D01*
X217656973Y-94882489D01*
X217661127Y-94890435D01*
X217748019Y-95056645D01*
X217751879Y-95061445D01*
X217751879Y-95061446D01*
X217757729Y-95068722D01*
X217875019Y-95214601D01*
X218030281Y-95344881D01*
X218035673Y-95347845D01*
X218035677Y-95347848D01*
X218202494Y-95439556D01*
X218207891Y-95442523D01*
X218401084Y-95503807D01*
X218407201Y-95504493D01*
X218407205Y-95504494D01*
X218481348Y-95512810D01*
X218558817Y-95521500D01*
X219118004Y-95521500D01*
X219268713Y-95506723D01*
X219462742Y-95448142D01*
X219641698Y-95352990D01*
X219798763Y-95224890D01*
X219811246Y-95209801D01*
X219924027Y-95073472D01*
X219924029Y-95073469D01*
X219927956Y-95068722D01*
X220024356Y-94890435D01*
X220084290Y-94696820D01*
X220105476Y-94495250D01*
X220087106Y-94293404D01*
X220029881Y-94098971D01*
X220025951Y-94091452D01*
X219938835Y-93924815D01*
X219935981Y-93919355D01*
X219936016Y-93919337D01*
X219916111Y-93853559D01*
X219931271Y-93792591D01*
X220021426Y-93625853D01*
X220024356Y-93620435D01*
X220084290Y-93426820D01*
X220105476Y-93225250D01*
X220087106Y-93023404D01*
X220081188Y-93003294D01*
X220031620Y-92834881D01*
X220029881Y-92828971D01*
X220030559Y-92828771D01*
X220024044Y-92762727D01*
X220037320Y-92725677D01*
X220045321Y-92711063D01*
X220090478Y-92590606D01*
X220094105Y-92575351D01*
X220099631Y-92524486D01*
X220100000Y-92517672D01*
X220100000Y-92220115D01*
X220095525Y-92204876D01*
X220094135Y-92203671D01*
X220086452Y-92202000D01*
X219288242Y-92202000D01*
X219274197Y-92201215D01*
X219259799Y-92199600D01*
X219125183Y-92184500D01*
X218565996Y-92184500D01*
X218415287Y-92199277D01*
X218412998Y-92199968D01*
X218392276Y-92202000D01*
X217602116Y-92202000D01*
X217586877Y-92206475D01*
X217585672Y-92207865D01*
X217584001Y-92215548D01*
X217584001Y-92517669D01*
X217584371Y-92524490D01*
X217589895Y-92575352D01*
X217593521Y-92590604D01*
X217638677Y-92711056D01*
X217647114Y-92726466D01*
X217662284Y-92795823D01*
X217656960Y-92824235D01*
X217599710Y-93009180D01*
X217578524Y-93210750D01*
X217596894Y-93412596D01*
X217654119Y-93607029D01*
X217656972Y-93612486D01*
X217656973Y-93612489D01*
X217661127Y-93620435D01*
X217747923Y-93786460D01*
X217747923Y-93786462D01*
X217748019Y-93786645D01*
X217747984Y-93786663D01*
X217767889Y-93852441D01*
X217752729Y-93913409D01*
X217659644Y-94085565D01*
X217599710Y-94279180D01*
X217578524Y-94480750D01*
X192508500Y-94480750D01*
X192508500Y-83542966D01*
X195314257Y-83542966D01*
X195344565Y-83677446D01*
X195347645Y-83687275D01*
X195427770Y-83884603D01*
X195432413Y-83893794D01*
X195543694Y-84075388D01*
X195549777Y-84083699D01*
X195689213Y-84244667D01*
X195696580Y-84251883D01*
X195860434Y-84387916D01*
X195868881Y-84393831D01*
X196052756Y-84501279D01*
X196062042Y-84505729D01*
X196261001Y-84581703D01*
X196270899Y-84584579D01*
X196374250Y-84605606D01*
X196388299Y-84604410D01*
X196392000Y-84594065D01*
X196392000Y-83547115D01*
X196387525Y-83531876D01*
X196386135Y-83530671D01*
X196378452Y-83529000D01*
X195329225Y-83529000D01*
X195315694Y-83532973D01*
X195314257Y-83542966D01*
X192508500Y-83542966D01*
X192508500Y-83009183D01*
X195310389Y-83009183D01*
X195311912Y-83017607D01*
X195324292Y-83021000D01*
X196373885Y-83021000D01*
X196389124Y-83016525D01*
X196390329Y-83015135D01*
X196392000Y-83007452D01*
X196392000Y-81958102D01*
X196388082Y-81944758D01*
X196373806Y-81942771D01*
X196335324Y-81948660D01*
X196325288Y-81951051D01*
X196122868Y-82017212D01*
X196113359Y-82021209D01*
X195924463Y-82119542D01*
X195915738Y-82125036D01*
X195745433Y-82252905D01*
X195737726Y-82259748D01*
X195590590Y-82413717D01*
X195584104Y-82421727D01*
X195464098Y-82597649D01*
X195459000Y-82606623D01*
X195369338Y-82799783D01*
X195365775Y-82809470D01*
X195310389Y-83009183D01*
X192508500Y-83009183D01*
X192508500Y-43134500D01*
X192528502Y-43066379D01*
X192582158Y-43019886D01*
X192634500Y-43008500D01*
X194122077Y-43008500D01*
X194190198Y-43028502D01*
G37*
%TD.AperFunction*%
%TA.AperFunction,Conductor*%
G36*
X217258727Y-49983502D02*
G01*
X217293819Y-50017229D01*
X217403802Y-50174300D01*
X217565700Y-50336198D01*
X217570208Y-50339355D01*
X217570211Y-50339357D01*
X217648389Y-50394098D01*
X217753251Y-50467523D01*
X217758233Y-50469846D01*
X217758238Y-50469849D01*
X217792457Y-50485805D01*
X217845742Y-50532722D01*
X217865203Y-50600999D01*
X217844661Y-50668959D01*
X217792457Y-50714195D01*
X217758238Y-50730151D01*
X217758233Y-50730154D01*
X217753251Y-50732477D01*
X217648389Y-50805902D01*
X217570211Y-50860643D01*
X217570208Y-50860645D01*
X217565700Y-50863802D01*
X217403802Y-51025700D01*
X217400645Y-51030208D01*
X217400643Y-51030211D01*
X217293819Y-51182771D01*
X217238362Y-51227099D01*
X217190606Y-51236500D01*
X212622768Y-51236500D01*
X212611585Y-51235973D01*
X212604092Y-51234298D01*
X212596166Y-51234547D01*
X212596165Y-51234547D01*
X212536002Y-51236438D01*
X212532044Y-51236500D01*
X212504144Y-51236500D01*
X212500154Y-51237004D01*
X212488320Y-51237936D01*
X212444111Y-51239326D01*
X212436497Y-51241538D01*
X212436492Y-51241539D01*
X212424659Y-51244977D01*
X212405296Y-51248988D01*
X212385203Y-51251526D01*
X212356894Y-51262734D01*
X212286194Y-51269212D01*
X212223215Y-51236438D01*
X212187952Y-51174818D01*
X212191601Y-51103915D01*
X212221418Y-51056486D01*
X213277499Y-50000405D01*
X213339811Y-49966379D01*
X213366594Y-49963500D01*
X217190606Y-49963500D01*
X217258727Y-49983502D01*
G37*
%TD.AperFunction*%
%TD*%
M02*
