%TF.GenerationSoftware,KiCad,Pcbnew,(6.0.9)*%
%TF.CreationDate,2023-04-16T11:33:14+02:00*%
%TF.ProjectId,PCB_zavrsni,5043425f-7a61-4767-9273-6e692e6b6963,rev?*%
%TF.SameCoordinates,Original*%
%TF.FileFunction,Copper,L1,Top*%
%TF.FilePolarity,Positive*%
%FSLAX46Y46*%
G04 Gerber Fmt 4.6, Leading zero omitted, Abs format (unit mm)*
G04 Created by KiCad (PCBNEW (6.0.9)) date 2023-04-16 11:33:14*
%MOMM*%
%LPD*%
G01*
G04 APERTURE LIST*
%TA.AperFunction,ComponentPad*%
%ADD10C,1.400000*%
%TD*%
%TA.AperFunction,ComponentPad*%
%ADD11O,1.400000X1.400000*%
%TD*%
%TA.AperFunction,ComponentPad*%
%ADD12R,1.700000X1.700000*%
%TD*%
%TA.AperFunction,ComponentPad*%
%ADD13O,1.700000X1.700000*%
%TD*%
%TA.AperFunction,ComponentPad*%
%ADD14R,1.500000X1.050000*%
%TD*%
%TA.AperFunction,ComponentPad*%
%ADD15O,1.500000X1.050000*%
%TD*%
%TA.AperFunction,ComponentPad*%
%ADD16R,2.000000X2.000000*%
%TD*%
%TA.AperFunction,ComponentPad*%
%ADD17O,2.000000X1.600000*%
%TD*%
%TA.AperFunction,ViaPad*%
%ADD18C,0.800000*%
%TD*%
%TA.AperFunction,Conductor*%
%ADD19C,0.250000*%
%TD*%
%TA.AperFunction,Conductor*%
%ADD20C,0.200000*%
%TD*%
G04 APERTURE END LIST*
D10*
%TO.P,R4,1*%
%TO.N,/SIGNAL*%
X212090000Y-90678000D03*
D11*
%TO.P,R4,2*%
%TO.N,/VCC*%
X212090000Y-98298000D03*
%TD*%
D12*
%TO.P,J1,1,Pin_1*%
%TO.N,/VCC*%
X204266000Y-83275000D03*
D13*
%TO.P,J1,2,Pin_2*%
%TO.N,/SCL*%
X201726000Y-83275000D03*
%TO.P,J1,3,Pin_3*%
%TO.N,/SDA*%
X199186000Y-83275000D03*
%TO.P,J1,4,Pin_4*%
%TO.N,/OUT-*%
X196646000Y-83275000D03*
%TD*%
D14*
%TO.P,U2,1,GND*%
%TO.N,/OUT-*%
X218842000Y-91948000D03*
D15*
%TO.P,U2,2,DQ*%
%TO.N,/SIGNAL*%
X218842000Y-93218000D03*
%TO.P,U2,3,VDD*%
%TO.N,/VCC*%
X218842000Y-94488000D03*
%TD*%
D16*
%TO.P,U1,1,~{RST}*%
%TO.N,/RST*%
X195750000Y-44250000D03*
D17*
%TO.P,U1,2,A0*%
%TO.N,/A0*%
X195750000Y-46790000D03*
%TO.P,U1,3,D0*%
%TO.N,/D0*%
X195750000Y-49330000D03*
%TO.P,U1,4,SCK/D5*%
%TO.N,/SIGNAL*%
X195750000Y-51870000D03*
%TO.P,U1,5,MISO/D6*%
%TO.N,/D6*%
X195750000Y-54410000D03*
%TO.P,U1,6,MOSI/D7*%
%TO.N,/D7*%
X195750000Y-56950000D03*
%TO.P,U1,7,CS/D8*%
%TO.N,/D8*%
X195750000Y-59490000D03*
%TO.P,U1,8,3V3*%
%TO.N,/VCC*%
X195750000Y-62030000D03*
%TO.P,U1,9,5V*%
%TO.N,/OUT+*%
X218610000Y-62030000D03*
%TO.P,U1,10,GND*%
%TO.N,/OUT-*%
X218610000Y-59490000D03*
%TO.P,U1,11,D4*%
%TO.N,/D4*%
X218610000Y-56950000D03*
%TO.P,U1,12,D3*%
%TO.N,/D3*%
X218610000Y-54410000D03*
%TO.P,U1,13,SDA/D2*%
%TO.N,/SDA*%
X218610000Y-51870000D03*
%TO.P,U1,14,SCL/D1*%
%TO.N,/SCL*%
X218610000Y-49330000D03*
%TO.P,U1,15,RX*%
%TO.N,/RX*%
X218610000Y-46790000D03*
%TO.P,U1,16,TX*%
%TO.N,/TX*%
X218610000Y-44250000D03*
%TD*%
D10*
%TO.P,R3,1*%
%TO.N,/RST*%
X200000000Y-44500000D03*
D11*
%TO.P,R3,2*%
%TO.N,/D0*%
X200000000Y-52120000D03*
%TD*%
D12*
%TO.P,J4,1,Pin_1*%
%TO.N,/BAT-*%
X203758000Y-73640000D03*
D13*
%TO.P,J4,2,Pin_2*%
%TO.N,/OUT-*%
X203758000Y-71100000D03*
%TD*%
D10*
%TO.P,R2,1*%
%TO.N,/BAT-*%
X209042000Y-73660000D03*
D11*
%TO.P,R2,2*%
%TO.N,/A0*%
X209042000Y-66040000D03*
%TD*%
D10*
%TO.P,R1,1*%
%TO.N,/BAT+*%
X212090000Y-73660000D03*
D11*
%TO.P,R1,2*%
%TO.N,/A0*%
X212090000Y-66040000D03*
%TD*%
D12*
%TO.P,J3,1,Pin_1*%
%TO.N,/OUT+*%
X218694000Y-71140000D03*
D13*
%TO.P,J3,2,Pin_2*%
%TO.N,/BAT+*%
X218694000Y-73680000D03*
%TD*%
D18*
%TO.N,/SIGNAL*%
X206248000Y-66548000D03*
%TO.N,/SCL*%
X201676000Y-65278000D03*
X201676000Y-60706000D03*
%TO.N,/OUT-*%
X213868000Y-50800000D03*
%TD*%
D19*
%TO.N,/SIGNAL*%
X214630000Y-93218000D02*
X218842000Y-93218000D01*
X212090000Y-90678000D02*
X214630000Y-93218000D01*
%TO.N,/VCC*%
X215032000Y-98298000D02*
X218842000Y-94488000D01*
X212090000Y-98298000D02*
X215032000Y-98298000D01*
X204266000Y-90474000D02*
X204266000Y-83275000D01*
X212090000Y-98298000D02*
X204266000Y-90474000D01*
%TO.N,/RST*%
X195750000Y-44250000D02*
X199750000Y-44250000D01*
X199750000Y-44250000D02*
X200000000Y-44500000D01*
%TO.N,/A0*%
X210566000Y-64516000D02*
X210566000Y-53086000D01*
X204270000Y-46790000D02*
X210566000Y-53086000D01*
X212090000Y-66040000D02*
X210566000Y-64516000D01*
X195750000Y-46790000D02*
X204270000Y-46790000D01*
X209042000Y-66040000D02*
X210566000Y-64516000D01*
%TO.N,/D0*%
X200000000Y-52120000D02*
X198540000Y-52120000D01*
X198540000Y-52120000D02*
X195750000Y-49330000D01*
%TO.N,/VCC*%
X204179000Y-83275000D02*
X195750000Y-74846000D01*
X204266000Y-83275000D02*
X204179000Y-83275000D01*
X195750000Y-74846000D02*
X195750000Y-62030000D01*
%TO.N,/SIGNAL*%
X203708000Y-56388000D02*
X206248000Y-58928000D01*
X206248000Y-66548000D02*
X206248000Y-58928000D01*
X195750000Y-51870000D02*
X200268000Y-56388000D01*
X200268000Y-56388000D02*
X203708000Y-56388000D01*
%TO.N,/SCL*%
X201676000Y-60706000D02*
X201676000Y-65278000D01*
D20*
%TO.N,/BAT+*%
X212090000Y-73660000D02*
X218674000Y-73660000D01*
%TO.N,/BAT-*%
X203758000Y-73640000D02*
X209022000Y-73640000D01*
%TO.N,/OUT+*%
X218694000Y-71140000D02*
X218694000Y-62114000D01*
X218694000Y-62114000D02*
X218610000Y-62030000D01*
%TD*%
%TA.AperFunction,Conductor*%
%TO.N,/OUT-*%
G36*
X194190198Y-43028502D02*
G01*
X194236691Y-43082158D01*
X194247340Y-43148108D01*
X194241500Y-43201866D01*
X194241500Y-45298134D01*
X194248255Y-45360316D01*
X194299385Y-45496705D01*
X194386739Y-45613261D01*
X194503295Y-45700615D01*
X194511704Y-45703767D01*
X194511707Y-45703769D01*
X194527768Y-45709790D01*
X194584533Y-45752431D01*
X194609234Y-45818992D01*
X194594027Y-45888341D01*
X194572635Y-45916867D01*
X194543802Y-45945700D01*
X194412477Y-46133251D01*
X194410154Y-46138233D01*
X194410151Y-46138238D01*
X194329409Y-46311392D01*
X194315716Y-46340757D01*
X194256457Y-46561913D01*
X194236502Y-46790000D01*
X194256457Y-47018087D01*
X194315716Y-47239243D01*
X194318039Y-47244224D01*
X194318039Y-47244225D01*
X194410151Y-47441762D01*
X194410154Y-47441767D01*
X194412477Y-47446749D01*
X194543802Y-47634300D01*
X194705700Y-47796198D01*
X194710208Y-47799355D01*
X194710211Y-47799357D01*
X194788389Y-47854098D01*
X194893251Y-47927523D01*
X194898233Y-47929846D01*
X194898238Y-47929849D01*
X194932457Y-47945805D01*
X194985742Y-47992722D01*
X195005203Y-48060999D01*
X194984661Y-48128959D01*
X194932457Y-48174195D01*
X194898238Y-48190151D01*
X194898233Y-48190154D01*
X194893251Y-48192477D01*
X194788389Y-48265902D01*
X194710211Y-48320643D01*
X194710208Y-48320645D01*
X194705700Y-48323802D01*
X194543802Y-48485700D01*
X194412477Y-48673251D01*
X194410154Y-48678233D01*
X194410151Y-48678238D01*
X194318039Y-48875775D01*
X194315716Y-48880757D01*
X194256457Y-49101913D01*
X194236502Y-49330000D01*
X194256457Y-49558087D01*
X194315716Y-49779243D01*
X194318039Y-49784224D01*
X194318039Y-49784225D01*
X194410151Y-49981762D01*
X194410154Y-49981767D01*
X194412477Y-49986749D01*
X194543802Y-50174300D01*
X194705700Y-50336198D01*
X194710208Y-50339355D01*
X194710211Y-50339357D01*
X194788389Y-50394098D01*
X194893251Y-50467523D01*
X194898233Y-50469846D01*
X194898238Y-50469849D01*
X194932457Y-50485805D01*
X194985742Y-50532722D01*
X195005203Y-50600999D01*
X194984661Y-50668959D01*
X194932457Y-50714195D01*
X194898238Y-50730151D01*
X194898233Y-50730154D01*
X194893251Y-50732477D01*
X194788389Y-50805902D01*
X194710211Y-50860643D01*
X194710208Y-50860645D01*
X194705700Y-50863802D01*
X194543802Y-51025700D01*
X194412477Y-51213251D01*
X194410154Y-51218233D01*
X194410151Y-51218238D01*
X194355085Y-51336329D01*
X194315716Y-51420757D01*
X194314294Y-51426065D01*
X194314293Y-51426067D01*
X194300619Y-51477099D01*
X194256457Y-51641913D01*
X194236502Y-51870000D01*
X194256457Y-52098087D01*
X194257881Y-52103400D01*
X194257881Y-52103402D01*
X194263796Y-52125475D01*
X194315716Y-52319243D01*
X194318039Y-52324224D01*
X194318039Y-52324225D01*
X194410151Y-52521762D01*
X194410154Y-52521767D01*
X194412477Y-52526749D01*
X194465347Y-52602255D01*
X194528465Y-52692396D01*
X194543802Y-52714300D01*
X194705700Y-52876198D01*
X194710208Y-52879355D01*
X194710211Y-52879357D01*
X194744935Y-52903671D01*
X194893251Y-53007523D01*
X194898233Y-53009846D01*
X194898238Y-53009849D01*
X194932457Y-53025805D01*
X194985742Y-53072722D01*
X195005203Y-53140999D01*
X194984661Y-53208959D01*
X194932457Y-53254195D01*
X194898238Y-53270151D01*
X194898233Y-53270154D01*
X194893251Y-53272477D01*
X194807334Y-53332637D01*
X194710211Y-53400643D01*
X194710208Y-53400645D01*
X194705700Y-53403802D01*
X194543802Y-53565700D01*
X194412477Y-53753251D01*
X194410154Y-53758233D01*
X194410151Y-53758238D01*
X194318039Y-53955775D01*
X194315716Y-53960757D01*
X194256457Y-54181913D01*
X194236502Y-54410000D01*
X194256457Y-54638087D01*
X194315716Y-54859243D01*
X194318039Y-54864224D01*
X194318039Y-54864225D01*
X194410151Y-55061762D01*
X194410154Y-55061767D01*
X194412477Y-55066749D01*
X194543802Y-55254300D01*
X194705700Y-55416198D01*
X194710208Y-55419355D01*
X194710211Y-55419357D01*
X194788389Y-55474098D01*
X194893251Y-55547523D01*
X194898233Y-55549846D01*
X194898238Y-55549849D01*
X194932457Y-55565805D01*
X194985742Y-55612722D01*
X195005203Y-55680999D01*
X194984661Y-55748959D01*
X194932457Y-55794195D01*
X194898238Y-55810151D01*
X194898233Y-55810154D01*
X194893251Y-55812477D01*
X194801330Y-55876841D01*
X194710211Y-55940643D01*
X194710208Y-55940645D01*
X194705700Y-55943802D01*
X194543802Y-56105700D01*
X194412477Y-56293251D01*
X194410154Y-56298233D01*
X194410151Y-56298238D01*
X194318039Y-56495775D01*
X194315716Y-56500757D01*
X194256457Y-56721913D01*
X194236502Y-56950000D01*
X194256457Y-57178087D01*
X194315716Y-57399243D01*
X194318039Y-57404224D01*
X194318039Y-57404225D01*
X194410151Y-57601762D01*
X194410154Y-57601767D01*
X194412477Y-57606749D01*
X194543802Y-57794300D01*
X194705700Y-57956198D01*
X194710208Y-57959355D01*
X194710211Y-57959357D01*
X194788389Y-58014098D01*
X194893251Y-58087523D01*
X194898233Y-58089846D01*
X194898238Y-58089849D01*
X194932457Y-58105805D01*
X194985742Y-58152722D01*
X195005203Y-58220999D01*
X194984661Y-58288959D01*
X194932457Y-58334195D01*
X194898238Y-58350151D01*
X194898233Y-58350154D01*
X194893251Y-58352477D01*
X194788389Y-58425902D01*
X194710211Y-58480643D01*
X194710208Y-58480645D01*
X194705700Y-58483802D01*
X194543802Y-58645700D01*
X194412477Y-58833251D01*
X194410154Y-58838233D01*
X194410151Y-58838238D01*
X194318039Y-59035775D01*
X194315716Y-59040757D01*
X194314294Y-59046065D01*
X194314293Y-59046067D01*
X194257881Y-59256598D01*
X194256457Y-59261913D01*
X194236502Y-59490000D01*
X194256457Y-59718087D01*
X194257881Y-59723400D01*
X194257881Y-59723402D01*
X194289095Y-59839891D01*
X194315716Y-59939243D01*
X194318039Y-59944224D01*
X194318039Y-59944225D01*
X194410151Y-60141762D01*
X194410154Y-60141767D01*
X194412477Y-60146749D01*
X194485902Y-60251611D01*
X194539896Y-60328721D01*
X194543802Y-60334300D01*
X194705700Y-60496198D01*
X194710208Y-60499355D01*
X194710211Y-60499357D01*
X194725117Y-60509794D01*
X194893251Y-60627523D01*
X194898233Y-60629846D01*
X194898238Y-60629849D01*
X194932457Y-60645805D01*
X194985742Y-60692722D01*
X195005203Y-60760999D01*
X194984661Y-60828959D01*
X194932457Y-60874195D01*
X194898238Y-60890151D01*
X194898233Y-60890154D01*
X194893251Y-60892477D01*
X194879357Y-60902206D01*
X194710211Y-61020643D01*
X194710208Y-61020645D01*
X194705700Y-61023802D01*
X194543802Y-61185700D01*
X194412477Y-61373251D01*
X194410154Y-61378233D01*
X194410151Y-61378238D01*
X194405496Y-61388221D01*
X194315716Y-61580757D01*
X194256457Y-61801913D01*
X194236502Y-62030000D01*
X194256457Y-62258087D01*
X194315716Y-62479243D01*
X194318039Y-62484224D01*
X194318039Y-62484225D01*
X194410151Y-62681762D01*
X194410154Y-62681767D01*
X194412477Y-62686749D01*
X194543802Y-62874300D01*
X194705700Y-63036198D01*
X194710208Y-63039355D01*
X194710211Y-63039357D01*
X194788389Y-63094098D01*
X194893251Y-63167523D01*
X194898236Y-63169847D01*
X194898242Y-63169851D01*
X195043749Y-63237701D01*
X195097035Y-63284618D01*
X195116500Y-63351896D01*
X195116500Y-74767233D01*
X195115973Y-74778416D01*
X195114298Y-74785909D01*
X195114547Y-74793835D01*
X195114547Y-74793836D01*
X195116438Y-74853986D01*
X195116500Y-74857945D01*
X195116500Y-74885856D01*
X195116997Y-74889790D01*
X195116997Y-74889791D01*
X195117005Y-74889856D01*
X195117938Y-74901693D01*
X195119327Y-74945889D01*
X195124978Y-74965339D01*
X195128987Y-74984700D01*
X195131526Y-75004797D01*
X195134445Y-75012168D01*
X195134445Y-75012170D01*
X195147804Y-75045912D01*
X195151649Y-75057142D01*
X195163982Y-75099593D01*
X195168015Y-75106412D01*
X195168017Y-75106417D01*
X195174293Y-75117028D01*
X195182988Y-75134776D01*
X195190448Y-75153617D01*
X195195110Y-75160033D01*
X195195110Y-75160034D01*
X195216436Y-75189387D01*
X195222952Y-75199307D01*
X195245458Y-75237362D01*
X195259779Y-75251683D01*
X195272619Y-75266716D01*
X195284528Y-75283107D01*
X195290634Y-75288158D01*
X195318605Y-75311298D01*
X195327384Y-75319288D01*
X201709048Y-81700953D01*
X201743074Y-81763265D01*
X201738009Y-81834080D01*
X201695462Y-81890916D01*
X201630878Y-81914949D01*
X201630911Y-81915165D01*
X201629870Y-81915324D01*
X201629869Y-81915324D01*
X201410091Y-81948955D01*
X201197756Y-82018357D01*
X200999607Y-82121507D01*
X200995474Y-82124610D01*
X200995471Y-82124612D01*
X200825100Y-82252530D01*
X200820965Y-82255635D01*
X200666629Y-82417138D01*
X200559201Y-82574621D01*
X200504293Y-82619621D01*
X200433768Y-82627792D01*
X200370021Y-82596538D01*
X200349324Y-82572054D01*
X200268822Y-82447617D01*
X200268820Y-82447614D01*
X200266014Y-82443277D01*
X200115670Y-82278051D01*
X200111619Y-82274852D01*
X200111615Y-82274848D01*
X199944414Y-82142800D01*
X199944410Y-82142798D01*
X199940359Y-82139598D01*
X199904028Y-82119542D01*
X199888136Y-82110769D01*
X199744789Y-82031638D01*
X199739920Y-82029914D01*
X199739916Y-82029912D01*
X199539087Y-81958795D01*
X199539083Y-81958794D01*
X199534212Y-81957069D01*
X199529119Y-81956162D01*
X199529116Y-81956161D01*
X199319373Y-81918800D01*
X199319367Y-81918799D01*
X199314284Y-81917894D01*
X199240452Y-81916992D01*
X199096081Y-81915228D01*
X199096079Y-81915228D01*
X199090911Y-81915165D01*
X198870091Y-81948955D01*
X198657756Y-82018357D01*
X198459607Y-82121507D01*
X198455474Y-82124610D01*
X198455471Y-82124612D01*
X198285100Y-82252530D01*
X198280965Y-82255635D01*
X198126629Y-82417138D01*
X198123720Y-82421403D01*
X198123714Y-82421411D01*
X198111404Y-82439457D01*
X198019204Y-82574618D01*
X198018898Y-82575066D01*
X197963987Y-82620069D01*
X197893462Y-82628240D01*
X197829715Y-82596986D01*
X197809018Y-82572502D01*
X197728426Y-82447926D01*
X197722136Y-82439757D01*
X197578806Y-82282240D01*
X197571273Y-82275215D01*
X197404139Y-82143222D01*
X197395552Y-82137517D01*
X197209117Y-82034599D01*
X197199705Y-82030369D01*
X196998959Y-81959280D01*
X196988988Y-81956646D01*
X196917837Y-81943972D01*
X196904540Y-81945432D01*
X196900000Y-81959989D01*
X196900000Y-84593517D01*
X196904064Y-84607359D01*
X196917478Y-84609393D01*
X196924184Y-84608534D01*
X196934262Y-84606392D01*
X197138255Y-84545191D01*
X197147842Y-84541433D01*
X197339095Y-84447739D01*
X197347945Y-84442464D01*
X197521328Y-84318792D01*
X197529200Y-84312139D01*
X197680052Y-84161812D01*
X197686730Y-84153965D01*
X197814022Y-83976819D01*
X197815279Y-83977722D01*
X197862373Y-83934362D01*
X197932311Y-83922145D01*
X197997751Y-83949678D01*
X198025579Y-83981511D01*
X198085987Y-84080088D01*
X198232250Y-84248938D01*
X198404126Y-84391632D01*
X198597000Y-84504338D01*
X198805692Y-84584030D01*
X198810760Y-84585061D01*
X198810763Y-84585062D01*
X198905862Y-84604410D01*
X199024597Y-84628567D01*
X199029772Y-84628757D01*
X199029774Y-84628757D01*
X199242673Y-84636564D01*
X199242677Y-84636564D01*
X199247837Y-84636753D01*
X199252957Y-84636097D01*
X199252959Y-84636097D01*
X199464288Y-84609025D01*
X199464289Y-84609025D01*
X199469416Y-84608368D01*
X199474366Y-84606883D01*
X199678429Y-84545661D01*
X199678434Y-84545659D01*
X199683384Y-84544174D01*
X199883994Y-84445896D01*
X200065860Y-84316173D01*
X200224096Y-84158489D01*
X200354453Y-83977077D01*
X200355776Y-83978028D01*
X200402645Y-83934857D01*
X200472580Y-83922625D01*
X200538026Y-83950144D01*
X200565875Y-83981994D01*
X200625987Y-84080088D01*
X200772250Y-84248938D01*
X200944126Y-84391632D01*
X201137000Y-84504338D01*
X201345692Y-84584030D01*
X201350760Y-84585061D01*
X201350763Y-84585062D01*
X201445862Y-84604410D01*
X201564597Y-84628567D01*
X201569772Y-84628757D01*
X201569774Y-84628757D01*
X201782673Y-84636564D01*
X201782677Y-84636564D01*
X201787837Y-84636753D01*
X201792957Y-84636097D01*
X201792959Y-84636097D01*
X202004288Y-84609025D01*
X202004289Y-84609025D01*
X202009416Y-84608368D01*
X202014366Y-84606883D01*
X202218429Y-84545661D01*
X202218434Y-84545659D01*
X202223384Y-84544174D01*
X202423994Y-84445896D01*
X202605860Y-84316173D01*
X202714091Y-84208319D01*
X202776462Y-84174404D01*
X202847268Y-84179592D01*
X202904030Y-84222238D01*
X202921012Y-84253341D01*
X202965385Y-84371705D01*
X203052739Y-84488261D01*
X203169295Y-84575615D01*
X203305684Y-84626745D01*
X203367866Y-84633500D01*
X203506500Y-84633500D01*
X203574621Y-84653502D01*
X203621114Y-84707158D01*
X203632500Y-84759500D01*
X203632500Y-90395233D01*
X203631973Y-90406416D01*
X203630298Y-90413909D01*
X203630547Y-90421835D01*
X203630547Y-90421836D01*
X203632438Y-90481986D01*
X203632500Y-90485945D01*
X203632500Y-90513856D01*
X203632997Y-90517790D01*
X203632997Y-90517791D01*
X203633005Y-90517856D01*
X203633938Y-90529693D01*
X203635327Y-90573889D01*
X203640978Y-90593339D01*
X203644987Y-90612700D01*
X203647526Y-90632797D01*
X203650445Y-90640168D01*
X203650445Y-90640170D01*
X203663804Y-90673912D01*
X203667649Y-90685142D01*
X203679982Y-90727593D01*
X203684015Y-90734412D01*
X203684017Y-90734417D01*
X203690293Y-90745028D01*
X203698988Y-90762776D01*
X203706448Y-90781617D01*
X203711110Y-90788033D01*
X203711110Y-90788034D01*
X203732436Y-90817387D01*
X203738952Y-90827307D01*
X203761458Y-90865362D01*
X203775779Y-90879683D01*
X203788619Y-90894716D01*
X203800528Y-90911107D01*
X203827132Y-90933116D01*
X203834605Y-90939298D01*
X203843384Y-90947288D01*
X210862557Y-97966462D01*
X210896583Y-98028774D01*
X210897547Y-98077439D01*
X210896736Y-98082039D01*
X210895314Y-98087345D01*
X210876884Y-98298000D01*
X210895314Y-98508655D01*
X210950044Y-98712910D01*
X210952366Y-98717891D01*
X210952367Y-98717892D01*
X211036358Y-98898010D01*
X211039411Y-98904558D01*
X211160699Y-99077776D01*
X211310224Y-99227301D01*
X211483442Y-99348589D01*
X211488420Y-99350910D01*
X211488423Y-99350912D01*
X211670108Y-99435633D01*
X211675090Y-99437956D01*
X211680398Y-99439378D01*
X211680400Y-99439379D01*
X211874030Y-99491262D01*
X211874032Y-99491262D01*
X211879345Y-99492686D01*
X212090000Y-99511116D01*
X212300655Y-99492686D01*
X212305968Y-99491262D01*
X212305970Y-99491262D01*
X212499600Y-99439379D01*
X212499602Y-99439378D01*
X212504910Y-99437956D01*
X212509892Y-99435633D01*
X212691577Y-99350912D01*
X212691580Y-99350910D01*
X212696558Y-99348589D01*
X212869776Y-99227301D01*
X213019301Y-99077776D01*
X213084102Y-98985230D01*
X213139559Y-98940901D01*
X213187315Y-98931500D01*
X214953233Y-98931500D01*
X214964416Y-98932027D01*
X214971909Y-98933702D01*
X214979835Y-98933453D01*
X214979836Y-98933453D01*
X215039986Y-98931562D01*
X215043945Y-98931500D01*
X215071856Y-98931500D01*
X215075791Y-98931003D01*
X215075856Y-98930995D01*
X215087693Y-98930062D01*
X215119951Y-98929048D01*
X215123970Y-98928922D01*
X215131889Y-98928673D01*
X215151343Y-98923021D01*
X215170700Y-98919013D01*
X215182930Y-98917468D01*
X215182931Y-98917468D01*
X215190797Y-98916474D01*
X215198168Y-98913555D01*
X215198170Y-98913555D01*
X215231912Y-98900196D01*
X215243142Y-98896351D01*
X215277983Y-98886229D01*
X215277984Y-98886229D01*
X215285593Y-98884018D01*
X215292412Y-98879985D01*
X215292417Y-98879983D01*
X215303028Y-98873707D01*
X215320776Y-98865012D01*
X215339617Y-98857552D01*
X215375387Y-98831564D01*
X215385307Y-98825048D01*
X215416535Y-98806580D01*
X215416538Y-98806578D01*
X215423362Y-98802542D01*
X215437683Y-98788221D01*
X215452717Y-98775380D01*
X215462694Y-98768131D01*
X215469107Y-98763472D01*
X215497298Y-98729395D01*
X215505288Y-98720616D01*
X218667499Y-95558405D01*
X218729811Y-95524379D01*
X218756594Y-95521500D01*
X219118004Y-95521500D01*
X219268713Y-95506723D01*
X219462742Y-95448142D01*
X219641698Y-95352990D01*
X219798763Y-95224890D01*
X219802692Y-95220141D01*
X219924027Y-95073472D01*
X219924029Y-95073469D01*
X219927956Y-95068722D01*
X220024356Y-94890435D01*
X220084290Y-94696820D01*
X220105476Y-94495250D01*
X220087106Y-94293404D01*
X220029881Y-94098971D01*
X220025951Y-94091452D01*
X219975753Y-93995432D01*
X219935981Y-93919355D01*
X219936016Y-93919337D01*
X219916111Y-93853559D01*
X219931271Y-93792591D01*
X219932461Y-93790390D01*
X220024356Y-93620435D01*
X220084290Y-93426820D01*
X220105476Y-93225250D01*
X220087106Y-93023404D01*
X220029881Y-92828971D01*
X220030559Y-92828771D01*
X220024044Y-92762727D01*
X220037320Y-92725677D01*
X220045321Y-92711063D01*
X220090478Y-92590606D01*
X220094105Y-92575351D01*
X220099631Y-92524486D01*
X220100000Y-92517672D01*
X220100000Y-92220115D01*
X220095525Y-92204876D01*
X220094135Y-92203671D01*
X220086452Y-92202000D01*
X219288242Y-92202000D01*
X219274197Y-92201215D01*
X219259799Y-92199600D01*
X219125183Y-92184500D01*
X218565996Y-92184500D01*
X218415287Y-92199277D01*
X218412998Y-92199968D01*
X218392276Y-92202000D01*
X217602116Y-92202000D01*
X217586877Y-92206475D01*
X217585672Y-92207865D01*
X217584001Y-92215548D01*
X217584001Y-92458500D01*
X217563999Y-92526621D01*
X217510343Y-92573114D01*
X217458001Y-92584500D01*
X214944595Y-92584500D01*
X214876474Y-92564498D01*
X214855500Y-92547595D01*
X213983790Y-91675885D01*
X217584000Y-91675885D01*
X217588475Y-91691124D01*
X217589865Y-91692329D01*
X217597548Y-91694000D01*
X218569885Y-91694000D01*
X218585124Y-91689525D01*
X218586329Y-91688135D01*
X218588000Y-91680452D01*
X218588000Y-91675885D01*
X219096000Y-91675885D01*
X219100475Y-91691124D01*
X219101865Y-91692329D01*
X219109548Y-91694000D01*
X220081884Y-91694000D01*
X220097123Y-91689525D01*
X220098328Y-91688135D01*
X220099999Y-91680452D01*
X220099999Y-91378331D01*
X220099629Y-91371510D01*
X220094105Y-91320648D01*
X220090479Y-91305396D01*
X220045324Y-91184946D01*
X220036786Y-91169351D01*
X219960285Y-91067276D01*
X219947724Y-91054715D01*
X219845649Y-90978214D01*
X219830054Y-90969676D01*
X219709606Y-90924522D01*
X219694351Y-90920895D01*
X219643486Y-90915369D01*
X219636672Y-90915000D01*
X219114115Y-90915000D01*
X219098876Y-90919475D01*
X219097671Y-90920865D01*
X219096000Y-90928548D01*
X219096000Y-91675885D01*
X218588000Y-91675885D01*
X218588000Y-90933116D01*
X218583525Y-90917877D01*
X218582135Y-90916672D01*
X218574452Y-90915001D01*
X218047331Y-90915001D01*
X218040510Y-90915371D01*
X217989648Y-90920895D01*
X217974396Y-90924521D01*
X217853946Y-90969676D01*
X217838351Y-90978214D01*
X217736276Y-91054715D01*
X217723715Y-91067276D01*
X217647214Y-91169351D01*
X217638676Y-91184946D01*
X217593522Y-91305394D01*
X217589895Y-91320649D01*
X217584369Y-91371514D01*
X217584000Y-91378328D01*
X217584000Y-91675885D01*
X213983790Y-91675885D01*
X213317443Y-91009538D01*
X213283417Y-90947226D01*
X213282453Y-90898561D01*
X213283264Y-90893961D01*
X213284686Y-90888655D01*
X213285166Y-90883175D01*
X213302637Y-90683475D01*
X213303116Y-90678000D01*
X213284686Y-90467345D01*
X213229956Y-90263090D01*
X213223153Y-90248500D01*
X213142912Y-90076423D01*
X213142910Y-90076420D01*
X213140589Y-90071442D01*
X213019301Y-89898224D01*
X212869776Y-89748699D01*
X212696558Y-89627411D01*
X212691580Y-89625090D01*
X212691577Y-89625088D01*
X212509892Y-89540367D01*
X212509891Y-89540366D01*
X212504910Y-89538044D01*
X212499602Y-89536622D01*
X212499600Y-89536621D01*
X212305970Y-89484738D01*
X212305968Y-89484738D01*
X212300655Y-89483314D01*
X212090000Y-89464884D01*
X211879345Y-89483314D01*
X211874032Y-89484738D01*
X211874030Y-89484738D01*
X211680400Y-89536621D01*
X211680398Y-89536622D01*
X211675090Y-89538044D01*
X211670109Y-89540366D01*
X211670108Y-89540367D01*
X211488423Y-89625088D01*
X211488420Y-89625090D01*
X211483442Y-89627411D01*
X211310224Y-89748699D01*
X211160699Y-89898224D01*
X211039411Y-90071442D01*
X211037090Y-90076420D01*
X211037088Y-90076423D01*
X210956847Y-90248500D01*
X210950044Y-90263090D01*
X210895314Y-90467345D01*
X210876884Y-90678000D01*
X210895314Y-90888655D01*
X210896738Y-90893968D01*
X210896738Y-90893970D01*
X210939810Y-91054715D01*
X210950044Y-91092910D01*
X211039411Y-91284558D01*
X211160699Y-91457776D01*
X211310224Y-91607301D01*
X211483442Y-91728589D01*
X211488420Y-91730910D01*
X211488423Y-91730912D01*
X211670108Y-91815633D01*
X211675090Y-91817956D01*
X211680398Y-91819378D01*
X211680400Y-91819379D01*
X211874030Y-91871262D01*
X211874032Y-91871262D01*
X211879345Y-91872686D01*
X212090000Y-91891116D01*
X212300655Y-91872686D01*
X212305971Y-91871262D01*
X212310563Y-91870452D01*
X212381123Y-91878321D01*
X212421539Y-91905443D01*
X214126343Y-93610247D01*
X214133887Y-93618537D01*
X214138000Y-93625018D01*
X214143777Y-93630443D01*
X214187667Y-93671658D01*
X214190509Y-93674413D01*
X214210230Y-93694134D01*
X214213425Y-93696612D01*
X214222447Y-93704318D01*
X214254679Y-93734586D01*
X214261628Y-93738406D01*
X214272432Y-93744346D01*
X214288956Y-93755199D01*
X214304959Y-93767613D01*
X214345543Y-93785176D01*
X214356173Y-93790383D01*
X214394940Y-93811695D01*
X214402617Y-93813666D01*
X214402622Y-93813668D01*
X214414558Y-93816732D01*
X214433266Y-93823137D01*
X214451855Y-93831181D01*
X214459680Y-93832420D01*
X214459682Y-93832421D01*
X214495519Y-93838097D01*
X214507140Y-93840504D01*
X214542289Y-93849528D01*
X214549970Y-93851500D01*
X214570231Y-93851500D01*
X214589940Y-93853051D01*
X214609943Y-93856219D01*
X214617835Y-93855473D01*
X214623062Y-93854979D01*
X214653954Y-93852059D01*
X214665811Y-93851500D01*
X217574835Y-93851500D01*
X217642956Y-93871502D01*
X217689449Y-93925158D01*
X217699553Y-93995432D01*
X217685671Y-94037429D01*
X217659644Y-94085565D01*
X217599710Y-94279180D01*
X217578524Y-94480750D01*
X217596894Y-94682596D01*
X217598633Y-94688506D01*
X217598634Y-94688509D01*
X217610927Y-94730279D01*
X217610971Y-94801276D01*
X217579148Y-94854948D01*
X214806500Y-97627595D01*
X214744188Y-97661621D01*
X214717405Y-97664500D01*
X213187315Y-97664500D01*
X213119194Y-97644498D01*
X213084102Y-97610770D01*
X213022460Y-97522736D01*
X213019301Y-97518224D01*
X212869776Y-97368699D01*
X212696558Y-97247411D01*
X212691580Y-97245090D01*
X212691577Y-97245088D01*
X212509892Y-97160367D01*
X212509891Y-97160366D01*
X212504910Y-97158044D01*
X212499602Y-97156622D01*
X212499600Y-97156621D01*
X212305970Y-97104738D01*
X212305968Y-97104738D01*
X212300655Y-97103314D01*
X212090000Y-97084884D01*
X212084525Y-97085363D01*
X211884816Y-97102835D01*
X211884812Y-97102836D01*
X211879345Y-97103314D01*
X211874039Y-97104736D01*
X211869439Y-97105547D01*
X211798879Y-97097679D01*
X211758462Y-97070557D01*
X204936405Y-90248500D01*
X204902379Y-90186188D01*
X204899500Y-90159405D01*
X204899500Y-84759500D01*
X204919502Y-84691379D01*
X204973158Y-84644886D01*
X205025500Y-84633500D01*
X205164134Y-84633500D01*
X205226316Y-84626745D01*
X205362705Y-84575615D01*
X205479261Y-84488261D01*
X205566615Y-84371705D01*
X205617745Y-84235316D01*
X205624500Y-84173134D01*
X205624500Y-82376866D01*
X205617745Y-82314684D01*
X205566615Y-82178295D01*
X205479261Y-82061739D01*
X205362705Y-81974385D01*
X205226316Y-81923255D01*
X205164134Y-81916500D01*
X203768594Y-81916500D01*
X203700473Y-81896498D01*
X203679499Y-81879595D01*
X196420405Y-74620500D01*
X196386379Y-74558188D01*
X196384223Y-74538134D01*
X202399500Y-74538134D01*
X202406255Y-74600316D01*
X202457385Y-74736705D01*
X202544739Y-74853261D01*
X202661295Y-74940615D01*
X202797684Y-74991745D01*
X202859866Y-74998500D01*
X204656134Y-74998500D01*
X204718316Y-74991745D01*
X204854705Y-74940615D01*
X204971261Y-74853261D01*
X205058615Y-74736705D01*
X205109745Y-74600316D01*
X205116500Y-74538134D01*
X205116500Y-74374500D01*
X205136502Y-74306379D01*
X205190158Y-74259886D01*
X205242500Y-74248500D01*
X207913176Y-74248500D01*
X207981297Y-74268502D01*
X208016388Y-74302229D01*
X208112699Y-74439776D01*
X208262224Y-74589301D01*
X208435442Y-74710589D01*
X208440420Y-74712910D01*
X208440423Y-74712912D01*
X208622108Y-74797633D01*
X208627090Y-74799956D01*
X208632398Y-74801378D01*
X208632400Y-74801379D01*
X208826030Y-74853262D01*
X208826032Y-74853262D01*
X208831345Y-74854686D01*
X209042000Y-74873116D01*
X209252655Y-74854686D01*
X209257968Y-74853262D01*
X209257970Y-74853262D01*
X209451600Y-74801379D01*
X209451602Y-74801378D01*
X209456910Y-74799956D01*
X209461892Y-74797633D01*
X209643577Y-74712912D01*
X209643580Y-74712910D01*
X209648558Y-74710589D01*
X209821776Y-74589301D01*
X209971301Y-74439776D01*
X210092589Y-74266558D01*
X210095701Y-74259886D01*
X210179633Y-74079892D01*
X210179634Y-74079891D01*
X210181956Y-74074910D01*
X210236686Y-73870655D01*
X210255116Y-73660000D01*
X210876884Y-73660000D01*
X210895314Y-73870655D01*
X210950044Y-74074910D01*
X210952366Y-74079891D01*
X210952367Y-74079892D01*
X211036300Y-74259886D01*
X211039411Y-74266558D01*
X211160699Y-74439776D01*
X211310224Y-74589301D01*
X211483442Y-74710589D01*
X211488420Y-74712910D01*
X211488423Y-74712912D01*
X211670108Y-74797633D01*
X211675090Y-74799956D01*
X211680398Y-74801378D01*
X211680400Y-74801379D01*
X211874030Y-74853262D01*
X211874032Y-74853262D01*
X211879345Y-74854686D01*
X212090000Y-74873116D01*
X212300655Y-74854686D01*
X212305968Y-74853262D01*
X212305970Y-74853262D01*
X212499600Y-74801379D01*
X212499602Y-74801378D01*
X212504910Y-74799956D01*
X212509892Y-74797633D01*
X212691577Y-74712912D01*
X212691580Y-74712910D01*
X212696558Y-74710589D01*
X212869776Y-74589301D01*
X213019301Y-74439776D01*
X213101607Y-74322230D01*
X213157064Y-74277901D01*
X213204820Y-74268500D01*
X217390698Y-74268500D01*
X217458819Y-74288502D01*
X217498131Y-74328665D01*
X217593987Y-74485088D01*
X217740250Y-74653938D01*
X217912126Y-74796632D01*
X218105000Y-74909338D01*
X218313692Y-74989030D01*
X218318760Y-74990061D01*
X218318763Y-74990062D01*
X218426017Y-75011883D01*
X218532597Y-75033567D01*
X218537772Y-75033757D01*
X218537774Y-75033757D01*
X218750673Y-75041564D01*
X218750677Y-75041564D01*
X218755837Y-75041753D01*
X218760957Y-75041097D01*
X218760959Y-75041097D01*
X218972288Y-75014025D01*
X218972289Y-75014025D01*
X218977416Y-75013368D01*
X218982366Y-75011883D01*
X219186429Y-74950661D01*
X219186434Y-74950659D01*
X219191384Y-74949174D01*
X219391994Y-74850896D01*
X219573860Y-74721173D01*
X219732096Y-74563489D01*
X219818194Y-74443671D01*
X219859435Y-74386277D01*
X219862453Y-74382077D01*
X219908701Y-74288502D01*
X219959136Y-74186453D01*
X219959137Y-74186451D01*
X219961430Y-74181811D01*
X220026370Y-73968069D01*
X220055529Y-73746590D01*
X220057156Y-73680000D01*
X220038852Y-73457361D01*
X219984431Y-73240702D01*
X219895354Y-73035840D01*
X219811033Y-72905500D01*
X219776822Y-72852617D01*
X219776820Y-72852614D01*
X219774014Y-72848277D01*
X219770532Y-72844450D01*
X219626798Y-72686488D01*
X219595746Y-72622642D01*
X219604141Y-72552143D01*
X219649317Y-72497375D01*
X219675761Y-72483706D01*
X219782297Y-72443767D01*
X219790705Y-72440615D01*
X219907261Y-72353261D01*
X219994615Y-72236705D01*
X220045745Y-72100316D01*
X220052500Y-72038134D01*
X220052500Y-70241866D01*
X220045745Y-70179684D01*
X219994615Y-70043295D01*
X219907261Y-69926739D01*
X219790705Y-69839385D01*
X219654316Y-69788255D01*
X219592134Y-69781500D01*
X219428500Y-69781500D01*
X219360379Y-69761498D01*
X219313886Y-69707842D01*
X219302500Y-69655500D01*
X219302500Y-63324384D01*
X219322502Y-63256263D01*
X219375251Y-63210189D01*
X219461758Y-63169851D01*
X219461764Y-63169847D01*
X219466749Y-63167523D01*
X219571611Y-63094098D01*
X219649789Y-63039357D01*
X219649792Y-63039355D01*
X219654300Y-63036198D01*
X219816198Y-62874300D01*
X219947523Y-62686749D01*
X219949846Y-62681767D01*
X219949849Y-62681762D01*
X220041961Y-62484225D01*
X220041961Y-62484224D01*
X220044284Y-62479243D01*
X220103543Y-62258087D01*
X220123498Y-62030000D01*
X220103543Y-61801913D01*
X220044284Y-61580757D01*
X219954504Y-61388221D01*
X219949849Y-61378238D01*
X219949846Y-61378233D01*
X219947523Y-61373251D01*
X219816198Y-61185700D01*
X219654300Y-61023802D01*
X219649792Y-61020645D01*
X219649789Y-61020643D01*
X219480643Y-60902206D01*
X219466749Y-60892477D01*
X219461767Y-60890154D01*
X219461762Y-60890151D01*
X219426951Y-60873919D01*
X219373666Y-60827002D01*
X219354205Y-60758725D01*
X219374747Y-60690765D01*
X219426951Y-60645529D01*
X219461511Y-60629414D01*
X219471007Y-60623931D01*
X219649467Y-60498972D01*
X219657875Y-60491916D01*
X219811916Y-60337875D01*
X219818972Y-60329467D01*
X219943931Y-60151007D01*
X219949414Y-60141511D01*
X220041490Y-59944053D01*
X220045236Y-59933761D01*
X220091394Y-59761497D01*
X220091058Y-59747401D01*
X220083116Y-59744000D01*
X217142033Y-59744000D01*
X217128502Y-59747973D01*
X217127273Y-59756522D01*
X217174764Y-59933761D01*
X217178510Y-59944053D01*
X217270586Y-60141511D01*
X217276069Y-60151007D01*
X217401028Y-60329467D01*
X217408084Y-60337875D01*
X217562125Y-60491916D01*
X217570533Y-60498972D01*
X217748993Y-60623931D01*
X217758489Y-60629414D01*
X217793049Y-60645529D01*
X217846334Y-60692446D01*
X217865795Y-60760723D01*
X217845253Y-60828683D01*
X217793049Y-60873919D01*
X217758238Y-60890151D01*
X217758233Y-60890154D01*
X217753251Y-60892477D01*
X217739357Y-60902206D01*
X217570211Y-61020643D01*
X217570208Y-61020645D01*
X217565700Y-61023802D01*
X217403802Y-61185700D01*
X217272477Y-61373251D01*
X217270154Y-61378233D01*
X217270151Y-61378238D01*
X217265496Y-61388221D01*
X217175716Y-61580757D01*
X217116457Y-61801913D01*
X217096502Y-62030000D01*
X217116457Y-62258087D01*
X217175716Y-62479243D01*
X217178039Y-62484224D01*
X217178039Y-62484225D01*
X217270151Y-62681762D01*
X217270154Y-62681767D01*
X217272477Y-62686749D01*
X217403802Y-62874300D01*
X217565700Y-63036198D01*
X217570208Y-63039355D01*
X217570211Y-63039357D01*
X217648389Y-63094098D01*
X217753251Y-63167523D01*
X217758233Y-63169846D01*
X217758238Y-63169849D01*
X217955775Y-63261961D01*
X217960757Y-63264284D01*
X217966062Y-63265706D01*
X217966069Y-63265708D01*
X217992110Y-63272685D01*
X218052733Y-63309636D01*
X218083755Y-63373496D01*
X218085500Y-63394392D01*
X218085500Y-69655500D01*
X218065498Y-69723621D01*
X218011842Y-69770114D01*
X217959500Y-69781500D01*
X217795866Y-69781500D01*
X217733684Y-69788255D01*
X217597295Y-69839385D01*
X217480739Y-69926739D01*
X217393385Y-70043295D01*
X217342255Y-70179684D01*
X217335500Y-70241866D01*
X217335500Y-72038134D01*
X217342255Y-72100316D01*
X217393385Y-72236705D01*
X217480739Y-72353261D01*
X217597295Y-72440615D01*
X217605704Y-72443767D01*
X217605705Y-72443768D01*
X217714451Y-72484535D01*
X217771216Y-72527176D01*
X217795916Y-72593738D01*
X217780709Y-72663087D01*
X217761316Y-72689568D01*
X217634629Y-72822138D01*
X217515683Y-72996507D01*
X217460774Y-73041507D01*
X217411597Y-73051500D01*
X213204820Y-73051500D01*
X213136699Y-73031498D01*
X213101607Y-72997770D01*
X213022460Y-72884736D01*
X213019301Y-72880224D01*
X212869776Y-72730699D01*
X212696558Y-72609411D01*
X212691580Y-72607090D01*
X212691577Y-72607088D01*
X212509892Y-72522367D01*
X212509891Y-72522366D01*
X212504910Y-72520044D01*
X212499602Y-72518622D01*
X212499600Y-72518621D01*
X212305970Y-72466738D01*
X212305968Y-72466738D01*
X212300655Y-72465314D01*
X212090000Y-72446884D01*
X211879345Y-72465314D01*
X211874032Y-72466738D01*
X211874030Y-72466738D01*
X211680400Y-72518621D01*
X211680398Y-72518622D01*
X211675090Y-72520044D01*
X211670109Y-72522366D01*
X211670108Y-72522367D01*
X211488423Y-72607088D01*
X211488420Y-72607090D01*
X211483442Y-72609411D01*
X211310224Y-72730699D01*
X211160699Y-72880224D01*
X211039411Y-73053442D01*
X210950044Y-73245090D01*
X210895314Y-73449345D01*
X210876884Y-73660000D01*
X210255116Y-73660000D01*
X210236686Y-73449345D01*
X210181956Y-73245090D01*
X210092589Y-73053442D01*
X209971301Y-72880224D01*
X209821776Y-72730699D01*
X209648558Y-72609411D01*
X209643580Y-72607090D01*
X209643577Y-72607088D01*
X209461892Y-72522367D01*
X209461891Y-72522366D01*
X209456910Y-72520044D01*
X209451602Y-72518622D01*
X209451600Y-72518621D01*
X209257970Y-72466738D01*
X209257968Y-72466738D01*
X209252655Y-72465314D01*
X209042000Y-72446884D01*
X208831345Y-72465314D01*
X208826032Y-72466738D01*
X208826030Y-72466738D01*
X208632400Y-72518621D01*
X208632398Y-72518622D01*
X208627090Y-72520044D01*
X208622109Y-72522366D01*
X208622108Y-72522367D01*
X208440423Y-72607088D01*
X208440420Y-72607090D01*
X208435442Y-72609411D01*
X208262224Y-72730699D01*
X208112699Y-72880224D01*
X208109540Y-72884736D01*
X208044397Y-72977770D01*
X207988940Y-73022099D01*
X207941184Y-73031500D01*
X205242500Y-73031500D01*
X205174379Y-73011498D01*
X205127886Y-72957842D01*
X205116500Y-72905500D01*
X205116500Y-72741866D01*
X205109745Y-72679684D01*
X205058615Y-72543295D01*
X204971261Y-72426739D01*
X204854705Y-72339385D01*
X204735687Y-72294767D01*
X204678923Y-72252125D01*
X204654223Y-72185564D01*
X204669430Y-72116215D01*
X204690977Y-72087535D01*
X204792052Y-71986812D01*
X204798730Y-71978965D01*
X204923003Y-71806020D01*
X204928313Y-71797183D01*
X205022670Y-71606267D01*
X205026469Y-71596672D01*
X205088377Y-71392910D01*
X205090555Y-71382837D01*
X205091986Y-71371962D01*
X205089775Y-71357778D01*
X205076617Y-71354000D01*
X202441225Y-71354000D01*
X202427694Y-71357973D01*
X202426257Y-71367966D01*
X202456565Y-71502446D01*
X202459645Y-71512275D01*
X202539770Y-71709603D01*
X202544413Y-71718794D01*
X202655694Y-71900388D01*
X202661777Y-71908699D01*
X202801213Y-72069667D01*
X202808577Y-72076879D01*
X202813522Y-72080985D01*
X202853156Y-72139889D01*
X202854653Y-72210870D01*
X202817537Y-72271392D01*
X202777264Y-72295910D01*
X202669705Y-72336232D01*
X202669704Y-72336233D01*
X202661295Y-72339385D01*
X202544739Y-72426739D01*
X202457385Y-72543295D01*
X202406255Y-72679684D01*
X202399500Y-72741866D01*
X202399500Y-74538134D01*
X196384223Y-74538134D01*
X196383500Y-74531405D01*
X196383500Y-70834183D01*
X202422389Y-70834183D01*
X202423912Y-70842607D01*
X202436292Y-70846000D01*
X203485885Y-70846000D01*
X203501124Y-70841525D01*
X203502329Y-70840135D01*
X203504000Y-70832452D01*
X203504000Y-70827885D01*
X204012000Y-70827885D01*
X204016475Y-70843124D01*
X204017865Y-70844329D01*
X204025548Y-70846000D01*
X205076344Y-70846000D01*
X205089875Y-70842027D01*
X205091180Y-70832947D01*
X205049214Y-70665875D01*
X205045894Y-70656124D01*
X204960972Y-70460814D01*
X204956105Y-70451739D01*
X204840426Y-70272926D01*
X204834136Y-70264757D01*
X204690806Y-70107240D01*
X204683273Y-70100215D01*
X204516139Y-69968222D01*
X204507552Y-69962517D01*
X204321117Y-69859599D01*
X204311705Y-69855369D01*
X204110959Y-69784280D01*
X204100988Y-69781646D01*
X204029837Y-69768972D01*
X204016540Y-69770432D01*
X204012000Y-69784989D01*
X204012000Y-70827885D01*
X203504000Y-70827885D01*
X203504000Y-69783102D01*
X203500082Y-69769758D01*
X203485806Y-69767771D01*
X203447324Y-69773660D01*
X203437288Y-69776051D01*
X203234868Y-69842212D01*
X203225359Y-69846209D01*
X203036463Y-69944542D01*
X203027738Y-69950036D01*
X202857433Y-70077905D01*
X202849726Y-70084748D01*
X202702590Y-70238717D01*
X202696104Y-70246727D01*
X202576098Y-70422649D01*
X202571000Y-70431623D01*
X202481338Y-70624783D01*
X202477775Y-70634470D01*
X202422389Y-70834183D01*
X196383500Y-70834183D01*
X196383500Y-65278000D01*
X200762496Y-65278000D01*
X200782458Y-65467928D01*
X200841473Y-65649556D01*
X200936960Y-65814944D01*
X201064747Y-65956866D01*
X201219248Y-66069118D01*
X201225276Y-66071802D01*
X201225278Y-66071803D01*
X201387681Y-66144109D01*
X201393712Y-66146794D01*
X201487112Y-66166647D01*
X201574056Y-66185128D01*
X201574061Y-66185128D01*
X201580513Y-66186500D01*
X201771487Y-66186500D01*
X201777939Y-66185128D01*
X201777944Y-66185128D01*
X201864888Y-66166647D01*
X201958288Y-66146794D01*
X201964319Y-66144109D01*
X202126722Y-66071803D01*
X202126724Y-66071802D01*
X202132752Y-66069118D01*
X202287253Y-65956866D01*
X202415040Y-65814944D01*
X202510527Y-65649556D01*
X202569542Y-65467928D01*
X202589504Y-65278000D01*
X202569542Y-65088072D01*
X202510527Y-64906444D01*
X202506011Y-64898621D01*
X202418341Y-64746774D01*
X202415040Y-64741056D01*
X202341863Y-64659785D01*
X202311147Y-64595779D01*
X202309500Y-64575476D01*
X202309500Y-61408524D01*
X202329502Y-61340403D01*
X202341858Y-61324221D01*
X202415040Y-61242944D01*
X202510527Y-61077556D01*
X202569542Y-60895928D01*
X202583753Y-60760723D01*
X202588814Y-60712565D01*
X202589504Y-60706000D01*
X202569542Y-60516072D01*
X202510527Y-60334444D01*
X202415040Y-60169056D01*
X202390465Y-60141762D01*
X202291675Y-60032045D01*
X202291674Y-60032044D01*
X202287253Y-60027134D01*
X202166282Y-59939243D01*
X202138094Y-59918763D01*
X202138093Y-59918762D01*
X202132752Y-59914882D01*
X202126724Y-59912198D01*
X202126722Y-59912197D01*
X201964319Y-59839891D01*
X201964318Y-59839891D01*
X201958288Y-59837206D01*
X201864887Y-59817353D01*
X201777944Y-59798872D01*
X201777939Y-59798872D01*
X201771487Y-59797500D01*
X201580513Y-59797500D01*
X201574061Y-59798872D01*
X201574056Y-59798872D01*
X201487113Y-59817353D01*
X201393712Y-59837206D01*
X201387682Y-59839891D01*
X201387681Y-59839891D01*
X201225278Y-59912197D01*
X201225276Y-59912198D01*
X201219248Y-59914882D01*
X201213907Y-59918762D01*
X201213906Y-59918763D01*
X201185718Y-59939243D01*
X201064747Y-60027134D01*
X201060326Y-60032044D01*
X201060325Y-60032045D01*
X200961536Y-60141762D01*
X200936960Y-60169056D01*
X200841473Y-60334444D01*
X200782458Y-60516072D01*
X200762496Y-60706000D01*
X200763186Y-60712565D01*
X200768248Y-60760723D01*
X200782458Y-60895928D01*
X200841473Y-61077556D01*
X200936960Y-61242944D01*
X201010137Y-61324215D01*
X201040853Y-61388221D01*
X201042500Y-61408524D01*
X201042500Y-64575476D01*
X201022498Y-64643597D01*
X201010142Y-64659779D01*
X200936960Y-64741056D01*
X200933659Y-64746774D01*
X200845990Y-64898621D01*
X200841473Y-64906444D01*
X200782458Y-65088072D01*
X200762496Y-65278000D01*
X196383500Y-65278000D01*
X196383500Y-63351896D01*
X196403502Y-63283775D01*
X196456251Y-63237701D01*
X196601758Y-63169851D01*
X196601764Y-63169847D01*
X196606749Y-63167523D01*
X196711611Y-63094098D01*
X196789789Y-63039357D01*
X196789792Y-63039355D01*
X196794300Y-63036198D01*
X196956198Y-62874300D01*
X197087523Y-62686749D01*
X197089846Y-62681767D01*
X197089849Y-62681762D01*
X197181961Y-62484225D01*
X197181961Y-62484224D01*
X197184284Y-62479243D01*
X197243543Y-62258087D01*
X197263498Y-62030000D01*
X197243543Y-61801913D01*
X197184284Y-61580757D01*
X197094504Y-61388221D01*
X197089849Y-61378238D01*
X197089846Y-61378233D01*
X197087523Y-61373251D01*
X196956198Y-61185700D01*
X196794300Y-61023802D01*
X196789792Y-61020645D01*
X196789789Y-61020643D01*
X196620643Y-60902206D01*
X196606749Y-60892477D01*
X196601767Y-60890154D01*
X196601762Y-60890151D01*
X196567543Y-60874195D01*
X196514258Y-60827278D01*
X196494797Y-60759001D01*
X196515339Y-60691041D01*
X196567543Y-60645805D01*
X196601762Y-60629849D01*
X196601767Y-60629846D01*
X196606749Y-60627523D01*
X196774883Y-60509794D01*
X196789789Y-60499357D01*
X196789792Y-60499355D01*
X196794300Y-60496198D01*
X196956198Y-60334300D01*
X196960105Y-60328721D01*
X197014098Y-60251611D01*
X197087523Y-60146749D01*
X197089846Y-60141767D01*
X197089849Y-60141762D01*
X197181961Y-59944225D01*
X197181961Y-59944224D01*
X197184284Y-59939243D01*
X197210906Y-59839891D01*
X197242119Y-59723402D01*
X197242119Y-59723400D01*
X197243543Y-59718087D01*
X197263498Y-59490000D01*
X197243543Y-59261913D01*
X197242119Y-59256598D01*
X197185707Y-59046067D01*
X197185706Y-59046065D01*
X197184284Y-59040757D01*
X197181961Y-59035775D01*
X197089849Y-58838238D01*
X197089846Y-58838233D01*
X197087523Y-58833251D01*
X196956198Y-58645700D01*
X196794300Y-58483802D01*
X196789792Y-58480645D01*
X196789789Y-58480643D01*
X196711611Y-58425902D01*
X196606749Y-58352477D01*
X196601767Y-58350154D01*
X196601762Y-58350151D01*
X196567543Y-58334195D01*
X196514258Y-58287278D01*
X196494797Y-58219001D01*
X196515339Y-58151041D01*
X196567543Y-58105805D01*
X196601762Y-58089849D01*
X196601767Y-58089846D01*
X196606749Y-58087523D01*
X196711611Y-58014098D01*
X196789789Y-57959357D01*
X196789792Y-57959355D01*
X196794300Y-57956198D01*
X196956198Y-57794300D01*
X197087523Y-57606749D01*
X197089846Y-57601767D01*
X197089849Y-57601762D01*
X197181961Y-57404225D01*
X197181961Y-57404224D01*
X197184284Y-57399243D01*
X197243543Y-57178087D01*
X197263498Y-56950000D01*
X197243543Y-56721913D01*
X197184284Y-56500757D01*
X197181961Y-56495775D01*
X197089849Y-56298238D01*
X197089846Y-56298233D01*
X197087523Y-56293251D01*
X196956198Y-56105700D01*
X196794300Y-55943802D01*
X196789792Y-55940645D01*
X196789789Y-55940643D01*
X196698670Y-55876841D01*
X196606749Y-55812477D01*
X196601767Y-55810154D01*
X196601762Y-55810151D01*
X196567543Y-55794195D01*
X196514258Y-55747278D01*
X196494797Y-55679001D01*
X196515339Y-55611041D01*
X196567543Y-55565805D01*
X196601762Y-55549849D01*
X196601767Y-55549846D01*
X196606749Y-55547523D01*
X196711611Y-55474098D01*
X196789789Y-55419357D01*
X196789792Y-55419355D01*
X196794300Y-55416198D01*
X196956198Y-55254300D01*
X197087523Y-55066749D01*
X197089846Y-55061767D01*
X197089849Y-55061762D01*
X197181961Y-54864225D01*
X197181961Y-54864224D01*
X197184284Y-54859243D01*
X197243543Y-54638087D01*
X197244023Y-54632601D01*
X197244024Y-54632595D01*
X197250456Y-54559088D01*
X197276319Y-54492970D01*
X197333823Y-54451330D01*
X197404710Y-54447390D01*
X197465071Y-54480975D01*
X198628379Y-55644284D01*
X199764348Y-56780253D01*
X199771888Y-56788539D01*
X199776000Y-56795018D01*
X199781777Y-56800443D01*
X199825651Y-56841643D01*
X199828493Y-56844398D01*
X199848230Y-56864135D01*
X199851427Y-56866615D01*
X199860447Y-56874318D01*
X199892679Y-56904586D01*
X199899625Y-56908405D01*
X199899628Y-56908407D01*
X199910434Y-56914348D01*
X199926953Y-56925199D01*
X199942959Y-56937614D01*
X199950228Y-56940759D01*
X199950232Y-56940762D01*
X199983537Y-56955174D01*
X199994187Y-56960391D01*
X200032940Y-56981695D01*
X200040615Y-56983666D01*
X200040616Y-56983666D01*
X200052562Y-56986733D01*
X200071267Y-56993137D01*
X200089855Y-57001181D01*
X200097678Y-57002420D01*
X200097688Y-57002423D01*
X200133524Y-57008099D01*
X200145144Y-57010505D01*
X200180289Y-57019528D01*
X200187970Y-57021500D01*
X200208224Y-57021500D01*
X200227934Y-57023051D01*
X200247943Y-57026220D01*
X200255835Y-57025474D01*
X200291961Y-57022059D01*
X200303819Y-57021500D01*
X203393406Y-57021500D01*
X203461527Y-57041502D01*
X203482501Y-57058405D01*
X205577595Y-59153499D01*
X205611621Y-59215811D01*
X205614500Y-59242594D01*
X205614500Y-65845476D01*
X205594498Y-65913597D01*
X205582142Y-65929779D01*
X205508960Y-66011056D01*
X205413473Y-66176444D01*
X205354458Y-66358072D01*
X205334496Y-66548000D01*
X205354458Y-66737928D01*
X205413473Y-66919556D01*
X205508960Y-67084944D01*
X205636747Y-67226866D01*
X205791248Y-67339118D01*
X205797276Y-67341802D01*
X205797278Y-67341803D01*
X205959681Y-67414109D01*
X205965712Y-67416794D01*
X206059112Y-67436647D01*
X206146056Y-67455128D01*
X206146061Y-67455128D01*
X206152513Y-67456500D01*
X206343487Y-67456500D01*
X206349939Y-67455128D01*
X206349944Y-67455128D01*
X206436888Y-67436647D01*
X206530288Y-67416794D01*
X206536319Y-67414109D01*
X206698722Y-67341803D01*
X206698724Y-67341802D01*
X206704752Y-67339118D01*
X206859253Y-67226866D01*
X206987040Y-67084944D01*
X207082527Y-66919556D01*
X207141542Y-66737928D01*
X207161504Y-66548000D01*
X207141542Y-66358072D01*
X207082527Y-66176444D01*
X206987040Y-66011056D01*
X206913863Y-65929785D01*
X206883147Y-65865779D01*
X206881500Y-65845476D01*
X206881500Y-59006763D01*
X206882027Y-58995579D01*
X206883701Y-58988091D01*
X206881562Y-58920032D01*
X206881500Y-58916075D01*
X206881500Y-58888144D01*
X206880994Y-58884138D01*
X206880061Y-58872292D01*
X206878922Y-58836037D01*
X206878673Y-58828110D01*
X206873022Y-58808658D01*
X206869014Y-58789306D01*
X206867468Y-58777068D01*
X206867467Y-58777066D01*
X206866474Y-58769203D01*
X206850194Y-58728086D01*
X206846359Y-58716885D01*
X206834018Y-58674406D01*
X206829985Y-58667587D01*
X206829983Y-58667582D01*
X206823707Y-58656971D01*
X206815010Y-58639221D01*
X206807552Y-58620383D01*
X206781571Y-58584623D01*
X206775053Y-58574701D01*
X206756578Y-58543460D01*
X206756574Y-58543455D01*
X206752542Y-58536637D01*
X206738218Y-58522313D01*
X206725376Y-58507278D01*
X206713472Y-58490893D01*
X206679406Y-58462711D01*
X206670627Y-58454722D01*
X204211652Y-55995747D01*
X204204112Y-55987461D01*
X204200000Y-55980982D01*
X204150348Y-55934356D01*
X204147507Y-55931602D01*
X204127770Y-55911865D01*
X204124573Y-55909385D01*
X204115551Y-55901680D01*
X204089100Y-55876841D01*
X204083321Y-55871414D01*
X204076375Y-55867595D01*
X204076372Y-55867593D01*
X204065566Y-55861652D01*
X204049047Y-55850801D01*
X204048583Y-55850441D01*
X204033041Y-55838386D01*
X204025772Y-55835241D01*
X204025768Y-55835238D01*
X203992463Y-55820826D01*
X203981813Y-55815609D01*
X203943060Y-55794305D01*
X203923437Y-55789267D01*
X203904734Y-55782863D01*
X203893420Y-55777967D01*
X203893419Y-55777967D01*
X203886145Y-55774819D01*
X203878322Y-55773580D01*
X203878312Y-55773577D01*
X203842476Y-55767901D01*
X203830856Y-55765495D01*
X203795711Y-55756472D01*
X203795710Y-55756472D01*
X203788030Y-55754500D01*
X203767776Y-55754500D01*
X203748065Y-55752949D01*
X203735886Y-55751020D01*
X203728057Y-55749780D01*
X203720165Y-55750526D01*
X203684039Y-55753941D01*
X203672181Y-55754500D01*
X200582594Y-55754500D01*
X200514473Y-55734498D01*
X200493499Y-55717595D01*
X197216885Y-52440981D01*
X197182859Y-52378669D01*
X197186305Y-52319784D01*
X197184284Y-52319243D01*
X197242119Y-52103402D01*
X197242119Y-52103400D01*
X197243543Y-52098087D01*
X197244022Y-52092611D01*
X197244023Y-52092606D01*
X197250454Y-52019090D01*
X197276317Y-51952972D01*
X197333820Y-51911332D01*
X197404708Y-51907391D01*
X197465070Y-51940976D01*
X198036352Y-52512258D01*
X198043887Y-52520538D01*
X198048000Y-52527018D01*
X198061710Y-52539892D01*
X198097651Y-52573643D01*
X198100493Y-52576398D01*
X198120230Y-52596135D01*
X198123427Y-52598615D01*
X198132447Y-52606318D01*
X198164679Y-52636586D01*
X198171625Y-52640405D01*
X198171628Y-52640407D01*
X198182434Y-52646348D01*
X198198953Y-52657199D01*
X198214959Y-52669614D01*
X198222228Y-52672759D01*
X198222232Y-52672762D01*
X198255537Y-52687174D01*
X198266187Y-52692391D01*
X198304940Y-52713695D01*
X198312615Y-52715666D01*
X198312616Y-52715666D01*
X198324562Y-52718733D01*
X198343267Y-52725137D01*
X198361855Y-52733181D01*
X198369678Y-52734420D01*
X198369688Y-52734423D01*
X198405524Y-52740099D01*
X198417144Y-52742505D01*
X198452289Y-52751528D01*
X198459970Y-52753500D01*
X198480224Y-52753500D01*
X198499934Y-52755051D01*
X198519943Y-52758220D01*
X198527835Y-52757474D01*
X198563961Y-52754059D01*
X198575819Y-52753500D01*
X198902685Y-52753500D01*
X198970806Y-52773502D01*
X199005898Y-52807230D01*
X199070699Y-52899776D01*
X199220224Y-53049301D01*
X199393442Y-53170589D01*
X199398420Y-53172910D01*
X199398423Y-53172912D01*
X199580108Y-53257633D01*
X199585090Y-53259956D01*
X199590398Y-53261378D01*
X199590400Y-53261379D01*
X199784030Y-53313262D01*
X199784032Y-53313262D01*
X199789345Y-53314686D01*
X200000000Y-53333116D01*
X200210655Y-53314686D01*
X200215968Y-53313262D01*
X200215970Y-53313262D01*
X200409600Y-53261379D01*
X200409602Y-53261378D01*
X200414910Y-53259956D01*
X200419892Y-53257633D01*
X200601577Y-53172912D01*
X200601580Y-53172910D01*
X200606558Y-53170589D01*
X200779776Y-53049301D01*
X200929301Y-52899776D01*
X201050589Y-52726558D01*
X201075423Y-52673303D01*
X201137633Y-52539892D01*
X201137634Y-52539891D01*
X201139956Y-52534910D01*
X201194686Y-52330655D01*
X201213116Y-52120000D01*
X201194686Y-51909345D01*
X201139956Y-51705090D01*
X201137633Y-51700108D01*
X201052912Y-51518423D01*
X201052910Y-51518420D01*
X201050589Y-51513442D01*
X200929301Y-51340224D01*
X200779776Y-51190699D01*
X200606558Y-51069411D01*
X200601580Y-51067090D01*
X200601577Y-51067088D01*
X200419892Y-50982367D01*
X200419891Y-50982366D01*
X200414910Y-50980044D01*
X200409602Y-50978622D01*
X200409600Y-50978621D01*
X200215970Y-50926738D01*
X200215968Y-50926738D01*
X200210655Y-50925314D01*
X200000000Y-50906884D01*
X199789345Y-50925314D01*
X199784032Y-50926738D01*
X199784030Y-50926738D01*
X199590400Y-50978621D01*
X199590398Y-50978622D01*
X199585090Y-50980044D01*
X199580109Y-50982366D01*
X199580108Y-50982367D01*
X199398423Y-51067088D01*
X199398420Y-51067090D01*
X199393442Y-51069411D01*
X199220224Y-51190699D01*
X199070699Y-51340224D01*
X199010591Y-51426067D01*
X199005898Y-51432770D01*
X198950441Y-51477099D01*
X198902685Y-51486500D01*
X198854594Y-51486500D01*
X198786473Y-51466498D01*
X198765499Y-51449595D01*
X197216885Y-49900981D01*
X197182859Y-49838669D01*
X197186305Y-49779784D01*
X197184284Y-49779243D01*
X197242119Y-49563402D01*
X197242119Y-49563400D01*
X197243543Y-49558087D01*
X197263498Y-49330000D01*
X197243543Y-49101913D01*
X197184284Y-48880757D01*
X197181961Y-48875775D01*
X197089849Y-48678238D01*
X197089846Y-48678233D01*
X197087523Y-48673251D01*
X196956198Y-48485700D01*
X196794300Y-48323802D01*
X196789792Y-48320645D01*
X196789789Y-48320643D01*
X196711611Y-48265902D01*
X196606749Y-48192477D01*
X196601767Y-48190154D01*
X196601762Y-48190151D01*
X196567543Y-48174195D01*
X196514258Y-48127278D01*
X196494797Y-48059001D01*
X196515339Y-47991041D01*
X196567543Y-47945805D01*
X196601762Y-47929849D01*
X196601767Y-47929846D01*
X196606749Y-47927523D01*
X196711611Y-47854098D01*
X196789789Y-47799357D01*
X196789792Y-47799355D01*
X196794300Y-47796198D01*
X196956198Y-47634300D01*
X197066181Y-47477229D01*
X197121638Y-47432901D01*
X197169394Y-47423500D01*
X203955406Y-47423500D01*
X204023527Y-47443502D01*
X204044501Y-47460405D01*
X209895595Y-53311499D01*
X209929621Y-53373811D01*
X209932500Y-53400594D01*
X209932500Y-64201405D01*
X209912498Y-64269526D01*
X209895595Y-64290500D01*
X209373538Y-64812557D01*
X209311226Y-64846583D01*
X209262561Y-64847547D01*
X209257961Y-64846736D01*
X209252655Y-64845314D01*
X209247188Y-64844836D01*
X209247184Y-64844835D01*
X209047475Y-64827363D01*
X209042000Y-64826884D01*
X208831345Y-64845314D01*
X208826032Y-64846738D01*
X208826030Y-64846738D01*
X208632400Y-64898621D01*
X208632398Y-64898622D01*
X208627090Y-64900044D01*
X208622109Y-64902366D01*
X208622108Y-64902367D01*
X208440423Y-64987088D01*
X208440420Y-64987090D01*
X208435442Y-64989411D01*
X208262224Y-65110699D01*
X208112699Y-65260224D01*
X207991411Y-65433442D01*
X207989090Y-65438420D01*
X207989088Y-65438423D01*
X207904367Y-65620108D01*
X207902044Y-65625090D01*
X207900622Y-65630398D01*
X207900621Y-65630400D01*
X207848738Y-65824030D01*
X207847314Y-65829345D01*
X207828884Y-66040000D01*
X207847314Y-66250655D01*
X207902044Y-66454910D01*
X207904366Y-66459891D01*
X207904367Y-66459892D01*
X207945453Y-66548000D01*
X207991411Y-66646558D01*
X208112699Y-66819776D01*
X208262224Y-66969301D01*
X208435442Y-67090589D01*
X208440420Y-67092910D01*
X208440423Y-67092912D01*
X208622108Y-67177633D01*
X208627090Y-67179956D01*
X208632398Y-67181378D01*
X208632400Y-67181379D01*
X208826030Y-67233262D01*
X208826032Y-67233262D01*
X208831345Y-67234686D01*
X209042000Y-67253116D01*
X209252655Y-67234686D01*
X209257968Y-67233262D01*
X209257970Y-67233262D01*
X209451600Y-67181379D01*
X209451602Y-67181378D01*
X209456910Y-67179956D01*
X209461892Y-67177633D01*
X209643577Y-67092912D01*
X209643580Y-67092910D01*
X209648558Y-67090589D01*
X209821776Y-66969301D01*
X209971301Y-66819776D01*
X210092589Y-66646558D01*
X210138548Y-66548000D01*
X210179633Y-66459892D01*
X210179634Y-66459891D01*
X210181956Y-66454910D01*
X210236686Y-66250655D01*
X210255116Y-66040000D01*
X210236686Y-65829345D01*
X210235262Y-65824029D01*
X210234452Y-65819437D01*
X210242321Y-65748877D01*
X210269443Y-65708461D01*
X210476905Y-65500999D01*
X210539217Y-65466973D01*
X210610032Y-65472038D01*
X210655095Y-65500999D01*
X210862557Y-65708461D01*
X210896583Y-65770773D01*
X210897548Y-65819437D01*
X210896738Y-65824029D01*
X210895314Y-65829345D01*
X210876884Y-66040000D01*
X210895314Y-66250655D01*
X210950044Y-66454910D01*
X210952366Y-66459891D01*
X210952367Y-66459892D01*
X210993453Y-66548000D01*
X211039411Y-66646558D01*
X211160699Y-66819776D01*
X211310224Y-66969301D01*
X211483442Y-67090589D01*
X211488420Y-67092910D01*
X211488423Y-67092912D01*
X211670108Y-67177633D01*
X211675090Y-67179956D01*
X211680398Y-67181378D01*
X211680400Y-67181379D01*
X211874030Y-67233262D01*
X211874032Y-67233262D01*
X211879345Y-67234686D01*
X212090000Y-67253116D01*
X212300655Y-67234686D01*
X212305968Y-67233262D01*
X212305970Y-67233262D01*
X212499600Y-67181379D01*
X212499602Y-67181378D01*
X212504910Y-67179956D01*
X212509892Y-67177633D01*
X212691577Y-67092912D01*
X212691580Y-67092910D01*
X212696558Y-67090589D01*
X212869776Y-66969301D01*
X213019301Y-66819776D01*
X213140589Y-66646558D01*
X213186548Y-66548000D01*
X213227633Y-66459892D01*
X213227634Y-66459891D01*
X213229956Y-66454910D01*
X213284686Y-66250655D01*
X213303116Y-66040000D01*
X213284686Y-65829345D01*
X213283262Y-65824030D01*
X213231379Y-65630400D01*
X213231378Y-65630398D01*
X213229956Y-65625090D01*
X213227633Y-65620108D01*
X213142912Y-65438423D01*
X213142910Y-65438420D01*
X213140589Y-65433442D01*
X213019301Y-65260224D01*
X212869776Y-65110699D01*
X212696558Y-64989411D01*
X212691580Y-64987090D01*
X212691577Y-64987088D01*
X212509892Y-64902367D01*
X212509891Y-64902366D01*
X212504910Y-64900044D01*
X212499602Y-64898622D01*
X212499600Y-64898621D01*
X212305970Y-64846738D01*
X212305968Y-64846738D01*
X212300655Y-64845314D01*
X212090000Y-64826884D01*
X212084525Y-64827363D01*
X211884816Y-64844835D01*
X211884812Y-64844836D01*
X211879345Y-64845314D01*
X211874039Y-64846736D01*
X211869439Y-64847547D01*
X211798879Y-64839679D01*
X211758462Y-64812557D01*
X211236405Y-64290500D01*
X211202379Y-64228188D01*
X211199500Y-64201405D01*
X211199500Y-53164768D01*
X211200027Y-53153585D01*
X211201702Y-53146092D01*
X211199562Y-53078001D01*
X211199500Y-53074044D01*
X211199500Y-53046144D01*
X211198996Y-53042153D01*
X211198063Y-53030311D01*
X211197922Y-53025805D01*
X211196674Y-52986111D01*
X211191021Y-52966652D01*
X211187012Y-52947293D01*
X211186846Y-52945983D01*
X211184474Y-52927203D01*
X211181558Y-52919837D01*
X211181556Y-52919831D01*
X211168200Y-52886098D01*
X211164355Y-52874868D01*
X211154230Y-52840017D01*
X211154230Y-52840016D01*
X211152019Y-52832407D01*
X211141705Y-52814966D01*
X211133008Y-52797213D01*
X211128472Y-52785758D01*
X211125552Y-52778383D01*
X211099563Y-52742612D01*
X211093047Y-52732692D01*
X211092084Y-52731063D01*
X211070542Y-52694638D01*
X211056221Y-52680317D01*
X211043380Y-52665283D01*
X211042999Y-52664758D01*
X211031472Y-52648893D01*
X210997395Y-52620702D01*
X210988616Y-52612712D01*
X204773652Y-46397747D01*
X204766112Y-46389461D01*
X204762000Y-46382982D01*
X204712348Y-46336356D01*
X204709507Y-46333602D01*
X204689770Y-46313865D01*
X204686573Y-46311385D01*
X204677551Y-46303680D01*
X204651100Y-46278841D01*
X204645321Y-46273414D01*
X204638375Y-46269595D01*
X204638372Y-46269593D01*
X204627566Y-46263652D01*
X204611047Y-46252801D01*
X204610583Y-46252441D01*
X204595041Y-46240386D01*
X204587772Y-46237241D01*
X204587768Y-46237238D01*
X204554463Y-46222826D01*
X204543813Y-46217609D01*
X204505060Y-46196305D01*
X204485437Y-46191267D01*
X204466734Y-46184863D01*
X204455420Y-46179967D01*
X204455419Y-46179967D01*
X204448145Y-46176819D01*
X204440322Y-46175580D01*
X204440312Y-46175577D01*
X204404476Y-46169901D01*
X204392856Y-46167495D01*
X204357711Y-46158472D01*
X204357710Y-46158472D01*
X204350030Y-46156500D01*
X204329776Y-46156500D01*
X204310065Y-46154949D01*
X204297886Y-46153020D01*
X204290057Y-46151780D01*
X204282165Y-46152526D01*
X204246039Y-46155941D01*
X204234181Y-46156500D01*
X197169394Y-46156500D01*
X197101273Y-46136498D01*
X197066181Y-46102771D01*
X196959357Y-45950211D01*
X196959355Y-45950208D01*
X196956198Y-45945700D01*
X196927365Y-45916867D01*
X196893339Y-45854555D01*
X196898404Y-45783740D01*
X196940951Y-45726904D01*
X196972232Y-45709790D01*
X196988293Y-45703769D01*
X196988296Y-45703767D01*
X196996705Y-45700615D01*
X197113261Y-45613261D01*
X197200615Y-45496705D01*
X197251745Y-45360316D01*
X197258500Y-45298134D01*
X197258500Y-45009500D01*
X197278502Y-44941379D01*
X197332158Y-44894886D01*
X197384500Y-44883500D01*
X198765126Y-44883500D01*
X198833247Y-44903502D01*
X198879321Y-44956250D01*
X198949411Y-45106558D01*
X199070699Y-45279776D01*
X199220224Y-45429301D01*
X199393442Y-45550589D01*
X199398420Y-45552910D01*
X199398423Y-45552912D01*
X199580108Y-45637633D01*
X199585090Y-45639956D01*
X199590398Y-45641378D01*
X199590400Y-45641379D01*
X199784030Y-45693262D01*
X199784032Y-45693262D01*
X199789345Y-45694686D01*
X200000000Y-45713116D01*
X200210655Y-45694686D01*
X200215968Y-45693262D01*
X200215970Y-45693262D01*
X200409600Y-45641379D01*
X200409602Y-45641378D01*
X200414910Y-45639956D01*
X200419892Y-45637633D01*
X200601577Y-45552912D01*
X200601580Y-45552910D01*
X200606558Y-45550589D01*
X200779776Y-45429301D01*
X200929301Y-45279776D01*
X201050589Y-45106558D01*
X201139956Y-44914910D01*
X201145322Y-44894886D01*
X201193262Y-44715970D01*
X201193262Y-44715968D01*
X201194686Y-44710655D01*
X201213116Y-44500000D01*
X201194686Y-44289345D01*
X201139956Y-44085090D01*
X201137633Y-44080108D01*
X201052912Y-43898423D01*
X201052910Y-43898420D01*
X201050589Y-43893442D01*
X200929301Y-43720224D01*
X200779776Y-43570699D01*
X200606558Y-43449411D01*
X200601580Y-43447090D01*
X200601577Y-43447088D01*
X200419892Y-43362367D01*
X200419891Y-43362366D01*
X200414910Y-43360044D01*
X200409602Y-43358622D01*
X200409600Y-43358621D01*
X200215970Y-43306738D01*
X200215968Y-43306738D01*
X200210655Y-43305314D01*
X200000000Y-43286884D01*
X199789345Y-43305314D01*
X199784032Y-43306738D01*
X199784030Y-43306738D01*
X199590400Y-43358621D01*
X199590398Y-43358622D01*
X199585090Y-43360044D01*
X199580109Y-43362366D01*
X199580108Y-43362367D01*
X199398423Y-43447088D01*
X199398420Y-43447090D01*
X199393442Y-43449411D01*
X199220224Y-43570699D01*
X199211328Y-43579595D01*
X199149016Y-43613621D01*
X199122233Y-43616500D01*
X197384500Y-43616500D01*
X197316379Y-43596498D01*
X197269886Y-43542842D01*
X197258500Y-43490500D01*
X197258500Y-43201866D01*
X197252660Y-43148108D01*
X197265188Y-43078225D01*
X197313509Y-43026210D01*
X197377923Y-43008500D01*
X217502125Y-43008500D01*
X217570246Y-43028502D01*
X217616739Y-43082158D01*
X217626843Y-43152432D01*
X217597349Y-43217012D01*
X217574396Y-43237713D01*
X217570211Y-43240643D01*
X217570208Y-43240645D01*
X217565700Y-43243802D01*
X217403802Y-43405700D01*
X217272477Y-43593251D01*
X217270154Y-43598233D01*
X217270151Y-43598238D01*
X217215085Y-43716329D01*
X217175716Y-43800757D01*
X217116457Y-44021913D01*
X217096502Y-44250000D01*
X217116457Y-44478087D01*
X217117881Y-44483400D01*
X217117881Y-44483402D01*
X217123796Y-44505475D01*
X217175716Y-44699243D01*
X217178039Y-44704224D01*
X217178039Y-44704225D01*
X217270151Y-44901762D01*
X217270154Y-44901767D01*
X217272477Y-44906749D01*
X217403802Y-45094300D01*
X217565700Y-45256198D01*
X217570208Y-45259355D01*
X217570211Y-45259357D01*
X217630442Y-45301531D01*
X217753251Y-45387523D01*
X217758233Y-45389846D01*
X217758238Y-45389849D01*
X217792457Y-45405805D01*
X217845742Y-45452722D01*
X217865203Y-45520999D01*
X217844661Y-45588959D01*
X217792457Y-45634195D01*
X217758238Y-45650151D01*
X217758233Y-45650154D01*
X217753251Y-45652477D01*
X217692195Y-45695229D01*
X217570211Y-45780643D01*
X217570208Y-45780645D01*
X217565700Y-45783802D01*
X217403802Y-45945700D01*
X217272477Y-46133251D01*
X217270154Y-46138233D01*
X217270151Y-46138238D01*
X217189409Y-46311392D01*
X217175716Y-46340757D01*
X217116457Y-46561913D01*
X217096502Y-46790000D01*
X217116457Y-47018087D01*
X217175716Y-47239243D01*
X217178039Y-47244224D01*
X217178039Y-47244225D01*
X217270151Y-47441762D01*
X217270154Y-47441767D01*
X217272477Y-47446749D01*
X217403802Y-47634300D01*
X217565700Y-47796198D01*
X217570208Y-47799355D01*
X217570211Y-47799357D01*
X217648389Y-47854098D01*
X217753251Y-47927523D01*
X217758233Y-47929846D01*
X217758238Y-47929849D01*
X217792457Y-47945805D01*
X217845742Y-47992722D01*
X217865203Y-48060999D01*
X217844661Y-48128959D01*
X217792457Y-48174195D01*
X217758238Y-48190151D01*
X217758233Y-48190154D01*
X217753251Y-48192477D01*
X217648389Y-48265902D01*
X217570211Y-48320643D01*
X217570208Y-48320645D01*
X217565700Y-48323802D01*
X217403802Y-48485700D01*
X217272477Y-48673251D01*
X217270154Y-48678233D01*
X217270151Y-48678238D01*
X217178039Y-48875775D01*
X217175716Y-48880757D01*
X217116457Y-49101913D01*
X217096502Y-49330000D01*
X217116457Y-49558087D01*
X217175716Y-49779243D01*
X217178039Y-49784224D01*
X217178039Y-49784225D01*
X217270151Y-49981762D01*
X217270154Y-49981767D01*
X217272477Y-49986749D01*
X217403802Y-50174300D01*
X217565700Y-50336198D01*
X217570208Y-50339355D01*
X217570211Y-50339357D01*
X217648389Y-50394098D01*
X217753251Y-50467523D01*
X217758233Y-50469846D01*
X217758238Y-50469849D01*
X217792457Y-50485805D01*
X217845742Y-50532722D01*
X217865203Y-50600999D01*
X217844661Y-50668959D01*
X217792457Y-50714195D01*
X217758238Y-50730151D01*
X217758233Y-50730154D01*
X217753251Y-50732477D01*
X217648389Y-50805902D01*
X217570211Y-50860643D01*
X217570208Y-50860645D01*
X217565700Y-50863802D01*
X217403802Y-51025700D01*
X217272477Y-51213251D01*
X217270154Y-51218233D01*
X217270151Y-51218238D01*
X217215085Y-51336329D01*
X217175716Y-51420757D01*
X217174294Y-51426065D01*
X217174293Y-51426067D01*
X217160619Y-51477099D01*
X217116457Y-51641913D01*
X217096502Y-51870000D01*
X217116457Y-52098087D01*
X217117881Y-52103400D01*
X217117881Y-52103402D01*
X217123796Y-52125475D01*
X217175716Y-52319243D01*
X217178039Y-52324224D01*
X217178039Y-52324225D01*
X217270151Y-52521762D01*
X217270154Y-52521767D01*
X217272477Y-52526749D01*
X217325347Y-52602255D01*
X217388465Y-52692396D01*
X217403802Y-52714300D01*
X217565700Y-52876198D01*
X217570208Y-52879355D01*
X217570211Y-52879357D01*
X217604935Y-52903671D01*
X217753251Y-53007523D01*
X217758233Y-53009846D01*
X217758238Y-53009849D01*
X217792457Y-53025805D01*
X217845742Y-53072722D01*
X217865203Y-53140999D01*
X217844661Y-53208959D01*
X217792457Y-53254195D01*
X217758238Y-53270151D01*
X217758233Y-53270154D01*
X217753251Y-53272477D01*
X217667334Y-53332637D01*
X217570211Y-53400643D01*
X217570208Y-53400645D01*
X217565700Y-53403802D01*
X217403802Y-53565700D01*
X217272477Y-53753251D01*
X217270154Y-53758233D01*
X217270151Y-53758238D01*
X217178039Y-53955775D01*
X217175716Y-53960757D01*
X217116457Y-54181913D01*
X217096502Y-54410000D01*
X217116457Y-54638087D01*
X217175716Y-54859243D01*
X217178039Y-54864224D01*
X217178039Y-54864225D01*
X217270151Y-55061762D01*
X217270154Y-55061767D01*
X217272477Y-55066749D01*
X217403802Y-55254300D01*
X217565700Y-55416198D01*
X217570208Y-55419355D01*
X217570211Y-55419357D01*
X217648389Y-55474098D01*
X217753251Y-55547523D01*
X217758233Y-55549846D01*
X217758238Y-55549849D01*
X217792457Y-55565805D01*
X217845742Y-55612722D01*
X217865203Y-55680999D01*
X217844661Y-55748959D01*
X217792457Y-55794195D01*
X217758238Y-55810151D01*
X217758233Y-55810154D01*
X217753251Y-55812477D01*
X217661330Y-55876841D01*
X217570211Y-55940643D01*
X217570208Y-55940645D01*
X217565700Y-55943802D01*
X217403802Y-56105700D01*
X217272477Y-56293251D01*
X217270154Y-56298233D01*
X217270151Y-56298238D01*
X217178039Y-56495775D01*
X217175716Y-56500757D01*
X217116457Y-56721913D01*
X217096502Y-56950000D01*
X217116457Y-57178087D01*
X217175716Y-57399243D01*
X217178039Y-57404224D01*
X217178039Y-57404225D01*
X217270151Y-57601762D01*
X217270154Y-57601767D01*
X217272477Y-57606749D01*
X217403802Y-57794300D01*
X217565700Y-57956198D01*
X217570208Y-57959355D01*
X217570211Y-57959357D01*
X217648389Y-58014098D01*
X217753251Y-58087523D01*
X217758233Y-58089846D01*
X217758238Y-58089849D01*
X217793049Y-58106081D01*
X217846334Y-58152998D01*
X217865795Y-58221275D01*
X217845253Y-58289235D01*
X217793049Y-58334471D01*
X217758489Y-58350586D01*
X217748993Y-58356069D01*
X217570533Y-58481028D01*
X217562125Y-58488084D01*
X217408084Y-58642125D01*
X217401028Y-58650533D01*
X217276069Y-58828993D01*
X217270586Y-58838489D01*
X217178510Y-59035947D01*
X217174764Y-59046239D01*
X217128606Y-59218503D01*
X217128942Y-59232599D01*
X217136884Y-59236000D01*
X220077967Y-59236000D01*
X220091498Y-59232027D01*
X220092727Y-59223478D01*
X220045236Y-59046239D01*
X220041490Y-59035947D01*
X219949414Y-58838489D01*
X219943931Y-58828993D01*
X219818972Y-58650533D01*
X219811916Y-58642125D01*
X219657875Y-58488084D01*
X219649467Y-58481028D01*
X219471007Y-58356069D01*
X219461511Y-58350586D01*
X219426951Y-58334471D01*
X219373666Y-58287554D01*
X219354205Y-58219277D01*
X219374747Y-58151317D01*
X219426951Y-58106081D01*
X219461762Y-58089849D01*
X219461767Y-58089846D01*
X219466749Y-58087523D01*
X219571611Y-58014098D01*
X219649789Y-57959357D01*
X219649792Y-57959355D01*
X219654300Y-57956198D01*
X219816198Y-57794300D01*
X219947523Y-57606749D01*
X219949846Y-57601767D01*
X219949849Y-57601762D01*
X220041961Y-57404225D01*
X220041961Y-57404224D01*
X220044284Y-57399243D01*
X220103543Y-57178087D01*
X220123498Y-56950000D01*
X220103543Y-56721913D01*
X220044284Y-56500757D01*
X220041961Y-56495775D01*
X219949849Y-56298238D01*
X219949846Y-56298233D01*
X219947523Y-56293251D01*
X219816198Y-56105700D01*
X219654300Y-55943802D01*
X219649792Y-55940645D01*
X219649789Y-55940643D01*
X219558670Y-55876841D01*
X219466749Y-55812477D01*
X219461767Y-55810154D01*
X219461762Y-55810151D01*
X219427543Y-55794195D01*
X219374258Y-55747278D01*
X219354797Y-55679001D01*
X219375339Y-55611041D01*
X219427543Y-55565805D01*
X219461762Y-55549849D01*
X219461767Y-55549846D01*
X219466749Y-55547523D01*
X219571611Y-55474098D01*
X219649789Y-55419357D01*
X219649792Y-55419355D01*
X219654300Y-55416198D01*
X219816198Y-55254300D01*
X219947523Y-55066749D01*
X219949846Y-55061767D01*
X219949849Y-55061762D01*
X220041961Y-54864225D01*
X220041961Y-54864224D01*
X220044284Y-54859243D01*
X220103543Y-54638087D01*
X220123498Y-54410000D01*
X220103543Y-54181913D01*
X220044284Y-53960757D01*
X220041961Y-53955775D01*
X219949849Y-53758238D01*
X219949846Y-53758233D01*
X219947523Y-53753251D01*
X219816198Y-53565700D01*
X219654300Y-53403802D01*
X219649792Y-53400645D01*
X219649789Y-53400643D01*
X219552666Y-53332637D01*
X219466749Y-53272477D01*
X219461767Y-53270154D01*
X219461762Y-53270151D01*
X219427543Y-53254195D01*
X219374258Y-53207278D01*
X219354797Y-53139001D01*
X219375339Y-53071041D01*
X219427543Y-53025805D01*
X219461762Y-53009849D01*
X219461767Y-53009846D01*
X219466749Y-53007523D01*
X219615065Y-52903671D01*
X219649789Y-52879357D01*
X219649792Y-52879355D01*
X219654300Y-52876198D01*
X219816198Y-52714300D01*
X219831536Y-52692396D01*
X219894653Y-52602255D01*
X219947523Y-52526749D01*
X219949846Y-52521767D01*
X219949849Y-52521762D01*
X220041961Y-52324225D01*
X220041961Y-52324224D01*
X220044284Y-52319243D01*
X220096205Y-52125475D01*
X220102119Y-52103402D01*
X220102119Y-52103400D01*
X220103543Y-52098087D01*
X220123498Y-51870000D01*
X220103543Y-51641913D01*
X220059381Y-51477099D01*
X220045707Y-51426067D01*
X220045706Y-51426065D01*
X220044284Y-51420757D01*
X220004915Y-51336329D01*
X219949849Y-51218238D01*
X219949846Y-51218233D01*
X219947523Y-51213251D01*
X219816198Y-51025700D01*
X219654300Y-50863802D01*
X219649792Y-50860645D01*
X219649789Y-50860643D01*
X219571611Y-50805902D01*
X219466749Y-50732477D01*
X219461767Y-50730154D01*
X219461762Y-50730151D01*
X219427543Y-50714195D01*
X219374258Y-50667278D01*
X219354797Y-50599001D01*
X219375339Y-50531041D01*
X219427543Y-50485805D01*
X219461762Y-50469849D01*
X219461767Y-50469846D01*
X219466749Y-50467523D01*
X219571611Y-50394098D01*
X219649789Y-50339357D01*
X219649792Y-50339355D01*
X219654300Y-50336198D01*
X219816198Y-50174300D01*
X219947523Y-49986749D01*
X219949846Y-49981767D01*
X219949849Y-49981762D01*
X220041961Y-49784225D01*
X220041961Y-49784224D01*
X220044284Y-49779243D01*
X220103543Y-49558087D01*
X220123498Y-49330000D01*
X220103543Y-49101913D01*
X220044284Y-48880757D01*
X220041961Y-48875775D01*
X219949849Y-48678238D01*
X219949846Y-48678233D01*
X219947523Y-48673251D01*
X219816198Y-48485700D01*
X219654300Y-48323802D01*
X219649792Y-48320645D01*
X219649789Y-48320643D01*
X219571611Y-48265902D01*
X219466749Y-48192477D01*
X219461767Y-48190154D01*
X219461762Y-48190151D01*
X219427543Y-48174195D01*
X219374258Y-48127278D01*
X219354797Y-48059001D01*
X219375339Y-47991041D01*
X219427543Y-47945805D01*
X219461762Y-47929849D01*
X219461767Y-47929846D01*
X219466749Y-47927523D01*
X219571611Y-47854098D01*
X219649789Y-47799357D01*
X219649792Y-47799355D01*
X219654300Y-47796198D01*
X219816198Y-47634300D01*
X219947523Y-47446749D01*
X219949846Y-47441767D01*
X219949849Y-47441762D01*
X220041961Y-47244225D01*
X220041961Y-47244224D01*
X220044284Y-47239243D01*
X220103543Y-47018087D01*
X220123498Y-46790000D01*
X220103543Y-46561913D01*
X220044284Y-46340757D01*
X220030591Y-46311392D01*
X219949849Y-46138238D01*
X219949846Y-46138233D01*
X219947523Y-46133251D01*
X219816198Y-45945700D01*
X219654300Y-45783802D01*
X219649792Y-45780645D01*
X219649789Y-45780643D01*
X219527805Y-45695229D01*
X219466749Y-45652477D01*
X219461767Y-45650154D01*
X219461762Y-45650151D01*
X219427543Y-45634195D01*
X219374258Y-45587278D01*
X219354797Y-45519001D01*
X219375339Y-45451041D01*
X219427543Y-45405805D01*
X219461762Y-45389849D01*
X219461767Y-45389846D01*
X219466749Y-45387523D01*
X219589558Y-45301531D01*
X219649789Y-45259357D01*
X219649792Y-45259355D01*
X219654300Y-45256198D01*
X219816198Y-45094300D01*
X219947523Y-44906749D01*
X219949846Y-44901767D01*
X219949849Y-44901762D01*
X220041961Y-44704225D01*
X220041961Y-44704224D01*
X220044284Y-44699243D01*
X220096205Y-44505475D01*
X220102119Y-44483402D01*
X220102119Y-44483400D01*
X220103543Y-44478087D01*
X220123498Y-44250000D01*
X220103543Y-44021913D01*
X220044284Y-43800757D01*
X220004915Y-43716329D01*
X219949849Y-43598238D01*
X219949846Y-43598233D01*
X219947523Y-43593251D01*
X219816198Y-43405700D01*
X219654300Y-43243802D01*
X219649792Y-43240645D01*
X219649789Y-43240643D01*
X219645604Y-43237713D01*
X219601276Y-43182256D01*
X219593967Y-43111637D01*
X219625998Y-43048276D01*
X219687199Y-43012291D01*
X219717875Y-43008500D01*
X221365500Y-43008500D01*
X221433621Y-43028502D01*
X221480114Y-43082158D01*
X221491500Y-43134500D01*
X221491500Y-101865500D01*
X221471498Y-101933621D01*
X221417842Y-101980114D01*
X221365500Y-101991500D01*
X192634500Y-101991500D01*
X192566379Y-101971498D01*
X192519886Y-101917842D01*
X192508500Y-101865500D01*
X192508500Y-83542966D01*
X195314257Y-83542966D01*
X195344565Y-83677446D01*
X195347645Y-83687275D01*
X195427770Y-83884603D01*
X195432413Y-83893794D01*
X195543694Y-84075388D01*
X195549777Y-84083699D01*
X195689213Y-84244667D01*
X195696580Y-84251883D01*
X195860434Y-84387916D01*
X195868881Y-84393831D01*
X196052756Y-84501279D01*
X196062042Y-84505729D01*
X196261001Y-84581703D01*
X196270899Y-84584579D01*
X196374250Y-84605606D01*
X196388299Y-84604410D01*
X196392000Y-84594065D01*
X196392000Y-83547115D01*
X196387525Y-83531876D01*
X196386135Y-83530671D01*
X196378452Y-83529000D01*
X195329225Y-83529000D01*
X195315694Y-83532973D01*
X195314257Y-83542966D01*
X192508500Y-83542966D01*
X192508500Y-83009183D01*
X195310389Y-83009183D01*
X195311912Y-83017607D01*
X195324292Y-83021000D01*
X196373885Y-83021000D01*
X196389124Y-83016525D01*
X196390329Y-83015135D01*
X196392000Y-83007452D01*
X196392000Y-81958102D01*
X196388082Y-81944758D01*
X196373806Y-81942771D01*
X196335324Y-81948660D01*
X196325288Y-81951051D01*
X196122868Y-82017212D01*
X196113359Y-82021209D01*
X195924463Y-82119542D01*
X195915738Y-82125036D01*
X195745433Y-82252905D01*
X195737726Y-82259748D01*
X195590590Y-82413717D01*
X195584104Y-82421727D01*
X195464098Y-82597649D01*
X195459000Y-82606623D01*
X195369338Y-82799783D01*
X195365775Y-82809470D01*
X195310389Y-83009183D01*
X192508500Y-83009183D01*
X192508500Y-43134500D01*
X192528502Y-43066379D01*
X192582158Y-43019886D01*
X192634500Y-43008500D01*
X194122077Y-43008500D01*
X194190198Y-43028502D01*
G37*
%TD.AperFunction*%
%TD*%
M02*
